{"glyphs":{"0":{"ha":852,"x_min":70,"x_max":783,"o":"m 696 633 q 586 718 652 687 q 427 749 519 749 q 270 719 338 749 q 158 635 201 688 q 91 513 113 581 q 70 364 70 445 q 92 211 70 282 q 159 87 114 140 q 270 7 201 37 q 426 -22 338 -22 q 571 3 506 -22 q 684 78 636 28 q 756 199 730 126 q 783 364 783 272 q 761 511 783 441 q 696 633 740 581 m 633 364 q 579 118 633 211 q 426 24 526 24 q 273 118 326 24 q 220 364 220 211 q 275 614 220 526 q 427 703 331 703 q 577 614 522 703 q 633 364 633 526 "},"1":{"ha":597,"x_min":89,"x_max":549,"o":"m 549 0 l 549 48 q 489 55 529 49 q 431 68 449 61 q 401 96 412 77 q 391 138 391 115 l 391 541 q 393 646 391 587 q 397 749 395 705 l 340 749 q 257 691 315 718 q 126 664 199 664 l 89 664 l 89 607 l 258 607 l 258 131 q 247 85 258 100 q 214 63 235 70 q 155 54 198 58 q 92 48 112 50 l 92 0 l 549 0 "},"2":{"ha":776,"x_min":75,"x_max":710,"o":"m 710 0 l 710 120 l 189 120 q 272 176 221 147 q 382 231 323 205 q 529 300 481 275 q 613 359 577 325 q 660 431 646 391 q 675 522 675 472 q 593 687 675 625 q 372 749 511 749 q 254 730 309 749 q 161 681 199 711 q 103 613 123 650 q 83 539 83 576 q 101 476 83 500 q 153 453 119 453 q 217 473 195 453 q 238 519 238 493 q 231 577 238 547 q 219 629 224 607 q 278 676 239 659 q 361 694 317 694 q 478 654 433 694 q 524 530 524 614 q 514 440 524 471 q 489 387 505 408 q 436 334 465 355 q 354 283 408 312 q 268 236 306 258 q 203 196 230 214 q 125 139 158 165 q 75 92 93 113 l 75 0 l 710 0 "},"3":{"ha":766,"x_min":43,"x_max":696,"o":"m 330 -248 q 591 -166 487 -248 q 696 45 696 -85 q 673 156 696 112 q 614 227 650 199 q 536 267 579 254 q 455 284 493 281 l 455 295 q 553 337 514 311 q 616 395 592 363 q 647 459 637 425 q 656 527 656 493 q 645 592 656 554 q 603 665 633 630 q 517 725 572 700 q 379 749 463 749 q 251 730 307 749 q 157 678 195 710 q 98 610 118 646 q 79 538 79 573 q 95 478 79 504 q 148 452 112 452 q 211 472 189 452 q 232 517 232 492 q 225 577 232 546 q 214 631 218 609 q 230 648 219 636 q 258 669 241 659 q 295 685 272 677 q 353 694 317 694 q 466 651 426 694 q 506 523 506 608 q 465 368 506 419 q 330 316 423 316 l 271 316 l 271 238 l 359 238 q 451 223 415 238 q 509 182 488 209 q 537 120 530 156 q 545 47 545 84 q 529 -62 545 -20 q 482 -135 512 -104 q 416 -178 454 -165 q 338 -192 378 -192 q 271 -186 294 -192 q 225 -170 247 -180 q 194 -151 207 -161 q 177 -135 182 -141 q 188 -87 181 -121 q 195 -33 195 -54 q 174 13 195 -7 q 112 33 153 33 q 60 6 76 33 q 43 -54 43 -20 q 64 -126 43 -91 q 123 -189 85 -161 q 214 -232 161 -216 q 330 -248 267 -248 "},"4":{"ha":785,"x_min":33,"x_max":735,"o":"m 735 61 l 735 150 l 597 150 l 597 745 l 509 745 l 33 165 l 33 61 l 467 61 l 467 -248 l 597 -248 l 597 61 l 735 61 m 467 150 l 101 150 l 467 594 l 467 150 "},"5":{"ha":734,"x_min":40,"x_max":675,"o":"m 572 318 q 474 369 527 353 q 371 384 420 384 q 261 362 311 384 q 181 319 212 341 l 216 607 l 647 607 l 647 728 l 161 728 l 104 238 l 149 220 q 234 288 186 268 q 335 309 281 309 q 475 246 422 309 q 528 87 528 183 q 514 -36 528 13 q 470 -122 499 -84 q 405 -174 444 -157 q 323 -192 366 -192 q 263 -186 289 -192 q 220 -173 238 -180 q 191 -157 203 -165 q 174 -144 179 -149 q 185 -96 178 -129 q 193 -42 193 -64 q 171 4 193 -17 q 109 26 150 26 q 57 0 74 26 q 40 -60 40 -26 q 122 -191 40 -135 q 323 -248 204 -248 q 576 -153 476 -248 q 675 88 675 -58 q 646 227 675 172 q 572 318 616 283 "},"6":{"ha":786,"x_min":70,"x_max":729,"o":"m 729 313 q 649 529 729 442 q 455 616 568 616 q 335 595 392 616 q 220 523 278 574 q 324 766 243 666 q 551 914 404 867 l 612 925 l 600 986 q 214 787 358 953 q 70 378 70 621 q 94 211 70 286 q 161 85 117 136 q 264 6 203 34 q 401 -22 326 -22 q 526 2 466 -22 q 635 75 586 26 q 704 180 678 119 q 729 313 729 242 m 582 294 q 532 102 582 172 q 402 32 483 32 q 266 122 317 32 q 214 370 214 212 q 215 417 214 387 q 217 454 216 446 q 301 518 258 499 q 396 537 345 537 q 531 471 481 537 q 582 294 582 404 "},"7":{"ha":698,"x_min":60,"x_max":698,"o":"m 698 684 l 698 728 l 60 728 l 60 462 l 102 462 q 127 554 111 518 q 165 600 144 591 q 226 612 193 611 q 318 614 259 614 l 585 614 l 130 -248 l 214 -248 l 698 684 "},"8":{"ha":828,"x_min":71,"x_max":758,"o":"m 758 255 q 708 403 758 345 q 545 509 658 461 q 677 610 632 549 q 722 740 722 671 q 641 917 722 846 q 429 987 559 987 q 204 913 298 987 q 110 728 110 838 q 153 597 110 655 q 281 492 195 540 q 124 392 177 451 q 71 246 71 334 q 161 52 71 127 q 401 -23 251 -23 q 659 59 561 -23 q 758 255 758 141 m 593 747 q 571 620 593 673 q 498 534 549 566 q 300 640 355 590 q 244 760 244 689 q 293 884 244 834 q 418 934 342 934 q 544 882 495 934 q 593 747 593 830 m 622 223 q 567 85 622 140 q 418 31 512 31 q 262 93 321 31 q 203 254 203 154 q 234 378 203 323 q 330 468 264 433 q 458 411 399 439 q 551 357 517 382 q 604 298 585 330 q 622 223 622 266 "},"9":{"ha":786,"x_min":57,"x_max":716,"o":"m 716 350 q 626 642 716 534 q 385 750 536 750 q 152 654 246 750 q 57 417 57 557 q 139 200 57 286 q 331 114 220 114 q 455 136 400 114 q 566 205 511 158 q 460 -37 543 58 q 233 -179 378 -133 l 172 -190 l 184 -251 q 405 -183 306 -235 q 572 -55 503 -132 q 679 128 642 24 q 716 350 716 232 m 572 358 q 572 331 572 345 q 571 308 571 317 q 570 285 571 293 q 569 274 569 277 q 487 212 531 231 q 390 193 443 193 q 255 259 305 193 q 204 435 204 326 q 254 627 204 557 q 384 696 303 696 q 520 607 469 696 q 572 358 572 517 "}," ":{"ha":335,"x_min":0,"x_max":0,"o":""},"!":{"ha":460,"x_min":140,"x_max":326,"o":"m 320 896 q 296 961 320 935 q 233 987 271 987 q 171 961 195 987 q 146 896 146 935 q 169 668 146 862 q 205 293 191 474 l 258 293 q 298 668 275 474 q 320 896 320 862 m 326 78 q 299 143 326 116 q 233 171 271 171 q 168 143 195 171 q 140 78 140 116 q 168 13 140 40 q 233 -14 195 -14 q 299 13 271 -14 q 326 78 326 40 "},"\"":{"ha":572,"x_min":80,"x_max":492,"o":"m 492 961 q 472 1015 492 992 q 415 1037 452 1037 q 357 1015 376 1037 q 338 961 338 992 q 358 847 338 938 q 393 656 377 756 l 435 656 q 474 857 456 779 q 492 961 492 934 m 233 961 q 213 1015 233 992 q 157 1037 193 1037 q 99 1015 118 1037 q 80 961 80 992 q 98 853 80 935 q 134 656 116 771 l 176 656 q 215 857 197 779 q 233 961 233 934 "},"#":{"ha":893,"x_min":104,"x_max":789,"o":"m 789 505 l 789 589 l 644 589 l 715 834 l 640 834 l 568 589 l 421 589 l 492 834 l 417 834 l 346 589 l 145 589 l 145 505 l 323 505 l 273 335 l 104 335 l 104 252 l 250 252 l 177 0 l 252 0 l 325 252 l 472 252 l 399 0 l 475 0 l 547 252 l 748 252 l 748 335 l 571 335 l 620 505 l 789 505 m 547 507 l 496 334 l 347 334 l 397 507 l 547 507 "},"$":{"ha":847,"x_min":105,"x_max":748,"o":"m 690 393 q 628 440 663 420 q 551 475 593 459 q 506 493 524 486 q 462 509 488 500 l 462 824 q 522 817 494 824 q 566 800 549 809 q 593 780 582 791 q 607 766 605 770 q 597 722 603 747 q 592 672 592 697 q 614 634 592 651 q 669 617 636 617 q 716 638 702 617 q 730 690 730 660 q 714 753 730 721 q 665 813 697 786 q 581 859 632 840 q 462 878 529 877 l 462 1034 l 406 1034 l 406 878 q 212 809 293 876 q 130 644 130 742 q 174 510 130 562 q 296 426 218 458 q 354 403 332 411 q 406 384 376 395 l 406 41 q 288 63 336 41 q 220 120 239 85 q 236 171 223 134 q 249 226 249 208 q 229 268 249 250 q 172 286 208 286 q 123 265 140 286 q 105 203 105 243 q 189 51 105 113 q 406 -13 272 -10 l 406 -203 l 462 -203 l 462 -12 q 667 69 585 -3 q 748 248 748 141 q 733 332 748 296 q 690 393 718 367 m 406 526 q 383 534 395 530 q 363 543 371 539 q 279 601 307 566 q 251 695 251 636 q 296 787 251 749 q 406 824 340 824 l 406 526 m 621 193 q 581 86 621 127 q 462 41 541 46 l 462 369 q 477 363 469 366 q 494 357 485 361 q 592 289 563 330 q 621 193 621 248 "},"%":{"ha":1135,"x_min":74,"x_max":1061,"o":"m 534 734 q 471 916 534 847 q 304 985 408 985 q 137 916 199 985 q 74 734 74 847 q 138 549 74 615 q 304 484 202 484 q 470 549 406 484 q 534 734 534 615 m 420 734 q 390 589 420 644 q 304 534 361 534 q 218 589 247 534 q 189 734 189 644 q 217 879 189 823 q 304 935 246 935 q 391 879 361 935 q 420 734 420 823 m 1061 229 q 998 411 1061 342 q 831 480 935 480 q 664 411 726 480 q 601 229 601 342 q 665 44 601 110 q 831 -22 729 -22 q 997 44 932 -22 q 1061 229 1061 110 m 947 229 q 917 84 947 139 q 831 28 888 28 q 745 84 774 28 q 715 229 715 139 q 744 374 715 317 q 831 430 773 430 q 918 374 888 430 q 947 229 947 317 m 1017 966 l 921 966 l 123 0 l 217 0 l 1017 966 "},"&":{"ha":987,"x_min":51,"x_max":986,"o":"m 986 562 l 986 610 l 623 610 l 623 562 q 710 537 679 550 q 742 503 742 525 q 717 390 742 454 q 646 254 692 326 q 529 393 590 322 q 404 550 468 464 q 544 655 493 597 q 594 795 594 714 q 582 863 594 829 q 545 923 569 897 q 478 968 519 951 q 383 985 437 985 q 292 970 337 985 q 216 929 248 956 q 164 861 182 900 q 145 775 145 822 q 176 656 145 709 q 261 531 206 604 q 95 386 140 454 q 51 234 51 318 q 75 117 51 166 q 139 37 100 68 q 229 -9 180 5 q 329 -24 279 -24 q 413 -12 377 -24 q 484 20 448 -1 q 544 65 515 39 q 595 115 573 91 l 696 0 l 976 0 l 976 48 q 894 60 944 50 q 817 87 844 71 q 750 142 789 104 q 684 213 711 180 q 738 297 717 255 q 779 382 759 339 q 814 458 800 426 q 843 506 829 490 q 905 546 865 533 q 986 562 946 558 m 507 782 q 476 675 507 721 q 375 590 445 629 q 299 706 323 658 q 275 800 275 753 q 281 839 275 817 q 300 880 287 861 q 336 912 315 899 q 389 925 357 925 q 476 888 446 925 q 507 782 507 851 m 559 155 q 481 93 529 114 q 384 71 433 71 q 243 132 296 71 q 191 285 191 193 q 213 402 191 351 q 291 491 236 453 q 417 330 338 425 q 559 155 496 235 "},"'":{"ha":299,"x_min":73,"x_max":226,"o":"m 226 961 q 206 1015 226 992 q 150 1037 186 1037 q 92 1015 111 1037 q 73 961 73 992 q 91 853 73 935 q 127 656 109 771 l 169 656 q 208 857 191 779 q 226 961 226 934 "},"(":{"ha":521,"x_min":79,"x_max":475,"o":"m 475 -222 l 475 -167 q 276 1 342 -142 q 210 403 210 144 q 277 817 210 674 q 475 983 345 959 l 475 1039 q 185 850 290 1015 q 79 404 79 686 q 185 -36 79 127 q 475 -222 290 -199 "},")":{"ha":521,"x_min":45,"x_max":441,"o":"m 441 404 q 336 850 441 686 q 45 1039 231 1015 l 45 983 q 243 817 176 959 q 311 403 311 674 q 245 1 311 144 q 45 -167 178 -142 l 45 -222 q 336 -36 231 -199 q 441 404 441 127 "},"*":{"ha":656,"x_min":58,"x_max":598,"o":"m 598 745 q 584 781 598 769 q 547 793 570 793 q 476 780 530 793 q 349 758 422 766 q 451 876 413 839 q 488 941 488 913 q 472 974 488 961 q 437 987 456 987 q 414 980 425 987 q 396 960 404 972 q 373 890 387 942 q 328 769 359 838 q 286 887 301 830 q 260 960 270 943 q 242 980 252 973 q 219 987 231 987 q 184 973 201 987 q 168 941 168 960 q 178 910 168 924 q 207 875 188 895 q 252 826 223 858 q 308 758 281 793 q 181 779 232 765 q 109 793 130 793 q 73 781 87 793 q 58 745 58 768 q 73 708 58 720 q 109 697 87 697 q 184 712 127 697 q 308 734 241 728 q 252 665 280 696 q 207 617 224 635 q 178 581 187 595 q 168 551 168 567 q 184 518 168 531 q 219 505 200 505 q 242 512 233 505 q 260 532 252 519 q 283 595 270 548 q 328 723 296 642 q 375 595 364 639 q 396 532 385 552 q 414 512 404 519 q 437 505 425 505 q 472 519 456 505 q 488 551 488 532 q 478 583 488 568 q 450 617 468 597 q 406 664 432 636 q 349 734 379 692 q 476 712 419 726 q 547 697 532 697 q 584 709 570 697 q 598 745 598 720 "},"+":{"ha":893,"x_min":98,"x_max":795,"o":"m 795 337 l 795 422 l 490 422 l 490 728 l 404 728 l 404 422 l 98 422 l 98 337 l 404 337 l 404 31 l 490 31 l 490 337 l 795 337 "},",":{"ha":374,"x_min":66,"x_max":291,"o":"m 291 24 q 262 132 291 93 q 174 171 233 171 q 111 144 134 171 q 88 89 88 117 q 114 25 88 49 q 184 1 139 1 l 219 1 q 201 -62 215 -34 q 166 -113 186 -90 q 124 -154 150 -134 q 66 -195 98 -174 l 97 -240 q 157 -201 124 -226 q 218 -143 189 -176 q 269 -68 247 -112 q 291 24 291 -25 "},"-":{"ha":519,"x_min":58,"x_max":462,"o":"m 462 315 l 462 422 l 58 422 l 58 315 l 462 315 "},".":{"ha":374,"x_min":96,"x_max":281,"o":"m 281 78 q 254 143 281 116 q 189 171 227 171 q 123 143 151 171 q 96 78 96 116 q 123 13 96 40 q 189 -14 151 -14 q 254 13 227 -14 q 281 78 281 40 "},"/":{"ha":651,"x_min":33,"x_max":590,"o":"m 590 1033 l 500 1033 l 33 -288 l 121 -288 l 590 1033 "},":":{"ha":434,"x_min":124,"x_max":310,"o":"m 310 578 q 283 644 310 616 q 217 671 256 671 q 151 644 178 671 q 124 578 124 616 q 152 513 124 541 q 217 486 179 486 q 282 513 255 486 q 310 578 310 541 m 310 78 q 282 143 310 116 q 217 171 255 171 q 152 143 179 171 q 124 78 124 116 q 152 13 124 40 q 217 -14 179 -14 q 282 13 255 -14 q 310 78 310 40 "},";":{"ha":434,"x_min":96,"x_max":321,"o":"m 310 578 q 283 644 310 616 q 217 671 256 671 q 151 644 178 671 q 124 578 124 616 q 152 513 124 541 q 217 486 179 486 q 282 513 255 486 q 310 578 310 541 m 321 24 q 292 132 321 93 q 205 171 263 171 q 142 144 165 171 q 119 89 119 117 q 144 25 119 49 q 215 1 170 1 l 250 1 q 231 -62 245 -34 q 197 -113 217 -90 q 154 -154 180 -133 q 96 -195 129 -174 l 127 -240 q 187 -201 155 -226 q 249 -143 220 -176 q 299 -68 277 -111 q 321 24 321 -25 "},"<":{"ha":893,"x_min":131,"x_max":758,"o":"m 758 15 l 758 108 l 237 380 l 758 651 l 758 744 l 131 418 l 131 341 l 758 15 "},"=":{"ha":893,"x_min":104,"x_max":789,"o":"m 789 463 l 789 548 l 104 548 l 104 463 l 789 463 m 789 211 l 789 296 l 104 296 l 104 211 l 789 211 "},">":{"ha":893,"x_min":135,"x_max":762,"o":"m 762 341 l 762 418 l 135 744 l 135 651 l 656 380 l 135 108 l 135 15 l 762 341 "},"?":{"ha":665,"x_min":72,"x_max":596,"o":"m 523 901 q 431 962 487 939 q 304 985 376 985 q 207 969 254 985 q 134 932 161 954 q 87 881 102 907 q 72 828 72 855 q 87 770 72 795 q 140 745 103 745 q 203 765 181 745 q 224 811 224 786 q 219 858 224 827 q 210 905 213 888 q 244 922 220 913 q 298 931 267 931 q 424 877 381 931 q 467 721 467 823 q 448 622 467 657 q 394 561 429 586 q 319 527 361 537 q 234 513 277 516 l 234 256 l 296 256 l 296 406 q 516 501 436 422 q 596 706 596 581 q 578 813 596 764 q 523 901 560 862 m 360 78 q 333 143 360 116 q 267 171 305 171 q 202 143 229 171 q 174 78 174 116 q 202 13 174 40 q 267 -14 229 -14 q 333 13 305 -14 q 360 78 360 40 "},"@":{"ha":1290,"x_min":114,"x_max":1179,"o":"m 1038 -81 l 1017 -46 q 865 -131 949 -102 q 673 -160 781 -160 q 496 -130 578 -160 q 353 -38 414 -99 q 258 118 292 25 q 224 334 224 212 q 267 563 224 462 q 380 732 311 664 q 540 838 452 802 q 720 873 627 873 q 892 844 817 873 q 1017 762 967 814 q 1093 642 1068 710 q 1118 494 1118 574 q 1048 234 1118 332 q 872 135 977 135 q 827 151 844 135 q 809 201 809 167 q 813 236 809 214 q 823 275 817 258 l 951 640 l 850 640 l 821 564 l 817 564 q 780 627 810 606 q 713 648 751 648 q 580 607 642 648 q 480 509 519 566 q 419 392 441 454 q 396 281 396 331 q 409 193 396 229 q 445 134 422 157 q 496 104 467 113 q 553 95 525 95 q 637 124 595 95 q 711 203 679 154 l 716 202 q 761 121 721 150 q 859 92 801 92 q 1088 207 998 92 q 1179 486 1179 321 q 1152 652 1179 572 q 1069 792 1124 731 q 928 891 1015 854 q 725 929 842 929 q 474 878 589 929 q 281 743 359 827 q 157 549 201 658 q 114 323 114 439 q 162 88 114 188 q 289 -79 210 -12 q 467 -179 368 -146 q 669 -212 566 -212 q 877 -176 783 -212 q 1038 -81 970 -140 m 802 503 l 724 274 q 655 184 692 216 q 572 152 618 152 q 527 183 541 152 q 513 271 513 214 q 527 381 513 321 q 568 490 542 440 q 630 573 593 538 q 709 608 666 608 q 771 583 750 608 q 802 503 792 558 "},"A":{"ha":932,"x_min":-28,"x_max":964,"o":"m 964 0 l 964 48 q 922 55 947 49 q 881 71 897 62 q 845 103 858 87 q 822 146 832 119 l 501 976 l 447 976 q 291 574 378 800 q 131 167 203 348 q 102 112 117 132 q 60 73 87 92 q 16 56 43 62 q -28 48 -10 50 l -28 0 l 334 0 l 334 48 q 238 66 281 51 q 195 108 195 81 q 199 138 195 119 q 211 185 202 156 q 232 250 220 215 q 263 333 244 286 l 600 333 l 680 117 q 684 102 683 111 q 686 87 686 93 q 651 62 686 72 q 563 48 616 52 l 563 0 l 964 0 m 576 393 l 287 393 l 430 766 l 576 393 "},"B":{"ha":908,"x_min":64,"x_max":846,"o":"m 749 448 q 657 493 709 477 q 565 513 606 509 l 565 519 q 652 548 612 530 q 724 594 692 567 q 775 662 757 623 q 793 753 793 702 q 768 852 793 811 q 702 916 742 892 q 612 952 659 942 q 513 962 565 962 l 69 962 l 69 914 q 111 907 86 913 q 157 892 136 902 q 188 863 180 881 q 195 823 195 846 l 195 131 q 186 90 195 106 q 157 64 178 74 q 112 54 143 58 q 64 48 81 50 l 64 0 l 520 0 q 638 16 581 0 q 741 64 696 33 q 817 145 788 96 q 846 262 846 195 q 819 374 846 328 q 749 448 791 420 m 585 593 q 521 551 561 565 q 426 536 481 536 l 340 536 l 340 906 q 395 908 362 907 q 450 909 428 909 q 587 864 543 909 q 630 739 630 819 q 620 657 630 692 q 585 593 610 623 m 679 286 q 625 113 679 172 q 471 54 572 54 q 374 75 409 54 q 340 140 340 97 l 340 479 q 385 480 355 479 q 458 481 414 481 q 622 427 564 481 q 679 286 679 372 "},"C":{"ha":892,"x_min":53,"x_max":874,"o":"m 490 -22 q 720 39 623 -22 q 874 243 816 100 l 823 268 q 781 185 807 223 q 722 117 755 147 q 642 72 688 89 q 541 54 595 54 q 408 87 467 54 q 305 177 349 119 q 238 312 262 235 q 215 481 215 389 q 237 671 215 586 q 299 810 260 755 q 397 897 340 867 q 519 926 454 926 q 622 900 577 926 q 699 827 667 873 q 750 728 728 787 q 783 619 772 669 l 838 619 l 832 962 l 778 962 l 750 916 q 640 966 698 948 q 511 983 583 983 q 332 947 416 983 q 186 843 248 910 q 88 681 123 775 q 53 472 53 587 q 89 265 53 357 q 185 109 125 173 q 325 12 246 45 q 490 -22 404 -22 "},"D":{"ha":1040,"x_min":64,"x_max":988,"o":"m 988 475 q 940 705 988 608 q 807 863 892 803 q 661 936 745 909 q 490 962 576 962 l 69 962 l 69 914 q 111 908 87 913 q 157 893 136 903 q 188 864 180 882 q 195 823 195 846 l 195 128 q 186 86 195 104 q 157 60 177 69 q 115 52 146 56 q 64 48 83 48 l 64 0 l 463 0 q 654 28 562 0 q 822 115 747 57 q 942 262 896 172 q 988 475 988 353 m 822 476 q 803 303 822 378 q 741 171 783 228 q 637 86 701 117 q 486 56 572 56 q 376 79 412 56 q 340 165 340 103 l 340 905 q 392 906 357 905 q 454 907 427 907 q 606 876 538 907 q 721 788 674 844 q 796 651 770 730 q 822 476 822 573 "},"E":{"ha":907,"x_min":58,"x_max":876,"o":"m 876 283 l 827 283 q 783 186 817 252 q 718 87 749 120 q 679 68 706 75 q 625 58 651 61 q 564 56 600 56 q 505 56 527 56 q 418 59 448 56 q 370 76 387 63 q 346 114 352 89 q 340 182 340 139 l 340 471 l 448 471 q 519 463 492 471 q 567 429 546 455 q 592 376 580 412 q 606 307 604 340 l 657 307 l 657 684 l 606 684 q 592 622 603 654 q 567 569 582 589 q 525 536 549 546 q 448 526 500 526 l 340 526 l 340 909 l 491 909 q 557 907 528 909 q 608 903 587 906 q 693 840 648 898 q 752 730 739 782 l 803 730 l 803 962 l 58 962 l 58 914 q 107 906 77 913 q 157 890 138 899 q 188 862 180 880 q 195 823 195 845 l 195 131 q 187 90 195 106 q 157 63 178 73 q 113 54 146 58 q 58 48 79 50 l 58 0 l 857 0 l 876 283 "},"F":{"ha":832,"x_min":58,"x_max":813,"o":"m 813 722 l 813 962 l 58 962 l 58 914 q 107 906 77 913 q 157 890 138 899 q 188 862 180 880 q 195 823 195 845 l 195 128 q 186 86 195 104 q 157 60 177 69 q 113 53 146 56 q 58 48 79 50 l 58 0 l 475 0 l 475 48 q 424 56 458 49 q 380 67 390 62 q 349 96 357 78 q 340 136 340 113 l 340 467 l 450 467 q 525 458 494 467 q 576 424 555 449 q 601 369 589 407 q 615 301 613 331 l 667 301 l 667 679 l 615 679 q 601 611 612 643 q 576 565 589 580 q 528 533 556 543 q 450 522 500 522 l 340 522 l 340 909 l 501 909 q 567 907 538 909 q 616 903 595 906 q 703 836 658 897 q 762 722 748 775 l 813 722 "},"G":{"ha":1007,"x_min":53,"x_max":998,"o":"m 998 385 l 998 434 l 576 434 l 576 385 q 636 378 597 383 q 696 363 674 373 q 729 331 721 353 q 736 280 736 309 l 736 227 q 736 166 736 202 q 730 95 736 130 q 661 56 710 75 q 552 38 612 38 q 409 73 472 38 q 304 168 346 107 q 240 308 262 227 q 218 480 218 389 q 240 668 218 584 q 304 808 262 752 q 403 896 346 867 q 532 926 460 926 q 647 900 599 926 q 728 832 694 875 q 782 735 761 789 q 817 626 803 682 l 873 626 l 867 962 l 812 962 l 785 916 q 678 964 739 944 q 536 983 618 983 q 346 946 435 983 q 192 840 256 908 q 89 677 125 771 q 53 473 53 583 q 91 267 53 359 q 193 111 129 175 q 342 12 257 47 q 520 -22 428 -22 q 696 -1 606 -22 q 876 62 785 21 q 873 109 874 80 q 872 218 872 137 l 872 293 q 881 337 872 318 q 909 366 889 355 q 954 378 926 374 q 998 385 981 382 "},"H":{"ha":1132,"x_min":66,"x_max":1063,"o":"m 1063 0 l 1063 48 q 1016 55 1046 49 q 975 67 987 61 q 944 96 952 79 q 937 136 937 112 l 937 829 q 944 871 937 852 q 975 898 952 890 q 1016 908 989 903 q 1063 914 1044 913 l 1063 962 l 663 962 l 663 914 q 708 906 682 913 q 753 890 734 899 q 783 862 774 880 q 792 823 792 844 l 792 531 l 340 531 l 340 829 q 348 871 340 852 q 378 898 355 890 q 419 908 392 903 q 466 914 447 913 l 466 962 l 66 962 l 66 914 q 112 906 85 913 q 156 890 138 899 q 186 862 178 880 q 195 823 195 844 l 195 128 q 186 85 195 102 q 156 60 176 68 q 114 52 144 55 q 66 48 83 50 l 66 0 l 466 0 l 466 48 q 419 55 449 49 q 378 67 390 61 q 348 96 355 79 q 340 136 340 112 l 340 471 l 792 471 l 792 128 q 783 85 792 102 q 753 60 773 68 q 710 52 741 55 q 663 48 680 50 l 663 0 l 1063 0 "},"I":{"ha":541,"x_min":54,"x_max":487,"o":"m 487 0 l 487 48 q 432 55 465 49 q 386 67 400 62 q 352 95 362 77 q 342 134 342 112 l 342 831 q 351 871 342 853 q 386 898 360 890 q 437 909 408 905 q 487 914 466 913 l 487 962 l 54 962 l 54 914 q 104 906 73 913 q 155 890 135 899 q 191 864 183 880 q 198 824 198 848 l 198 127 q 188 84 198 100 q 155 60 178 69 q 106 52 141 55 q 54 48 72 50 l 54 0 l 487 0 "},"J":{"ha":719,"x_min":7,"x_max":682,"o":"m 682 914 l 682 962 l 258 962 l 258 914 q 310 907 278 913 q 362 890 341 901 q 394 862 387 878 q 402 823 402 846 l 402 313 q 396 198 402 250 q 374 111 389 146 q 327 51 359 73 q 246 28 296 28 q 165 45 195 28 q 121 84 135 62 q 139 122 126 101 q 162 159 152 143 q 182 197 173 176 q 191 241 191 219 q 166 301 191 278 q 100 323 141 323 q 31 288 55 323 q 7 206 7 252 q 76 39 7 101 q 256 -23 145 -23 q 382 3 327 -23 q 477 75 437 28 q 530 164 512 114 q 548 259 548 214 l 548 829 q 556 871 548 852 q 587 898 564 890 q 635 909 607 905 q 682 914 663 913 "},"K":{"ha":964,"x_min":69,"x_max":1000,"o":"m 1000 0 l 1000 48 q 956 54 983 49 q 912 67 930 58 q 862 100 891 78 q 804 159 833 122 q 660 338 728 254 q 490 539 593 422 q 640 694 564 609 q 786 858 716 779 q 828 887 802 876 q 877 905 853 899 q 901 909 892 907 q 920 912 911 911 q 936 913 929 913 q 945 914 943 914 l 945 962 l 584 962 l 584 914 q 608 912 593 913 q 642 907 623 911 q 671 897 659 903 q 684 880 684 890 q 659 815 684 852 q 581 716 634 778 q 473 605 532 661 q 353 497 414 549 l 340 497 l 340 829 q 348 871 340 852 q 379 898 356 890 q 421 908 393 903 q 469 914 450 913 l 469 962 l 69 962 l 69 914 q 113 906 88 913 q 157 890 138 899 q 188 863 180 880 q 195 823 195 846 l 195 128 q 186 86 195 104 q 157 60 177 69 q 115 52 144 55 q 69 48 85 50 l 69 0 l 469 0 l 469 48 q 419 56 449 49 q 379 67 390 62 q 348 96 357 78 q 340 136 340 113 l 340 471 l 357 471 q 557 240 462 359 q 730 0 652 121 l 1000 0 "},"L":{"ha":838,"x_min":66,"x_max":839,"o":"m 839 286 l 791 286 q 740 183 777 247 q 675 89 703 120 q 645 71 665 78 q 602 60 625 64 q 550 54 577 56 q 498 53 523 53 q 411 57 442 53 q 365 73 380 60 q 344 111 349 86 q 340 180 340 136 l 340 827 q 348 869 340 849 q 380 897 357 888 q 424 907 393 901 q 473 914 454 913 l 473 962 l 66 962 l 66 914 q 113 905 85 913 q 157 889 141 897 q 188 861 180 878 q 195 820 195 843 l 195 131 q 186 87 195 104 q 157 62 177 71 q 114 53 144 56 q 66 48 83 50 l 66 0 l 819 0 l 839 286 "},"M":{"ha":1288,"x_min":33,"x_max":1225,"o":"m 1225 0 l 1225 48 q 1175 55 1206 49 q 1132 67 1144 60 q 1101 96 1109 79 q 1093 136 1093 112 l 1093 829 q 1101 871 1093 852 q 1132 898 1109 890 q 1175 908 1145 903 q 1223 914 1204 913 l 1223 962 l 909 962 q 900 914 909 950 q 878 844 890 878 l 642 241 l 367 962 l 39 962 l 39 914 q 99 904 68 913 q 151 877 130 895 q 180 833 170 860 q 190 763 190 806 l 190 271 q 181 139 190 178 q 149 81 172 100 q 97 58 130 66 q 33 48 63 51 l 33 0 l 421 0 l 421 48 q 360 62 407 49 q 298 89 313 75 q 266 151 277 108 q 256 278 256 195 l 256 852 l 264 852 l 577 16 l 611 16 l 939 836 l 949 836 l 949 136 q 940 94 949 111 q 909 64 930 77 q 859 53 895 57 q 800 48 823 49 l 800 0 l 1225 0 "},"N":{"ha":1065,"x_min":16,"x_max":1054,"o":"m 1054 914 l 1054 962 l 663 962 l 663 914 q 728 901 685 913 q 790 876 771 888 q 821 815 810 861 q 832 686 832 770 l 832 229 l 291 962 l 16 962 l 16 914 q 84 897 42 913 q 150 859 125 881 q 179 810 168 842 q 190 748 190 779 l 190 274 q 181 141 190 180 q 149 83 172 102 q 94 61 138 73 q 33 48 51 50 l 33 0 l 427 0 l 427 48 q 363 62 412 49 q 298 90 314 75 q 266 153 277 109 q 256 281 256 198 l 256 778 l 839 -9 l 898 -9 l 898 695 q 906 817 898 769 q 939 882 915 865 q 996 903 956 893 q 1054 914 1035 913 "},"O":{"ha":1034,"x_min":54,"x_max":979,"o":"m 844 848 q 697 949 782 913 q 517 985 612 985 q 340 950 425 985 q 192 848 256 915 q 91 689 127 781 q 54 480 54 597 q 89 279 54 373 q 185 119 124 185 q 331 15 246 52 q 517 -23 416 -23 q 694 12 611 -23 q 841 113 778 47 q 943 272 906 178 q 979 480 979 366 q 943 688 979 594 q 844 848 907 782 m 743 166 q 648 71 706 105 q 517 37 589 37 q 384 71 439 37 q 292 164 328 104 q 236 304 254 225 q 218 480 218 382 q 235 648 218 568 q 286 788 252 728 q 378 888 321 850 q 517 925 435 925 q 646 893 589 925 q 739 803 702 861 q 796 662 777 745 q 815 480 815 579 q 798 306 815 384 q 743 166 781 228 "},"P":{"ha":847,"x_min":62,"x_max":803,"o":"m 803 725 q 719 898 803 833 q 501 962 635 962 l 62 962 l 62 914 q 105 909 80 913 q 157 897 131 905 q 189 868 182 887 q 195 825 195 849 l 195 131 q 186 87 195 104 q 157 62 177 71 q 114 53 144 56 q 66 48 83 50 l 66 0 l 479 0 l 479 48 q 423 53 454 49 q 380 62 392 57 q 348 89 355 71 q 340 131 340 107 l 340 422 l 448 422 q 578 440 517 422 q 692 496 640 458 q 773 592 744 534 q 803 725 803 650 m 597 561 q 528 504 574 527 q 409 481 482 481 l 340 481 l 340 907 l 435 907 q 532 889 493 907 q 594 840 570 871 q 626 770 616 810 q 635 691 635 730 q 627 628 635 663 q 597 561 620 593 "},"Q":{"ha":1034,"x_min":54,"x_max":979,"o":"m 844 848 q 697 949 782 913 q 517 985 612 985 q 340 950 425 985 q 192 848 256 915 q 91 689 127 781 q 54 480 54 597 q 87 282 54 373 q 180 125 121 192 q 322 20 239 58 q 502 -22 405 -18 q 532 -132 509 -87 q 591 -205 555 -176 q 669 -248 626 -235 q 758 -261 713 -261 q 885 -251 840 -261 q 962 -233 931 -241 l 962 -179 q 913 -186 943 -182 q 829 -190 884 -190 q 716 -131 768 -190 q 663 3 664 -71 q 790 72 733 28 q 888 174 847 115 q 956 312 932 235 q 979 480 979 389 q 943 688 979 594 q 844 848 907 782 m 743 166 q 648 71 706 105 q 517 37 589 37 q 384 71 439 37 q 292 164 328 104 q 236 304 254 225 q 218 480 218 382 q 235 648 218 568 q 286 788 252 728 q 378 888 321 850 q 517 925 435 925 q 646 893 589 925 q 739 803 702 861 q 796 662 777 745 q 815 480 815 579 q 798 306 815 384 q 743 166 781 228 "},"R":{"ha":975,"x_min":66,"x_max":1004,"o":"m 1004 0 l 1004 48 q 960 54 986 49 q 916 67 933 58 q 868 99 892 79 q 814 159 844 118 q 698 315 745 251 q 580 474 651 380 q 674 510 631 489 q 747 561 717 532 q 798 635 781 592 q 814 733 814 677 q 789 839 814 795 q 722 909 764 882 q 625 950 679 937 q 511 962 572 962 l 66 962 l 66 914 q 113 908 85 913 q 157 897 140 903 q 189 869 182 887 q 195 827 195 850 l 195 131 q 186 87 195 104 q 157 62 177 71 q 114 53 144 56 q 66 48 83 50 l 66 0 l 473 0 l 473 48 q 422 53 452 49 q 379 62 391 57 q 347 89 355 71 q 340 131 340 107 l 340 436 l 438 436 q 589 233 519 332 q 745 0 659 135 l 1004 0 m 647 718 q 585 554 647 614 q 429 494 522 494 l 340 494 l 340 907 l 455 907 q 597 856 547 907 q 647 718 647 805 "},"S":{"ha":779,"x_min":64,"x_max":725,"o":"m 665 441 q 600 494 637 471 q 522 534 562 516 q 429 571 477 553 q 332 612 381 588 q 247 679 276 638 q 218 783 218 720 q 263 884 218 842 q 373 925 309 925 q 476 902 434 925 q 547 839 518 878 q 596 748 577 798 q 629 643 614 698 l 684 643 l 679 962 l 625 962 l 597 916 q 501 964 553 943 q 382 984 448 984 q 270 964 323 984 q 177 909 216 944 q 113 824 136 871 q 91 722 91 777 q 136 567 91 626 q 262 471 181 507 q 361 430 304 452 q 462 391 418 409 q 559 316 526 366 q 591 208 591 266 q 581 139 591 169 q 549 86 570 109 q 492 52 527 64 q 410 39 457 39 q 301 63 348 39 q 218 127 254 87 q 158 219 181 170 q 119 329 136 268 l 64 329 l 73 -1 l 127 -1 l 157 49 q 268 0 203 20 q 397 -20 332 -20 q 631 63 536 -20 q 725 273 725 146 q 710 367 725 327 q 665 441 696 408 "},"T":{"ha":859,"x_min":10,"x_max":848,"o":"m 848 701 l 848 962 l 10 962 l 10 701 l 58 701 q 79 758 64 724 q 115 823 95 792 q 160 877 136 853 q 206 904 184 901 q 266 908 235 907 q 318 909 297 909 l 357 909 l 357 134 q 347 89 357 106 q 314 64 336 73 q 260 54 299 58 q 202 48 221 50 l 202 0 l 656 0 l 656 48 q 596 57 635 49 q 545 70 557 65 q 511 99 521 80 q 502 140 502 117 l 502 909 l 541 909 q 600 908 568 909 q 653 904 632 907 q 700 877 675 901 q 744 823 724 854 q 780 759 764 793 q 802 701 795 726 l 848 701 "},"U":{"ha":1050,"x_min":50,"x_max":1040,"o":"m 1040 914 l 1040 962 l 646 962 l 646 914 q 709 903 668 913 q 774 877 750 894 q 806 814 795 862 q 817 691 817 766 l 817 296 q 805 216 817 256 q 766 139 793 176 q 686 77 736 100 q 561 53 635 53 q 436 77 481 53 q 364 138 391 100 q 331 217 339 174 q 322 298 322 259 l 322 829 q 330 871 322 852 q 361 898 338 890 q 403 908 374 903 q 451 914 432 913 l 451 962 l 50 962 l 50 914 q 94 907 67 913 q 137 892 120 901 q 169 862 161 878 q 176 823 176 846 l 176 254 q 199 150 176 199 q 268 61 222 100 q 382 0 314 22 q 536 -23 450 -23 q 650 -7 591 -23 q 763 45 709 9 q 850 142 817 83 q 884 281 884 201 l 884 700 q 892 819 884 770 q 924 884 901 868 q 984 906 947 899 q 1040 914 1021 913 "},"V":{"ha":926,"x_min":-26,"x_max":954,"o":"m 954 914 l 954 962 l 596 962 l 596 914 q 643 909 620 912 q 688 899 666 905 q 725 881 711 891 q 739 854 739 870 q 735 816 739 840 q 709 730 732 792 q 619 496 686 667 q 500 199 552 325 q 340 627 397 477 q 259 844 284 777 q 254 860 257 850 q 252 878 252 870 q 287 904 252 897 q 372 914 321 911 l 372 962 l -26 962 l -26 914 q 16 907 -7 913 q 56 890 38 901 q 92 860 79 876 q 114 823 106 844 q 237 494 146 737 q 426 -12 328 250 l 482 -12 q 669 464 578 235 q 806 800 760 692 q 833 852 819 830 q 870 889 847 875 q 911 906 886 899 q 954 914 937 913 "},"W":{"ha":1355,"x_min":-3,"x_max":1375,"o":"m 1375 914 l 1375 962 l 1026 962 l 1026 914 q 1128 893 1097 909 q 1160 854 1160 878 q 1156 815 1160 838 q 1135 728 1152 791 q 1077 513 1112 639 q 993 219 1042 387 l 751 949 l 684 949 l 444 235 q 327 646 366 509 q 271 843 287 783 q 268 861 270 850 q 266 879 266 872 q 302 904 266 897 q 390 914 338 911 l 390 962 l -3 962 l -3 914 q 38 907 16 913 q 78 890 61 901 q 110 860 98 876 q 128 823 122 844 q 224 480 153 736 q 363 -12 296 225 l 423 -12 l 676 728 l 919 -12 l 981 -12 q 1119 434 1055 224 q 1231 800 1183 643 q 1256 853 1242 834 q 1295 888 1271 873 q 1336 906 1314 899 q 1375 914 1358 913 "},"X":{"ha":987,"x_min":9,"x_max":988,"o":"m 988 0 l 988 48 q 942 51 969 49 q 898 63 914 54 q 854 101 881 73 q 806 159 827 128 q 678 347 745 248 q 557 522 611 445 q 667 672 621 610 q 767 803 713 733 q 813 860 796 840 q 866 897 831 880 q 912 909 884 905 q 956 914 939 913 l 956 962 l 597 962 l 597 914 q 683 901 658 911 q 709 869 709 891 q 653 761 709 844 q 521 574 597 677 q 450 680 479 634 q 397 764 420 726 q 357 833 374 801 q 340 878 340 865 q 382 904 340 896 q 464 914 425 913 l 464 962 l 18 962 l 18 914 q 64 908 35 913 q 109 897 93 904 q 154 866 137 884 q 199 806 170 848 q 330 616 269 705 q 430 470 391 528 q 310 308 378 397 q 199 159 242 218 q 156 107 177 129 q 99 66 134 85 q 54 53 81 57 q 9 48 26 50 l 9 0 l 368 0 l 368 48 q 277 61 298 51 q 256 94 256 72 q 332 225 256 114 q 468 414 408 336 q 542 302 505 361 q 606 200 579 243 q 646 129 631 161 q 662 87 662 97 q 628 59 662 68 q 538 48 593 50 l 538 0 l 988 0 "},"Y":{"ha":854,"x_min":-30,"x_max":891,"o":"m 891 914 l 891 962 l 557 962 l 557 914 q 600 910 576 912 q 642 903 623 909 q 673 888 661 898 q 684 863 684 879 q 628 748 684 844 q 466 481 572 652 q 379 637 412 577 q 314 758 346 697 q 291 801 303 779 q 270 842 279 824 q 258 867 262 857 q 254 882 254 878 q 283 905 254 897 q 380 914 311 913 l 380 962 l -30 962 l -30 914 q 11 907 -12 913 q 50 892 34 902 q 90 857 73 877 q 130 799 107 838 q 216 642 166 734 q 306 472 265 551 q 337 408 324 437 q 351 368 351 379 l 351 134 q 341 91 351 109 q 308 63 332 73 q 255 53 293 57 q 198 48 217 50 l 198 0 l 648 0 l 648 48 q 589 57 626 49 q 538 70 553 64 q 505 99 515 81 q 495 141 495 117 l 495 325 q 503 401 495 375 q 536 471 511 428 q 648 666 604 589 q 746 817 693 743 q 783 863 773 854 q 819 888 792 872 q 854 905 829 897 q 891 914 880 913 "},"Z":{"ha":836,"x_min":18,"x_max":823,"o":"m 823 300 l 776 300 q 720 193 758 254 q 637 90 682 132 q 553 62 618 70 q 430 54 488 54 l 201 54 l 807 939 l 807 962 l 86 962 l 57 690 l 104 690 q 189 828 133 763 q 290 902 245 893 q 337 907 311 906 q 402 909 363 909 l 624 909 l 18 24 l 18 0 l 791 0 l 823 300 "},"[":{"ha":521,"x_min":114,"x_max":475,"o":"m 475 -210 l 475 -148 l 235 -148 l 235 968 l 475 968 l 475 1030 l 114 1030 l 114 -210 l 475 -210 "},"\\":{"ha":651,"x_min":61,"x_max":618,"o":"m 618 -288 l 151 1033 l 61 1033 l 530 -288 l 618 -288 "},"]":{"ha":521,"x_min":45,"x_max":407,"o":"m 407 -210 l 407 1030 l 45 1030 l 45 968 l 286 968 l 286 -148 l 45 -148 l 45 -210 l 407 -210 "},"^":{"ha":893,"x_min":130,"x_max":764,"o":"m 764 540 l 486 987 l 409 987 l 130 540 l 228 540 l 448 895 l 665 540 l 764 540 "},"_":{"ha":893,"x_min":-3,"x_max":897,"o":"m 897 -191 l 897 -123 l -3 -123 l -3 -191 l 897 -191 "},"`":{"ha":694,"x_min":222,"x_max":501,"o":"m 501 774 q 418 898 450 850 q 364 983 387 946 q 323 1031 342 1019 q 278 1043 304 1043 q 238 1026 254 1043 q 222 990 222 1010 q 233 949 222 962 q 269 913 243 935 q 351 850 296 892 q 475 753 406 808 l 501 774 "},"a":{"ha":700,"x_min":54,"x_max":682,"o":"m 682 12 l 682 56 q 637 56 659 56 q 605 63 615 57 q 577 90 586 74 q 568 132 568 105 q 570 295 568 220 q 572 467 572 370 q 554 578 572 535 q 501 646 536 621 q 424 680 467 672 q 325 688 382 688 q 240 674 283 688 q 166 642 197 661 q 109 591 131 620 q 87 532 87 563 q 103 478 87 502 q 153 454 119 454 q 212 473 191 454 q 233 517 233 493 q 227 566 233 539 q 220 606 220 592 q 258 628 231 617 q 316 638 285 638 q 386 620 361 638 q 425 576 411 601 q 440 528 437 553 q 444 494 444 503 l 444 427 q 318 378 412 410 q 195 336 225 347 q 142 310 170 326 q 98 274 115 294 q 65 219 76 250 q 54 150 54 189 q 103 29 54 75 q 227 -17 151 -17 q 348 9 298 -17 q 443 83 399 35 l 447 83 q 487 11 456 36 q 572 -14 519 -14 q 626 -6 602 -14 q 682 12 650 1 m 446 370 l 441 136 q 380 81 416 104 q 295 58 343 58 q 220 84 250 58 q 191 167 191 111 q 210 242 191 210 q 264 296 230 273 q 345 337 301 321 q 446 370 388 353 "},"b":{"ha":778,"x_min":-11,"x_max":728,"o":"m 728 335 q 645 589 728 492 q 439 687 562 687 q 341 665 391 687 q 249 597 291 642 l 244 599 l 244 1040 l 235 1050 l -11 1034 l -11 991 q 38 985 7 989 q 81 972 68 981 q 107 939 97 962 q 118 892 118 916 l 118 231 q 117 94 118 165 q 112 -26 115 24 l 154 -36 l 204 42 q 304 -3 251 14 q 412 -20 357 -20 q 633 82 538 -20 q 728 335 728 184 m 586 330 q 535 111 586 191 q 401 31 484 31 q 338 43 364 31 q 292 74 313 55 q 260 115 272 94 q 244 153 248 137 l 244 543 q 308 593 273 574 q 391 612 344 612 q 481 587 444 612 q 541 524 518 563 q 575 433 564 485 q 586 330 586 380 "},"c":{"ha":631,"x_min":49,"x_max":627,"o":"m 358 -18 q 509 29 436 -18 q 627 156 583 76 l 584 184 q 502 89 546 121 q 391 57 457 57 q 244 137 300 57 q 189 342 189 216 q 204 480 189 422 q 245 572 220 538 q 302 623 273 609 q 364 637 332 637 q 416 630 392 637 q 452 602 440 623 q 443 554 451 587 q 435 492 435 522 q 457 446 435 467 q 519 426 479 426 q 572 452 556 426 q 589 512 589 478 q 527 641 589 593 q 367 688 465 688 q 235 658 296 688 q 135 581 175 629 q 71 469 93 530 q 49 337 49 408 q 131 79 49 175 q 358 -18 213 -18 "},"d":{"ha":798,"x_min":49,"x_max":781,"o":"m 781 12 l 781 56 q 736 59 761 57 q 699 69 712 61 q 672 97 682 81 q 663 138 663 114 l 663 1040 l 653 1050 l 380 1034 l 380 992 q 449 984 417 989 q 500 965 481 978 q 527 929 517 953 q 536 878 536 906 l 536 645 q 459 675 504 663 q 367 687 414 687 q 244 660 304 687 q 143 587 184 633 q 74 473 99 538 q 49 336 49 408 q 72 191 49 256 q 136 78 96 125 q 228 6 175 32 q 338 -19 281 -19 q 445 6 393 -19 q 532 71 497 31 l 538 69 l 538 7 l 548 -3 l 781 12 m 536 130 q 476 77 512 101 q 387 54 441 54 q 299 77 336 54 q 238 138 262 100 q 201 224 212 178 q 191 328 191 271 q 205 457 191 399 q 245 554 220 516 q 306 614 271 593 q 380 635 340 635 q 442 624 416 635 q 488 596 469 613 q 519 559 507 579 q 536 521 531 538 l 536 130 "},"e":{"ha":671,"x_min":49,"x_max":643,"o":"m 643 157 l 595 186 q 511 85 555 113 q 407 57 467 57 q 305 80 348 57 q 236 142 262 102 q 196 236 209 182 q 184 355 184 290 l 627 355 l 627 400 q 611 512 627 460 q 565 602 596 564 q 480 665 532 642 q 355 688 428 688 q 226 658 283 688 q 130 581 169 629 q 70 468 90 530 q 49 340 49 405 q 68 202 49 267 q 127 88 87 137 q 227 11 166 39 q 368 -18 288 -18 q 530 30 460 -18 q 643 157 601 77 m 493 412 l 184 412 q 235 577 188 518 q 353 637 282 637 q 423 617 396 637 q 466 566 450 597 q 487 494 480 537 q 493 412 493 450 "},"f":{"ha":452,"x_min":16,"x_max":547,"o":"m 547 969 q 516 1027 547 1003 q 425 1050 486 1050 q 228 956 307 1050 q 149 709 149 861 l 149 666 l 16 666 l 16 601 l 149 601 l 149 114 q 139 74 149 90 q 111 53 130 59 q 82 47 99 49 q 50 45 66 46 l 50 0 l 403 0 l 403 45 q 356 50 383 46 q 313 60 329 54 q 284 82 293 67 q 275 121 275 97 l 275 601 l 447 601 l 447 666 l 275 666 l 275 734 q 299 930 275 869 q 370 994 324 991 q 389 963 378 982 q 414 929 401 944 q 444 905 428 914 q 481 897 460 897 q 530 918 514 897 q 547 969 547 939 "},"g":{"ha":707,"x_min":28,"x_max":680,"o":"m 622 69 q 565 106 596 93 q 502 121 533 120 q 428 125 480 122 q 347 130 376 129 q 293 132 319 130 q 247 138 267 133 q 212 156 227 143 q 198 195 198 170 q 215 233 198 219 q 248 253 232 248 l 330 253 q 496 314 425 253 q 568 463 568 375 q 555 532 568 497 q 518 597 543 568 l 518 601 l 675 601 l 675 666 l 442 666 q 381 682 411 675 q 320 688 351 688 q 139 627 210 688 q 68 471 68 566 q 104 360 68 408 q 205 281 140 312 l 205 271 q 128 219 153 250 q 102 153 102 189 q 113 105 102 125 q 142 72 124 86 q 179 51 157 60 q 221 35 201 41 l 221 26 q 83 -18 137 22 q 28 -127 28 -58 q 104 -257 28 -212 q 331 -301 179 -301 q 487 -283 424 -301 q 595 -234 550 -266 q 659 -160 638 -203 q 680 -70 680 -118 q 665 11 680 -22 q 622 69 649 43 m 439 466 q 407 347 439 394 q 317 300 376 300 q 232 347 265 300 q 199 470 199 395 q 205 535 199 503 q 224 589 211 566 q 261 626 239 613 q 316 640 284 640 q 407 592 374 640 q 439 466 439 545 m 569 -95 q 512 -211 569 -173 q 355 -250 454 -250 q 257 -238 297 -250 q 193 -210 217 -227 q 158 -170 168 -191 q 148 -124 148 -148 q 179 -38 148 -71 q 283 10 210 -4 q 420 7 361 10 q 498 1 479 3 q 551 -33 534 -8 q 569 -95 569 -57 "},"h":{"ha":808,"x_min":4,"x_max":775,"o":"m 775 0 l 775 45 q 742 49 755 46 q 714 58 730 52 q 686 81 694 66 q 677 119 677 96 l 677 467 q 629 630 677 574 q 492 687 581 687 q 413 676 448 687 q 353 649 378 665 q 304 613 323 630 q 264 573 286 595 l 261 573 l 261 1040 l 252 1050 l 4 1034 l 4 991 q 54 986 23 989 q 97 973 85 982 q 124 939 114 962 q 135 892 135 916 l 135 114 q 125 74 135 90 q 97 53 116 59 q 68 48 85 50 q 36 45 52 46 l 36 0 l 364 0 l 364 45 q 329 50 345 46 q 298 60 313 53 q 270 83 279 68 q 261 121 261 98 l 261 505 q 280 534 268 517 q 315 568 292 551 q 369 595 339 584 q 435 606 399 606 q 516 568 483 606 q 550 458 550 529 l 550 114 q 541 74 550 90 q 513 53 532 59 q 481 47 500 49 q 447 45 463 46 l 447 0 l 775 0 "},"i":{"ha":407,"x_min":29,"x_max":374,"o":"m 374 0 l 374 45 q 342 50 356 46 q 313 60 328 54 q 284 83 293 67 q 275 122 275 98 l 275 667 l 265 677 l 29 662 l 29 618 q 74 611 50 616 q 111 597 98 605 q 139 567 129 585 q 149 527 149 549 l 149 114 q 139 74 149 90 q 111 53 130 59 q 82 47 99 49 q 50 45 66 46 l 50 0 l 374 0 m 288 941 q 263 1001 288 975 q 200 1027 239 1027 q 140 1000 165 1027 q 115 935 115 972 q 140 872 115 899 q 200 844 165 844 q 263 873 237 844 q 288 941 288 902 "},"j":{"ha":406,"x_min":-102,"x_max":302,"o":"m 292 41 l 292 667 l 283 677 l 14 662 l 14 620 q 76 610 35 618 q 128 595 117 603 q 156 563 145 583 q 166 522 166 543 l 166 18 q 144 -182 166 -119 q 71 -244 122 -244 q 49 -209 60 -227 q 27 -179 38 -191 q -1 -156 15 -165 q -39 -147 -18 -147 q -86 -169 -70 -147 q -102 -220 -102 -191 q -72 -277 -102 -253 q 19 -301 -41 -301 q 126 -277 77 -301 q 213 -208 174 -253 q 271 -99 249 -165 q 292 41 292 -34 m 302 941 q 278 1002 302 976 q 214 1028 253 1028 q 154 1000 180 1028 q 129 935 129 972 q 154 872 129 900 q 214 845 180 845 q 277 874 252 845 q 302 941 302 903 "},"k":{"ha":744,"x_min":4,"x_max":758,"o":"m 758 0 l 758 45 q 688 60 712 47 q 635 112 665 72 q 533 250 603 155 q 408 414 464 346 q 492 494 462 464 q 538 538 522 525 q 605 584 561 559 q 705 627 648 610 l 705 669 l 411 669 l 411 625 q 468 613 438 622 q 497 586 497 604 q 491 570 497 580 q 479 554 484 560 q 375 446 437 507 q 261 332 314 385 l 261 1040 l 252 1050 l 4 1034 l 4 991 q 53 986 22 989 q 97 972 83 983 q 124 938 114 960 q 135 891 135 916 l 135 114 q 125 74 135 90 q 97 53 116 59 q 68 48 85 50 q 36 45 52 46 l 36 0 l 364 0 l 364 45 q 330 50 345 46 q 298 60 315 53 q 270 83 279 67 q 261 123 261 99 l 261 282 l 317 334 q 442 164 382 252 q 555 0 503 77 l 758 0 "},"l":{"ha":397,"x_min":1,"x_max":362,"o":"m 362 0 l 362 45 q 329 50 344 46 q 300 60 315 53 q 271 83 280 68 q 262 122 262 98 l 262 1040 l 253 1050 l 1 1034 l 1 991 q 54 983 21 989 q 98 968 86 976 q 126 934 115 956 q 136 888 136 913 l 136 114 q 127 74 136 90 q 98 53 117 59 q 69 48 87 50 q 36 45 52 46 l 36 0 l 362 0 "},"m":{"ha":1223,"x_min":39,"x_max":1194,"o":"m 1194 0 l 1194 45 q 1160 49 1175 46 q 1129 58 1145 52 q 1101 82 1109 66 q 1093 121 1093 97 l 1093 460 q 1044 631 1093 576 q 909 687 994 687 q 832 676 867 687 q 771 648 797 665 q 722 609 741 627 q 679 568 703 591 q 612 652 659 617 q 500 687 565 687 q 423 676 458 687 q 363 649 387 665 q 318 612 342 635 q 277 572 294 589 l 272 572 l 272 667 l 262 677 l 39 662 l 39 618 q 78 611 59 616 q 110 598 97 606 q 137 569 127 586 q 147 530 147 551 l 147 114 q 138 74 147 90 q 110 53 129 59 q 81 47 98 49 q 49 45 64 46 l 49 0 l 374 0 l 374 45 q 340 50 355 46 q 311 60 326 53 q 283 83 292 68 q 273 122 273 99 l 273 505 q 294 533 280 515 q 327 567 307 552 q 380 596 351 585 q 443 606 410 606 q 523 568 491 606 q 555 459 555 530 l 555 114 q 546 74 555 90 q 518 53 537 59 q 491 47 506 49 q 461 45 477 46 l 461 0 l 781 0 l 781 45 q 748 49 760 46 q 720 58 735 52 q 692 82 700 66 q 684 121 684 97 l 684 507 q 704 535 690 518 q 736 568 717 553 q 790 596 761 586 q 852 606 819 606 q 933 568 901 606 q 965 459 965 530 l 965 114 q 956 74 965 90 q 928 53 947 59 q 900 47 916 49 q 868 45 884 46 l 868 0 l 1194 0 "},"n":{"ha":821,"x_min":41,"x_max":787,"o":"m 787 0 l 787 45 q 754 49 766 46 q 726 58 743 52 q 699 81 707 66 q 690 119 690 96 l 690 467 q 644 627 690 567 q 501 687 597 687 q 423 676 458 687 q 363 649 389 665 q 317 612 342 635 q 277 573 293 589 l 273 573 l 273 667 l 264 677 l 41 662 l 41 618 q 79 613 62 616 q 110 601 97 609 q 137 569 127 589 q 147 527 147 550 l 147 114 q 138 74 147 90 q 110 53 129 59 q 81 47 98 49 q 49 45 64 46 l 49 0 l 376 0 l 376 45 q 342 50 359 46 q 311 60 326 53 q 283 83 292 68 q 273 121 273 98 l 273 505 q 293 534 279 516 q 328 568 306 552 q 381 595 351 584 q 447 606 411 606 q 529 568 495 606 q 562 458 562 529 l 562 114 q 553 74 562 90 q 525 53 544 59 q 494 47 513 49 q 460 45 475 46 l 460 0 l 787 0 "},"o":{"ha":749,"x_min":47,"x_max":701,"o":"m 701 341 q 609 593 701 498 q 378 688 518 688 q 139 588 230 688 q 47 332 47 488 q 74 185 47 250 q 144 74 100 119 q 246 4 189 28 q 368 -20 304 -20 q 506 6 444 -20 q 614 87 568 33 q 678 202 656 134 q 701 341 701 271 m 560 340 q 511 113 560 195 q 376 31 461 31 q 290 56 325 31 q 232 124 255 81 q 198 223 209 168 q 188 343 188 278 q 197 446 188 393 q 227 540 205 498 q 287 610 250 585 q 376 636 324 636 q 463 611 427 636 q 519 543 498 585 q 550 447 540 504 q 560 340 560 391 "},"p":{"ha":793,"x_min":22,"x_max":744,"o":"m 660 589 q 571 661 623 634 q 456 687 519 687 q 353 660 405 687 q 265 592 300 633 l 260 593 l 260 669 l 250 677 l 22 662 l 22 618 q 64 612 43 616 q 98 600 86 608 q 125 569 115 588 q 135 530 135 550 l 135 -182 q 127 -222 135 -205 q 98 -245 119 -239 q 63 -252 83 -250 q 22 -256 43 -254 l 22 -301 l 396 -301 l 396 -256 q 346 -249 376 -255 q 300 -237 316 -243 q 271 -214 280 -230 q 261 -173 261 -197 l 261 28 l 267 28 q 330 -4 291 9 q 429 -18 368 -18 q 547 7 491 -18 q 648 79 602 33 q 718 191 691 125 q 744 336 744 256 q 722 479 744 416 q 660 589 700 542 m 549 109 q 490 52 526 72 q 417 32 455 32 q 357 42 382 32 q 312 70 333 53 q 281 104 295 84 q 261 142 267 123 l 261 537 q 322 590 287 568 q 408 612 357 612 q 497 587 460 612 q 557 524 534 563 q 591 433 581 485 q 602 330 602 380 q 589 206 602 262 q 549 109 576 151 "},"q":{"ha":777,"x_min":49,"x_max":783,"o":"m 783 -301 l 783 -256 q 742 -249 767 -254 q 701 -237 717 -244 q 672 -211 681 -229 q 663 -170 663 -194 l 663 448 q 668 576 663 503 q 675 700 672 650 l 636 705 l 578 617 q 549 636 570 622 q 507 659 528 650 q 448 679 482 670 q 370 687 414 687 q 251 661 311 687 q 148 591 191 635 q 76 481 103 544 q 49 342 49 418 q 72 194 49 261 q 136 80 96 126 q 230 8 176 33 q 345 -18 283 -18 q 408 -10 382 -18 q 460 12 433 -2 q 502 38 481 22 q 532 66 522 54 l 536 65 l 536 -182 q 528 -222 536 -205 q 499 -245 520 -239 q 463 -252 483 -250 q 421 -256 442 -254 l 421 -301 l 783 -301 m 536 124 q 477 76 511 96 q 393 55 442 55 q 299 78 336 55 q 237 138 262 100 q 201 224 212 178 q 191 328 191 271 q 244 553 191 471 q 378 635 298 635 q 441 625 414 635 q 488 597 469 614 q 518 561 505 582 q 536 524 531 541 l 536 124 "},"r":{"ha":569,"x_min":41,"x_max":561,"o":"m 561 583 q 534 657 561 629 q 465 685 507 685 q 370 656 422 685 q 277 573 319 628 l 273 573 l 273 667 l 264 677 l 41 662 l 41 618 q 79 613 62 616 q 110 601 97 609 q 137 568 127 589 q 147 527 147 548 l 147 114 q 138 74 147 90 q 110 53 129 59 q 81 47 98 49 q 49 45 64 46 l 49 0 l 401 0 l 401 45 q 355 50 382 46 q 311 60 328 53 q 282 82 292 67 q 273 121 273 97 l 273 510 q 346 583 303 557 q 420 609 389 609 q 416 585 418 597 q 414 557 414 572 q 434 514 414 534 q 492 494 454 494 q 544 521 527 494 q 561 583 561 548 "},"s":{"ha":600,"x_min":50,"x_max":548,"o":"m 490 328 q 425 370 465 351 q 340 403 385 389 q 264 430 295 418 q 213 455 233 441 q 181 490 192 469 q 171 541 171 510 q 203 608 171 580 q 290 635 235 635 q 405 590 358 635 q 467 473 452 545 l 513 473 l 503 688 l 454 688 l 439 653 q 372 677 413 667 q 292 688 331 688 q 128 631 189 688 q 67 492 67 574 q 86 410 67 445 q 135 352 105 376 q 202 313 163 330 q 273 287 241 296 q 345 262 313 275 q 400 234 378 250 q 433 198 422 218 q 444 149 444 177 q 409 64 444 94 q 309 35 374 35 q 225 55 262 35 q 162 105 189 75 q 119 169 137 134 q 96 231 102 204 l 50 231 l 56 -2 l 107 -2 l 121 42 q 191 3 142 24 q 298 -18 240 -18 q 478 41 409 -18 q 548 193 548 100 q 533 271 548 239 q 490 328 518 303 "},"t":{"ha":479,"x_min":9,"x_max":462,"o":"m 462 29 l 462 79 q 415 71 448 74 q 366 68 382 68 q 307 78 329 68 q 275 108 286 88 q 260 157 263 129 q 257 227 257 185 l 257 601 l 448 601 l 448 666 l 256 666 l 256 874 l 132 874 l 132 666 l 9 666 l 9 601 l 130 601 l 130 148 q 164 28 130 71 q 282 -14 198 -14 q 378 -2 339 -14 q 462 29 418 11 "},"u":{"ha":799,"x_min":24,"x_max":766,"o":"m 766 12 l 766 56 q 728 59 745 57 q 699 69 711 62 q 673 97 682 81 q 663 136 663 113 l 663 667 l 653 677 l 410 661 l 410 616 q 464 613 440 615 q 500 604 488 612 q 527 574 517 591 q 536 534 536 557 l 536 155 q 515 126 529 142 q 483 96 501 110 q 434 68 463 80 q 368 57 405 57 q 290 94 322 57 q 257 203 257 130 l 257 667 l 247 677 l 24 661 l 24 616 q 62 611 44 615 q 93 600 81 608 q 120 571 111 587 q 129 530 129 554 l 129 210 q 175 41 129 99 q 311 -17 222 -17 q 391 -7 363 -17 q 450 20 420 2 q 497 55 477 36 q 534 92 517 75 l 538 92 l 538 7 l 548 -3 l 766 12 "},"v":{"ha":690,"x_min":-13,"x_max":709,"o":"m 709 627 l 709 669 l 454 669 l 454 625 q 478 621 463 624 q 509 610 493 617 q 535 594 524 604 q 547 574 547 585 q 541 542 547 557 q 528 507 534 526 q 448 313 485 400 q 387 168 411 227 q 304 368 355 244 q 225 562 253 492 q 218 581 222 572 q 215 591 215 589 q 245 613 215 605 q 296 621 276 621 l 296 669 l -13 669 l -13 624 q 48 602 18 619 q 92 553 78 585 q 204 284 150 416 q 323 -6 258 153 l 376 -6 q 404 76 389 33 q 433 150 419 119 q 522 357 479 258 q 604 547 564 456 q 651 605 624 589 q 709 627 679 622 "},"w":{"ha":1024,"x_min":-3,"x_max":1045,"o":"m 1045 625 l 1045 669 l 791 669 l 791 625 q 814 623 798 625 q 844 614 830 620 q 870 599 859 608 q 881 577 881 589 q 877 548 881 563 q 867 516 872 534 q 817 356 846 441 q 759 180 788 271 l 585 655 l 519 655 l 349 174 q 278 402 305 314 q 229 561 250 490 q 223 580 225 571 q 220 591 220 589 q 247 614 220 607 q 295 621 273 621 l 295 669 l -3 669 l -3 624 q 56 602 25 621 q 97 552 86 584 q 183 294 134 442 q 282 -5 231 146 l 338 -5 l 519 488 l 699 -5 l 757 -5 q 780 73 767 33 q 804 149 792 114 q 872 350 842 260 q 936 538 902 439 q 984 602 951 581 q 1045 625 1017 623 "},"x":{"ha":701,"x_min":8,"x_max":693,"o":"m 693 0 l 693 45 q 627 65 651 47 q 583 112 603 82 q 505 227 544 171 q 405 369 467 282 q 491 483 460 442 q 545 551 522 524 q 594 594 565 576 q 675 627 623 613 l 675 669 l 429 669 l 429 625 q 473 613 450 622 q 496 591 496 605 q 494 577 496 584 q 488 565 491 570 q 430 482 462 526 q 375 406 399 439 q 307 508 338 460 q 260 579 275 556 q 250 595 254 588 q 246 609 246 603 q 267 621 246 618 q 310 624 288 624 l 310 669 l 19 669 l 19 624 q 83 608 60 624 q 123 566 106 592 q 206 447 156 519 q 290 326 256 376 q 193 197 231 245 q 134 123 155 150 q 82 75 111 94 q 8 42 54 56 l 8 0 l 256 0 l 256 43 q 198 57 217 47 q 178 81 178 66 q 183 98 178 87 q 193 115 189 108 q 256 203 226 161 q 321 289 286 245 q 393 183 363 227 q 439 112 422 138 q 453 88 446 101 q 460 69 460 75 q 438 52 460 55 q 387 45 417 48 l 387 0 l 693 0 "},"y":{"ha":684,"x_min":-13,"x_max":704,"o":"m -2 -218 q 28 -276 -2 -251 q 111 -301 58 -301 q 164 -291 138 -301 q 220 -253 189 -281 q 286 -169 252 -222 q 362 -21 319 -116 q 457 205 395 52 q 601 547 520 359 q 650 603 617 583 q 704 627 684 623 l 704 669 l 456 669 l 456 625 q 514 607 484 622 q 545 574 545 591 q 536 535 545 557 q 523 499 528 512 q 449 316 482 393 q 386 165 416 238 q 304 368 357 241 q 225 562 251 494 q 218 581 221 572 q 215 595 215 591 q 243 613 215 605 q 292 621 272 621 l 292 669 l -13 669 l -13 624 q 48 602 18 619 q 92 553 79 585 q 201 291 149 418 q 317 3 253 164 q 249 -132 296 -55 q 168 -228 202 -210 q 150 -199 161 -216 q 128 -171 138 -181 q 100 -150 116 -158 q 63 -142 85 -142 q 17 -163 35 -142 q -2 -218 -2 -184 "},"z":{"ha":616,"x_min":37,"x_max":578,"o":"m 578 0 l 578 236 l 538 236 q 519 169 530 203 q 501 115 509 134 q 480 76 494 93 q 439 58 466 59 q 363 54 393 55 q 307 54 334 54 q 243 54 273 54 q 190 55 214 54 l 574 641 l 574 669 l 63 669 l 63 463 l 104 463 q 133 555 117 520 q 169 598 150 591 q 230 612 197 610 q 322 614 263 614 l 416 614 l 37 36 l 37 0 l 578 0 "},"{":{"ha":597,"x_min":49,"x_max":552,"o":"m 552 -226 l 552 -172 q 491 -165 524 -170 q 432 -146 457 -161 q 391 -101 406 -131 q 377 -23 377 -71 l 377 135 q 359 254 377 207 q 310 329 342 300 q 236 372 279 357 q 144 397 193 388 l 144 418 q 237 444 195 428 q 310 487 279 460 q 360 563 343 516 q 377 681 377 610 l 377 840 q 392 919 377 890 q 432 962 408 949 q 489 980 453 974 q 552 987 525 985 l 552 1042 q 425 1032 482 1042 q 328 994 367 1021 q 269 917 289 965 q 249 798 249 869 q 254 711 249 758 q 259 625 259 664 q 246 547 259 579 q 203 494 233 515 q 137 466 178 475 q 49 452 96 456 l 49 364 q 136 352 96 361 q 203 323 176 343 q 245 272 231 304 q 259 191 259 239 q 254 106 259 153 q 249 18 249 59 q 269 -105 249 -58 q 328 -179 289 -151 q 424 -216 367 -206 q 552 -226 481 -226 "},"|":{"ha":521,"x_min":218,"x_max":304,"o":"m 304 -288 l 304 1033 l 218 1033 l 218 -288 l 304 -288 "},"}":{"ha":597,"x_min":45,"x_max":549,"o":"m 549 364 l 549 452 q 460 466 501 456 q 394 494 419 476 q 352 547 365 515 q 338 625 338 579 q 343 711 338 664 q 349 798 349 758 q 329 917 349 869 q 269 994 309 965 q 173 1032 231 1021 q 45 1042 115 1042 l 45 987 q 109 980 73 985 q 165 962 144 974 q 205 919 190 949 q 220 840 220 890 l 220 681 q 237 563 220 610 q 288 487 254 516 q 360 444 318 460 q 454 418 402 428 l 454 397 q 362 372 405 388 q 288 329 319 357 q 238 254 256 300 q 220 135 220 207 l 220 -23 q 206 -101 220 -71 q 165 -146 192 -131 q 107 -165 141 -161 q 45 -172 73 -170 l 45 -226 q 174 -216 117 -226 q 269 -179 231 -205 q 329 -105 309 -151 q 349 18 349 -58 q 343 106 349 59 q 338 191 338 153 q 353 272 338 239 q 395 323 367 304 q 461 352 421 342 q 549 364 502 361 "},"~":{"ha":893,"x_min":88,"x_max":805,"o":"m 805 484 l 752 505 q 697 419 727 452 q 619 386 667 386 q 552 400 582 386 q 485 432 522 414 q 410 464 450 449 q 319 478 370 478 q 237 456 278 478 q 170 406 196 435 q 120 341 142 378 q 88 279 97 304 l 141 258 q 199 346 170 315 q 274 377 229 377 q 341 363 308 377 q 410 331 375 349 q 484 299 444 314 q 574 285 525 285 q 654 304 617 285 q 724 357 691 323 q 773 421 751 384 q 805 484 795 459 "},"":{"ha":932,"x_min":-28,"x_max":964,"o":"m 964 0 l 964 48 q 922 55 947 49 q 881 71 897 62 q 845 103 858 87 q 822 146 832 119 l 501 976 l 447 976 q 291 574 378 800 q 131 167 203 348 q 102 112 117 132 q 60 73 87 92 q 16 56 43 62 q -28 48 -10 50 l -28 0 l 334 0 l 334 48 q 238 66 281 51 q 195 108 195 81 q 199 138 195 119 q 211 185 202 156 q 232 250 220 215 q 263 333 244 286 l 600 333 l 680 117 q 684 102 683 111 q 686 87 686 93 q 651 62 686 72 q 563 48 616 52 l 563 0 l 964 0 m 576 393 l 287 393 l 430 766 l 576 393 m 704 1165 q 681 1224 704 1200 q 624 1249 657 1249 q 567 1224 591 1249 q 544 1165 544 1200 q 567 1106 544 1131 q 624 1082 591 1082 q 681 1106 657 1082 q 704 1165 704 1131 m 399 1165 q 375 1224 399 1200 q 319 1249 352 1249 q 262 1224 286 1249 q 239 1165 239 1200 q 262 1106 239 1131 q 319 1082 286 1082 q 375 1106 352 1082 q 399 1165 399 1131 "},"":{"ha":932,"x_min":-28,"x_max":964,"o":"m 964 0 l 964 48 q 921 55 947 49 q 881 71 896 61 q 845 103 858 87 q 822 146 832 119 l 505 967 q 608 1017 569 975 q 648 1116 648 1058 q 598 1226 648 1185 q 473 1267 549 1267 q 349 1225 399 1267 q 298 1116 298 1183 q 336 1015 298 1055 q 444 966 375 975 q 284 558 369 777 q 131 167 200 340 q 102 112 117 132 q 60 73 87 92 q 17 56 43 62 q -28 48 -10 50 l -28 0 l 334 0 l 334 48 q 238 66 281 51 q 195 108 195 81 q 199 138 195 119 q 211 185 202 157 q 232 250 220 215 q 263 333 244 286 l 600 333 l 680 117 q 684 102 683 111 q 686 87 686 93 q 651 62 686 72 q 563 48 616 52 l 563 0 l 964 0 m 576 393 l 287 393 l 430 766 l 576 393 m 562 1116 q 539 1038 562 1069 q 473 1007 516 1007 q 406 1038 429 1007 q 383 1116 383 1069 q 407 1194 383 1165 q 473 1223 430 1223 q 539 1193 517 1223 q 562 1116 562 1162 "},"":{"ha":892,"x_min":53,"x_max":874,"o":"m 454 -20 l 454 -140 q 492 -142 469 -140 q 528 -149 515 -144 q 555 -164 545 -154 q 566 -191 566 -175 q 551 -227 566 -214 q 509 -245 536 -239 q 453 -252 486 -251 q 393 -252 420 -252 l 393 -301 q 498 -296 453 -301 q 581 -277 544 -290 q 642 -235 620 -262 q 663 -168 663 -208 q 649 -118 663 -138 q 612 -87 635 -98 q 562 -71 587 -75 q 507 -67 538 -67 l 507 -22 q 726 44 633 -18 q 874 243 819 105 l 823 268 q 781 185 807 223 q 722 117 755 147 q 642 72 688 89 q 541 54 595 54 q 408 87 467 54 q 305 177 349 119 q 238 312 262 235 q 215 481 215 389 q 237 671 215 586 q 299 810 260 755 q 397 897 340 867 q 519 926 454 926 q 622 900 577 926 q 699 827 667 873 q 750 728 728 787 q 783 619 772 669 l 838 619 l 832 962 l 778 962 l 750 916 q 640 966 698 948 q 511 983 583 983 q 332 947 416 983 q 186 843 248 910 q 88 681 123 775 q 53 472 53 587 q 89 265 53 357 q 185 109 125 173 q 309 19 239 52 q 454 -20 378 -14 "},"":{"ha":907,"x_min":58,"x_max":876,"o":"m 876 283 l 827 283 q 783 186 817 252 q 718 87 749 120 q 679 68 706 75 q 625 58 651 61 q 564 56 600 56 q 505 56 527 56 q 418 59 448 56 q 370 76 387 63 q 346 114 352 89 q 340 182 340 139 l 340 471 l 448 471 q 519 463 492 471 q 567 429 546 455 q 592 376 580 412 q 606 307 604 340 l 657 307 l 657 684 l 606 684 q 592 622 603 654 q 567 569 582 589 q 525 536 549 546 q 448 526 500 526 l 340 526 l 340 909 l 491 909 q 557 907 528 909 q 608 903 587 906 q 693 840 648 898 q 752 730 739 782 l 803 730 l 803 962 l 58 962 l 58 914 q 107 906 77 913 q 157 890 138 899 q 188 862 180 880 q 195 823 195 845 l 195 131 q 187 90 195 106 q 157 63 178 73 q 113 54 146 58 q 58 48 79 50 l 58 0 l 857 0 l 876 283 m 591 1136 q 635 1166 618 1149 q 653 1213 653 1183 q 635 1251 653 1236 q 591 1267 616 1267 q 552 1257 570 1267 q 513 1224 534 1247 q 436 1146 475 1184 q 335 1048 397 1107 l 356 1022 q 498 1091 435 1061 q 591 1136 561 1121 "},"":{"ha":1065,"x_min":16,"x_max":1054,"o":"m 1054 914 l 1054 962 l 663 962 l 663 914 q 728 901 685 913 q 790 876 771 888 q 821 815 810 861 q 832 686 832 770 l 832 229 l 291 962 l 16 962 l 16 914 q 84 897 42 913 q 150 859 125 881 q 179 810 168 842 q 190 748 190 779 l 190 274 q 181 141 190 180 q 149 83 172 102 q 94 61 138 73 q 33 48 51 50 l 33 0 l 427 0 l 427 48 q 363 62 412 49 q 298 90 314 75 q 266 153 277 109 q 256 281 256 198 l 256 778 l 839 -9 l 898 -9 l 898 695 q 906 817 898 769 q 939 882 915 865 q 996 903 956 893 q 1054 914 1035 913 m 810 1244 l 768 1260 q 751 1221 758 1236 q 733 1194 744 1206 q 707 1176 724 1182 q 663 1169 690 1169 q 620 1179 637 1169 q 576 1204 602 1190 q 526 1228 553 1217 q 460 1239 498 1239 q 399 1222 429 1239 q 350 1180 370 1204 q 315 1126 331 1157 q 292 1074 298 1096 l 331 1057 q 351 1094 340 1074 q 373 1126 362 1114 q 395 1144 385 1139 q 427 1149 406 1149 q 474 1139 452 1149 q 519 1114 495 1128 q 569 1091 540 1102 q 637 1080 598 1080 q 701 1096 674 1080 q 752 1138 728 1112 q 789 1192 776 1164 q 810 1244 803 1219 "},"":{"ha":1034,"x_min":54,"x_max":979,"o":"m 844 848 q 697 949 782 913 q 517 985 612 985 q 340 950 425 985 q 192 848 256 915 q 91 689 127 781 q 54 480 54 597 q 89 279 54 373 q 185 119 124 185 q 331 15 246 52 q 517 -23 416 -23 q 694 12 611 -23 q 841 113 778 47 q 943 272 906 178 q 979 480 979 366 q 943 688 979 594 q 844 848 907 782 m 743 166 q 648 71 706 105 q 517 37 589 37 q 384 71 439 37 q 292 164 328 104 q 236 304 254 225 q 218 480 218 382 q 235 648 218 568 q 286 788 252 728 q 378 888 321 850 q 517 925 435 925 q 646 893 589 925 q 739 803 702 861 q 796 662 777 745 q 815 480 815 579 q 798 306 815 384 q 743 166 781 228 m 749 1173 q 726 1232 749 1208 q 669 1257 703 1257 q 613 1232 636 1257 q 589 1173 589 1208 q 613 1114 589 1139 q 669 1090 636 1090 q 726 1114 703 1090 q 749 1173 749 1139 m 444 1173 q 421 1232 444 1208 q 364 1257 397 1257 q 308 1232 331 1257 q 284 1173 284 1208 q 308 1114 284 1139 q 364 1090 331 1090 q 421 1114 397 1090 q 444 1173 444 1139 "},"":{"ha":1050,"x_min":50,"x_max":1040,"o":"m 1040 914 l 1040 962 l 646 962 l 646 914 q 709 903 668 913 q 774 877 750 894 q 806 814 795 862 q 817 691 817 766 l 817 296 q 805 216 817 256 q 766 139 793 176 q 686 77 736 100 q 561 53 635 53 q 436 77 481 53 q 364 138 391 100 q 331 217 339 174 q 322 298 322 259 l 322 829 q 330 871 322 852 q 361 898 338 890 q 403 908 374 903 q 451 914 432 913 l 451 962 l 50 962 l 50 914 q 94 907 67 913 q 137 892 120 901 q 169 862 161 878 q 176 823 176 846 l 176 254 q 199 150 176 199 q 268 61 222 100 q 382 0 314 22 q 536 -23 450 -23 q 650 -7 591 -23 q 763 45 709 9 q 850 142 817 83 q 884 281 884 201 l 884 700 q 892 819 884 770 q 924 884 901 868 q 984 906 947 899 q 1040 914 1021 913 m 785 1173 q 762 1232 785 1208 q 705 1257 739 1257 q 649 1232 672 1257 q 625 1173 625 1208 q 649 1114 625 1139 q 705 1090 672 1090 q 762 1114 739 1090 q 785 1173 785 1139 m 480 1173 q 457 1232 480 1208 q 400 1257 433 1257 q 343 1232 367 1257 q 320 1173 320 1208 q 343 1114 320 1139 q 400 1090 367 1090 q 457 1114 433 1090 q 480 1173 480 1139 "},"":{"ha":700,"x_min":54,"x_max":682,"o":"m 682 12 l 682 56 q 637 56 659 56 q 605 63 615 57 q 577 90 586 74 q 568 132 568 105 q 570 295 568 220 q 572 467 572 370 q 554 578 572 535 q 501 646 536 621 q 424 680 467 672 q 325 688 382 688 q 240 674 283 688 q 166 642 197 661 q 109 591 131 620 q 87 532 87 563 q 103 478 87 502 q 153 454 119 454 q 212 473 191 454 q 233 517 233 493 q 227 566 233 539 q 220 606 220 592 q 258 628 231 617 q 316 638 285 638 q 386 620 361 638 q 425 576 411 601 q 440 528 437 553 q 444 494 444 503 l 444 427 q 318 378 412 410 q 195 336 225 347 q 142 310 170 326 q 98 274 115 294 q 65 219 76 250 q 54 150 54 189 q 103 29 54 75 q 227 -17 151 -17 q 348 9 298 -17 q 443 83 399 35 l 447 83 q 487 11 456 36 q 572 -14 519 -14 q 626 -6 602 -14 q 682 12 650 1 m 446 370 l 441 136 q 380 81 416 104 q 295 58 343 58 q 220 84 250 58 q 191 167 191 111 q 210 242 191 210 q 264 296 230 273 q 345 337 301 321 q 446 370 388 353 m 500 990 q 485 1026 500 1010 q 445 1043 469 1043 q 399 1030 419 1043 q 359 983 380 1018 q 307 902 331 939 q 222 774 283 865 l 248 753 q 365 844 311 802 q 454 913 420 886 q 489 948 477 932 q 500 990 500 964 "},"":{"ha":700,"x_min":54,"x_max":682,"o":"m 682 12 l 682 56 q 637 56 659 56 q 605 63 615 57 q 577 90 586 74 q 568 132 568 105 q 570 295 568 220 q 572 467 572 370 q 554 578 572 535 q 501 646 536 621 q 424 680 467 672 q 325 688 382 688 q 240 674 283 688 q 166 642 197 661 q 109 591 131 620 q 87 532 87 563 q 103 478 87 502 q 153 454 119 454 q 212 473 191 454 q 233 517 233 493 q 227 566 233 539 q 220 606 220 592 q 258 628 231 617 q 316 638 285 638 q 386 620 361 638 q 425 576 411 601 q 440 528 437 553 q 444 494 444 503 l 444 427 q 318 378 412 410 q 195 336 225 347 q 142 310 170 326 q 98 274 115 294 q 65 219 76 250 q 54 150 54 189 q 103 29 54 75 q 227 -17 151 -17 q 348 9 298 -17 q 443 83 399 35 l 447 83 q 487 11 456 36 q 572 -14 519 -14 q 626 -6 602 -14 q 682 12 650 1 m 446 370 l 441 136 q 380 81 416 104 q 295 58 343 58 q 220 84 250 58 q 191 167 191 111 q 210 242 191 210 q 264 296 230 273 q 345 337 301 321 q 446 370 388 353 m 471 774 q 388 898 419 850 q 334 983 357 946 q 293 1031 312 1019 q 248 1043 274 1043 q 208 1026 223 1043 q 192 990 192 1010 q 202 949 192 962 q 239 913 213 935 q 320 850 265 892 q 445 753 375 808 l 471 774 "},"":{"ha":700,"x_min":54,"x_max":682,"o":"m 682 12 l 682 56 q 637 56 659 56 q 605 63 615 57 q 577 90 586 74 q 568 132 568 105 q 570 295 568 220 q 572 467 572 370 q 554 578 572 535 q 501 646 536 621 q 424 680 467 672 q 325 688 382 688 q 240 674 283 688 q 166 642 197 661 q 109 591 131 620 q 87 532 87 563 q 103 478 87 502 q 153 454 119 454 q 212 473 191 454 q 233 517 233 493 q 227 566 233 539 q 220 606 220 592 q 258 628 231 617 q 316 638 285 638 q 386 620 361 638 q 425 576 411 601 q 440 528 437 553 q 444 494 444 503 l 444 427 q 318 378 412 410 q 195 336 225 347 q 142 310 170 326 q 98 274 115 294 q 65 219 76 250 q 54 150 54 189 q 103 29 54 75 q 227 -17 151 -17 q 348 9 298 -17 q 443 83 399 35 l 447 83 q 487 11 456 36 q 572 -14 519 -14 q 626 -6 602 -14 q 682 12 650 1 m 446 370 l 441 136 q 380 81 416 104 q 295 58 343 58 q 220 84 250 58 q 191 167 191 111 q 210 242 191 210 q 264 296 230 273 q 345 337 301 321 q 446 370 388 353 m 554 784 l 392 1022 q 372 1043 382 1036 q 335 1050 362 1050 q 296 1043 307 1050 q 274 1019 286 1036 l 113 784 l 146 762 l 332 947 l 522 762 l 554 784 "},"":{"ha":700,"x_min":54,"x_max":682,"o":"m 682 12 l 682 56 q 637 56 659 56 q 605 63 615 57 q 577 90 586 74 q 568 132 568 105 q 570 295 568 220 q 572 467 572 370 q 554 578 572 535 q 501 646 536 621 q 424 680 467 672 q 325 688 382 688 q 240 674 283 688 q 166 642 197 661 q 109 591 131 620 q 87 532 87 563 q 103 478 87 502 q 153 454 119 454 q 212 473 191 454 q 233 517 233 493 q 227 566 233 539 q 220 606 220 592 q 258 628 231 617 q 316 638 285 638 q 386 620 361 638 q 425 576 411 601 q 440 528 437 553 q 444 494 444 503 l 444 427 q 318 378 412 410 q 195 336 225 347 q 142 310 170 326 q 98 274 115 294 q 65 219 76 250 q 54 150 54 189 q 103 29 54 75 q 227 -17 151 -17 q 348 9 298 -17 q 443 83 399 35 l 447 83 q 487 11 456 36 q 572 -14 519 -14 q 626 -6 602 -14 q 682 12 650 1 m 446 370 l 441 136 q 380 81 416 104 q 295 58 343 58 q 220 84 250 58 q 191 167 191 111 q 210 242 191 210 q 264 296 230 273 q 345 337 301 321 q 446 370 388 353 m 560 925 q 537 984 560 960 q 480 1008 513 1008 q 424 984 447 1008 q 400 925 400 960 q 424 866 400 890 q 480 842 447 842 q 537 866 513 842 q 560 925 560 890 m 269 925 q 245 984 269 960 q 189 1008 222 1008 q 132 984 155 1008 q 109 925 109 960 q 132 866 109 890 q 189 842 155 842 q 245 866 222 842 q 269 925 269 890 "},"":{"ha":700,"x_min":54,"x_max":682,"o":"m 682 12 l 682 56 q 637 56 659 56 q 605 63 615 57 q 577 90 586 74 q 568 132 568 105 q 570 295 568 220 q 572 467 572 370 q 554 578 572 535 q 501 646 536 621 q 424 680 467 672 q 325 688 382 688 q 240 674 283 688 q 166 642 197 661 q 109 591 131 620 q 87 532 87 563 q 103 478 87 502 q 153 454 119 454 q 212 473 191 454 q 233 517 233 493 q 227 566 233 539 q 220 606 220 592 q 258 628 231 617 q 316 638 285 638 q 386 620 361 638 q 425 576 411 601 q 440 528 437 553 q 444 494 444 503 l 444 427 q 318 378 412 410 q 195 336 225 347 q 142 310 170 326 q 98 274 115 294 q 65 219 76 250 q 54 150 54 189 q 103 29 54 75 q 227 -17 151 -17 q 348 9 298 -17 q 443 83 399 35 l 447 83 q 487 11 456 36 q 572 -14 519 -14 q 626 -6 602 -14 q 682 12 650 1 m 446 370 l 441 136 q 380 81 416 104 q 295 58 343 58 q 220 84 250 58 q 191 167 191 111 q 210 242 191 210 q 264 296 230 273 q 345 337 301 321 q 446 370 388 353 m 602 995 l 561 1010 q 544 972 551 987 q 526 944 536 957 q 499 926 516 932 q 456 920 483 920 q 412 930 430 920 q 369 954 395 940 q 318 978 346 967 q 253 989 291 989 q 192 972 221 989 q 142 930 163 955 q 107 877 123 907 q 84 825 91 846 l 123 808 q 144 844 133 824 q 165 876 155 864 q 188 895 177 889 q 219 900 198 900 q 266 889 245 900 q 311 865 288 878 q 361 841 332 852 q 429 830 391 830 q 493 846 467 830 q 545 888 520 862 q 582 942 568 915 q 602 995 595 969 "},"":{"ha":700,"x_min":54,"x_max":682,"o":"m 682 12 l 682 56 q 637 56 659 56 q 605 63 615 57 q 577 90 586 74 q 568 132 568 105 q 570 295 568 220 q 572 467 572 370 q 554 578 572 535 q 501 646 536 621 q 424 680 467 672 q 325 688 382 688 q 240 674 283 688 q 166 642 197 661 q 109 591 131 620 q 87 532 87 563 q 103 478 87 502 q 153 454 119 454 q 212 473 191 454 q 233 517 233 493 q 227 566 233 539 q 220 606 220 592 q 258 628 231 617 q 316 638 285 638 q 386 620 361 638 q 425 576 411 601 q 440 528 437 553 q 444 494 444 503 l 444 427 q 318 378 412 410 q 195 336 225 347 q 142 310 170 326 q 98 274 115 294 q 65 219 76 250 q 54 150 54 189 q 103 29 54 75 q 227 -17 151 -17 q 348 9 298 -17 q 443 83 399 35 l 447 83 q 487 11 456 36 q 572 -14 519 -14 q 626 -6 602 -14 q 682 12 650 1 m 446 370 l 441 136 q 380 81 416 104 q 295 58 343 58 q 220 84 250 58 q 191 167 191 111 q 210 242 191 210 q 264 296 230 273 q 345 337 301 321 q 446 370 388 353 m 509 907 q 460 1016 509 975 q 334 1057 410 1057 q 210 1015 261 1057 q 159 907 159 973 q 207 797 159 838 q 334 755 255 755 q 461 798 413 755 q 509 907 509 840 m 424 907 q 401 829 424 859 q 334 799 378 799 q 268 829 291 799 q 245 907 245 860 q 268 985 245 956 q 334 1014 292 1014 q 401 983 378 1014 q 424 907 424 953 "},"":{"ha":631,"x_min":49,"x_max":627,"o":"m 311 -15 l 311 -140 q 350 -142 327 -140 q 386 -149 372 -144 q 413 -164 403 -154 q 423 -191 423 -175 q 408 -227 423 -214 q 366 -245 393 -239 q 311 -252 343 -251 q 250 -252 278 -252 l 250 -301 q 356 -296 311 -301 q 439 -277 401 -290 q 499 -235 477 -262 q 521 -168 521 -208 q 507 -118 521 -138 q 469 -87 492 -98 q 420 -71 444 -75 q 365 -67 395 -67 l 365 -18 q 512 31 441 -16 q 627 156 584 78 l 584 184 q 502 89 546 121 q 391 57 457 57 q 244 137 300 57 q 189 342 189 216 q 204 480 189 422 q 245 572 220 538 q 302 623 273 609 q 364 637 332 637 q 416 630 392 637 q 452 602 440 623 q 443 554 451 587 q 435 492 435 522 q 457 446 435 467 q 519 426 479 426 q 572 452 556 426 q 589 512 589 478 q 527 641 589 593 q 367 688 465 688 q 235 658 296 688 q 135 581 175 629 q 71 469 93 530 q 49 337 49 408 q 118 95 49 189 q 311 -15 188 1 "},"":{"ha":671,"x_min":49,"x_max":643,"o":"m 643 157 l 595 186 q 511 85 555 113 q 407 57 467 57 q 305 80 348 57 q 236 142 262 102 q 196 236 209 182 q 184 355 184 290 l 627 355 l 627 400 q 611 512 627 460 q 565 602 596 564 q 480 665 532 642 q 355 688 428 688 q 226 658 283 688 q 130 581 169 629 q 70 468 90 530 q 49 340 49 405 q 68 202 49 267 q 127 88 87 137 q 227 11 166 39 q 368 -18 288 -18 q 530 30 460 -18 q 643 157 601 77 m 493 412 l 184 412 q 235 577 188 518 q 353 637 282 637 q 423 617 396 637 q 466 566 450 597 q 487 494 480 537 q 493 412 493 450 m 517 990 q 502 1026 517 1010 q 462 1043 486 1043 q 416 1030 436 1043 q 376 983 397 1018 q 324 902 348 939 q 239 774 300 865 l 264 753 q 382 844 328 802 q 471 913 437 886 q 506 948 494 932 q 517 990 517 964 "},"":{"ha":671,"x_min":49,"x_max":643,"o":"m 643 157 l 595 186 q 511 85 555 113 q 407 57 467 57 q 305 80 348 57 q 236 142 262 102 q 196 236 209 182 q 184 355 184 290 l 627 355 l 627 400 q 611 512 627 460 q 565 602 596 564 q 480 665 532 642 q 355 688 428 688 q 226 658 283 688 q 130 581 169 629 q 70 468 90 530 q 49 340 49 405 q 68 202 49 267 q 127 88 87 137 q 227 11 166 39 q 368 -18 288 -18 q 530 30 460 -18 q 643 157 601 77 m 493 412 l 184 412 q 235 577 188 518 q 353 637 282 637 q 423 617 396 637 q 466 566 450 597 q 487 494 480 537 q 493 412 493 450 m 471 774 q 389 898 420 850 q 334 983 357 946 q 294 1031 313 1019 q 248 1043 275 1043 q 208 1026 224 1043 q 193 990 193 1010 q 203 949 193 962 q 239 913 214 935 q 321 850 266 892 q 446 753 376 808 l 471 774 "},"":{"ha":671,"x_min":49,"x_max":643,"o":"m 643 157 l 595 186 q 511 85 555 113 q 407 57 467 57 q 305 80 348 57 q 236 142 262 102 q 196 236 209 182 q 184 355 184 290 l 627 355 l 627 400 q 611 512 627 460 q 565 602 596 564 q 480 665 532 642 q 355 688 428 688 q 226 658 283 688 q 130 581 169 629 q 70 468 90 530 q 49 340 49 405 q 68 202 49 267 q 127 88 87 137 q 227 11 166 39 q 368 -18 288 -18 q 530 30 460 -18 q 643 157 601 77 m 493 412 l 184 412 q 235 577 188 518 q 353 637 282 637 q 423 617 396 637 q 466 566 450 597 q 487 494 480 537 q 493 412 493 450 m 574 780 l 412 1018 q 393 1039 403 1031 q 355 1046 382 1046 q 316 1039 327 1046 q 294 1015 306 1032 l 134 780 l 166 758 l 353 943 l 542 758 l 574 780 "},"":{"ha":671,"x_min":49,"x_max":643,"o":"m 643 157 l 595 186 q 511 85 555 113 q 407 57 467 57 q 305 80 348 57 q 236 142 262 102 q 196 236 209 182 q 184 355 184 290 l 627 355 l 627 400 q 611 512 627 460 q 565 602 596 564 q 480 665 532 642 q 355 688 428 688 q 226 658 283 688 q 130 581 169 629 q 70 468 90 530 q 49 340 49 405 q 68 202 49 267 q 127 88 87 137 q 227 11 166 39 q 368 -18 288 -18 q 530 30 460 -18 q 643 157 601 77 m 493 412 l 184 412 q 235 577 188 518 q 353 637 282 637 q 423 617 396 637 q 466 566 450 597 q 487 494 480 537 q 493 412 493 450 m 585 925 q 561 984 585 960 q 505 1008 538 1008 q 448 984 471 1008 q 425 925 425 960 q 448 866 425 890 q 505 842 471 842 q 561 866 538 842 q 585 925 585 890 m 293 925 q 270 984 293 960 q 213 1008 246 1008 q 156 984 180 1008 q 133 925 133 960 q 156 866 133 890 q 213 842 180 842 q 270 866 246 842 q 293 925 293 890 "},"":{"ha":407,"x_min":29,"x_max":374,"o":"m 374 0 l 374 45 q 342 50 356 46 q 313 60 328 54 q 284 83 293 67 q 275 122 275 98 l 275 667 l 265 677 l 29 662 l 29 618 q 74 611 50 616 q 111 597 98 605 q 139 567 129 585 q 149 527 149 549 l 149 114 q 139 74 149 90 q 111 53 130 59 q 82 47 99 49 q 50 45 66 46 l 50 0 l 374 0 m 347 990 q 331 1026 347 1010 q 291 1043 315 1043 q 245 1030 265 1043 q 205 983 226 1018 q 153 902 177 939 q 68 774 129 865 l 94 753 q 211 844 157 802 q 300 913 266 886 q 335 948 323 932 q 347 990 347 964 "},"":{"ha":407,"x_min":28,"x_max":374,"o":"m 374 0 l 374 45 q 342 50 356 46 q 313 60 328 54 q 284 83 293 67 q 275 122 275 98 l 275 667 l 265 677 l 29 662 l 29 618 q 74 611 50 616 q 111 597 98 605 q 139 567 129 585 q 149 527 149 549 l 149 114 q 139 74 149 90 q 111 53 130 59 q 82 47 99 49 q 50 45 66 46 l 50 0 l 374 0 m 307 774 q 224 898 255 850 q 170 983 193 946 q 129 1031 148 1019 q 83 1043 110 1043 q 43 1026 59 1043 q 28 990 28 1010 q 38 949 28 962 q 75 913 49 935 q 156 850 101 892 q 281 753 211 808 l 307 774 "},"":{"ha":407,"x_min":-14,"x_max":380,"o":"m 374 0 l 374 45 q 342 50 356 46 q 313 60 328 54 q 284 83 293 67 q 275 122 275 98 l 275 667 l 265 677 l 29 662 l 29 618 q 74 611 50 616 q 111 597 98 605 q 139 567 129 585 q 149 527 149 549 l 149 114 q 139 74 149 90 q 111 53 130 59 q 82 47 99 49 q 50 45 66 46 l 50 0 l 374 0 m 380 780 l 241 1015 q 225 1035 237 1024 q 184 1046 214 1046 q 144 1036 157 1046 q 123 1013 131 1026 l -14 780 l 19 760 l 182 943 l 347 760 l 380 780 "},"":{"ha":407,"x_min":-9,"x_max":384,"o":"m 374 0 l 374 45 q 342 50 356 46 q 313 60 328 54 q 284 83 293 67 q 275 122 275 98 l 275 667 l 265 677 l 29 662 l 29 618 q 74 611 50 616 q 111 597 98 605 q 139 567 129 585 q 149 527 149 549 l 149 114 q 139 74 149 90 q 111 53 130 59 q 82 47 99 49 q 50 45 66 46 l 50 0 l 374 0 m 384 925 q 361 984 384 960 q 306 1008 339 1008 q 250 984 273 1008 q 228 925 228 960 q 250 866 228 890 q 306 842 273 842 q 361 866 339 842 q 384 925 384 890 m 146 925 q 124 984 146 960 q 68 1008 102 1008 q 13 984 35 1008 q -9 925 -9 960 q 13 866 -9 890 q 68 842 35 842 q 124 866 102 842 q 146 925 146 890 "},"":{"ha":821,"x_min":41,"x_max":787,"o":"m 787 0 l 787 45 q 754 49 766 46 q 726 58 743 52 q 699 81 707 66 q 690 119 690 96 l 690 467 q 644 627 690 567 q 501 687 597 687 q 423 676 458 687 q 363 649 389 665 q 317 612 342 635 q 277 573 293 589 l 273 573 l 273 667 l 264 677 l 41 662 l 41 618 q 79 613 62 616 q 110 601 97 609 q 137 569 127 589 q 147 527 147 550 l 147 114 q 138 74 147 90 q 110 53 129 59 q 81 47 98 49 q 49 45 64 46 l 49 0 l 376 0 l 376 45 q 342 50 359 46 q 311 60 326 53 q 283 83 292 68 q 273 121 273 98 l 273 505 q 293 534 279 516 q 328 568 306 552 q 381 595 351 584 q 447 606 411 606 q 529 568 495 606 q 562 458 562 529 l 562 114 q 553 74 562 90 q 525 53 544 59 q 494 47 513 49 q 460 45 475 46 l 460 0 l 787 0 m 669 995 l 627 1010 q 610 972 617 987 q 592 944 603 957 q 566 926 583 932 q 522 920 549 920 q 479 930 496 920 q 435 954 461 940 q 385 978 412 967 q 319 989 357 989 q 258 972 288 989 q 209 930 229 955 q 174 877 190 907 q 151 825 157 846 l 190 808 q 210 844 199 824 q 232 876 221 864 q 254 895 243 889 q 286 900 264 900 q 333 889 311 900 q 378 865 354 878 q 428 841 399 852 q 496 830 457 830 q 560 846 533 830 q 611 888 587 862 q 648 942 635 915 q 669 995 662 969 "},"":{"ha":749,"x_min":47,"x_max":701,"o":"m 701 341 q 609 593 701 498 q 378 688 518 688 q 139 588 230 688 q 47 332 47 488 q 74 185 47 250 q 144 74 100 119 q 246 4 189 28 q 368 -20 304 -20 q 506 6 444 -20 q 614 87 568 33 q 678 202 656 134 q 701 341 701 271 m 560 340 q 511 113 560 195 q 376 31 461 31 q 290 56 325 31 q 232 124 255 81 q 198 223 209 168 q 188 343 188 278 q 197 446 188 393 q 227 540 205 498 q 287 610 250 585 q 376 636 324 636 q 463 611 427 636 q 519 543 498 585 q 550 447 540 504 q 560 340 560 391 m 504 990 q 488 1026 504 1010 q 448 1043 473 1043 q 403 1030 422 1043 q 362 983 383 1018 q 310 902 334 939 q 225 774 286 865 l 251 753 q 369 844 314 802 q 457 913 423 886 q 492 948 480 932 q 504 990 504 964 "},"":{"ha":749,"x_min":47,"x_max":701,"o":"m 701 341 q 609 593 701 498 q 378 688 518 688 q 139 588 230 688 q 47 332 47 488 q 74 185 47 250 q 144 74 100 119 q 246 4 189 28 q 368 -20 304 -20 q 506 6 444 -20 q 614 87 568 33 q 678 202 656 134 q 701 341 701 271 m 560 340 q 511 113 560 195 q 376 31 461 31 q 290 56 325 31 q 232 124 255 81 q 198 223 209 168 q 188 343 188 278 q 197 446 188 393 q 227 540 205 498 q 287 610 250 585 q 376 636 324 636 q 463 611 427 636 q 519 543 498 585 q 550 447 540 504 q 560 340 560 391 m 533 774 q 450 898 481 850 q 396 983 419 946 q 355 1031 374 1019 q 310 1043 336 1043 q 270 1026 286 1043 q 254 990 254 1010 q 265 949 254 962 q 301 913 275 935 q 382 850 328 892 q 507 753 437 808 l 533 774 "},"":{"ha":749,"x_min":47,"x_max":701,"o":"m 701 341 q 609 593 701 498 q 378 688 518 688 q 139 588 230 688 q 47 332 47 488 q 74 185 47 250 q 144 74 100 119 q 246 4 189 28 q 368 -20 304 -20 q 506 6 444 -20 q 614 87 568 33 q 678 202 656 134 q 701 341 701 271 m 560 340 q 511 113 560 195 q 376 31 461 31 q 290 56 325 31 q 232 124 255 81 q 198 223 209 168 q 188 343 188 278 q 197 446 188 393 q 227 540 205 498 q 287 610 250 585 q 376 636 324 636 q 463 611 427 636 q 519 543 498 585 q 550 447 540 504 q 560 340 560 391 m 600 780 l 437 1018 q 418 1039 428 1031 q 380 1046 408 1046 q 341 1039 352 1046 q 319 1015 331 1032 l 159 780 l 191 758 l 378 943 l 567 758 l 600 780 "},"":{"ha":749,"x_min":47,"x_max":701,"o":"m 701 341 q 609 593 701 498 q 378 688 518 688 q 139 588 230 688 q 47 332 47 488 q 74 185 47 250 q 144 74 100 119 q 246 4 189 28 q 368 -20 304 -20 q 506 6 444 -20 q 614 87 568 33 q 678 202 656 134 q 701 341 701 271 m 560 340 q 511 113 560 195 q 376 31 461 31 q 290 56 325 31 q 232 124 255 81 q 198 223 209 168 q 188 343 188 278 q 197 446 188 393 q 227 540 205 498 q 287 610 250 585 q 376 636 324 636 q 463 611 427 636 q 519 543 498 585 q 550 447 540 504 q 560 340 560 391 m 605 925 q 582 984 605 960 q 525 1008 558 1008 q 468 984 492 1008 q 445 925 445 960 q 468 866 445 890 q 525 842 492 842 q 582 866 558 842 q 605 925 605 890 m 313 925 q 290 984 313 960 q 233 1008 267 1008 q 177 984 200 1008 q 153 925 153 960 q 177 866 153 890 q 233 842 200 842 q 290 866 267 842 q 313 925 313 890 "},"":{"ha":749,"x_min":47,"x_max":701,"o":"m 701 341 q 609 593 701 498 q 378 688 518 688 q 139 588 230 688 q 47 332 47 488 q 74 185 47 250 q 144 74 100 119 q 246 4 189 28 q 368 -20 304 -20 q 506 6 444 -20 q 614 87 568 33 q 678 202 656 134 q 701 341 701 271 m 560 340 q 511 113 560 195 q 376 31 461 31 q 290 56 325 31 q 232 124 255 81 q 198 223 209 168 q 188 343 188 278 q 197 446 188 393 q 227 540 205 498 q 287 610 250 585 q 376 636 324 636 q 463 611 427 636 q 519 543 498 585 q 550 447 540 504 q 560 340 560 391 m 638 995 l 597 1010 q 579 972 587 987 q 562 944 572 957 q 535 926 552 932 q 492 920 519 920 q 448 930 466 920 q 405 954 431 940 q 354 978 382 967 q 289 989 327 989 q 228 972 257 989 q 178 930 199 955 q 143 877 159 907 q 120 825 127 846 l 159 808 q 180 844 169 824 q 201 876 191 864 q 223 895 213 889 q 255 900 234 900 q 302 889 281 900 q 347 865 323 878 q 397 841 368 852 q 465 830 427 830 q 529 846 503 830 q 581 888 556 862 q 618 942 604 915 q 638 995 631 969 "},"":{"ha":799,"x_min":24,"x_max":766,"o":"m 766 12 l 766 56 q 728 59 745 57 q 699 69 711 62 q 673 97 682 81 q 663 136 663 113 l 663 667 l 653 677 l 410 661 l 410 616 q 464 613 440 615 q 500 604 488 612 q 527 574 517 591 q 536 534 536 557 l 536 155 q 515 126 529 142 q 483 96 501 110 q 434 68 463 80 q 368 57 405 57 q 290 94 322 57 q 257 203 257 130 l 257 667 l 247 677 l 24 661 l 24 616 q 62 611 44 615 q 93 600 81 608 q 120 571 111 587 q 129 530 129 554 l 129 210 q 175 41 129 99 q 311 -17 222 -17 q 391 -7 363 -17 q 450 20 420 2 q 497 55 477 36 q 534 92 517 75 l 538 92 l 538 7 l 548 -3 l 766 12 m 548 990 q 532 1026 548 1010 q 492 1043 517 1043 q 447 1030 467 1043 q 406 983 427 1018 q 354 902 378 939 q 269 774 330 865 l 295 753 q 413 844 358 802 q 501 913 467 886 q 536 948 524 932 q 548 990 548 964 "},"":{"ha":799,"x_min":24,"x_max":766,"o":"m 766 12 l 766 56 q 728 59 745 57 q 699 69 711 62 q 673 97 682 81 q 663 136 663 113 l 663 667 l 653 677 l 410 661 l 410 616 q 464 613 440 615 q 500 604 488 612 q 527 574 517 591 q 536 534 536 557 l 536 155 q 515 126 529 142 q 483 96 501 110 q 434 68 463 80 q 368 57 405 57 q 290 94 322 57 q 257 203 257 130 l 257 667 l 247 677 l 24 661 l 24 616 q 62 611 44 615 q 93 600 81 608 q 120 571 111 587 q 129 530 129 554 l 129 210 q 175 41 129 99 q 311 -17 222 -17 q 391 -7 363 -17 q 450 20 420 2 q 497 55 477 36 q 534 92 517 75 l 538 92 l 538 7 l 548 -3 l 766 12 m 522 774 q 439 898 470 850 q 385 983 408 946 q 344 1031 363 1019 q 298 1043 325 1043 q 258 1026 274 1043 q 243 990 243 1010 q 253 949 243 962 q 290 913 264 935 q 371 850 316 892 q 496 753 426 808 l 522 774 "},"":{"ha":799,"x_min":24,"x_max":766,"o":"m 766 12 l 766 56 q 728 59 745 57 q 699 69 711 62 q 673 97 682 81 q 663 136 663 113 l 663 667 l 653 677 l 410 661 l 410 616 q 464 613 440 615 q 500 604 488 612 q 527 574 517 591 q 536 534 536 557 l 536 155 q 515 126 529 142 q 483 96 501 110 q 434 68 463 80 q 368 57 405 57 q 290 94 322 57 q 257 203 257 130 l 257 667 l 247 677 l 24 661 l 24 616 q 62 611 44 615 q 93 600 81 608 q 120 571 111 587 q 129 530 129 554 l 129 210 q 175 41 129 99 q 311 -17 222 -17 q 391 -7 363 -17 q 450 20 420 2 q 497 55 477 36 q 534 92 517 75 l 538 92 l 538 7 l 548 -3 l 766 12 m 609 780 l 447 1018 q 427 1039 437 1031 q 390 1046 417 1046 q 351 1039 361 1046 q 329 1015 340 1032 l 168 780 l 201 758 l 387 943 l 576 758 l 609 780 "},"":{"ha":799,"x_min":24,"x_max":766,"o":"m 766 12 l 766 56 q 728 59 745 57 q 699 69 711 62 q 673 97 682 81 q 663 136 663 113 l 663 667 l 653 677 l 410 661 l 410 616 q 464 613 440 615 q 500 604 488 612 q 527 574 517 591 q 536 534 536 557 l 536 155 q 515 126 529 142 q 483 96 501 110 q 434 68 463 80 q 368 57 405 57 q 290 94 322 57 q 257 203 257 130 l 257 667 l 247 677 l 24 661 l 24 616 q 62 611 44 615 q 93 600 81 608 q 120 571 111 587 q 129 530 129 554 l 129 210 q 175 41 129 99 q 311 -17 222 -17 q 391 -7 363 -17 q 450 20 420 2 q 497 55 477 36 q 534 92 517 75 l 538 92 l 538 7 l 548 -3 l 766 12 m 614 925 q 591 984 614 960 q 534 1008 568 1008 q 478 984 501 1008 q 454 925 454 960 q 478 866 454 890 q 534 842 501 842 q 591 866 568 842 q 614 925 614 890 m 323 925 q 299 984 323 960 q 243 1008 276 1008 q 186 984 210 1008 q 163 925 163 960 q 186 866 163 890 q 243 842 210 842 q 299 866 276 842 q 323 925 323 890 "},"":{"ha":656,"x_min":69,"x_max":586,"o":"m 586 724 q 572 761 586 750 q 535 772 557 772 q 468 759 517 772 q 345 736 418 745 q 365 861 352 804 q 378 936 378 918 q 366 972 378 958 q 329 987 354 987 q 292 972 305 987 q 279 936 279 958 q 291 864 279 919 q 311 736 302 809 q 194 758 247 743 q 120 772 140 772 q 83 761 98 772 q 69 724 69 749 q 83 688 69 701 q 120 676 98 676 q 191 689 138 676 q 311 709 244 703 q 288 329 296 443 q 281 199 281 214 q 293 163 281 177 q 329 149 306 149 q 366 163 355 149 q 377 199 377 177 q 366 381 377 220 q 345 709 355 542 q 462 689 406 703 q 535 676 518 676 q 572 689 557 676 q 586 724 586 701 "},"":{"ha":583,"x_min":71,"x_max":512,"o":"m 512 765 q 450 922 512 858 q 291 985 388 985 q 134 923 197 985 q 71 765 71 861 q 132 609 71 673 q 291 545 193 545 q 450 608 388 545 q 512 765 512 672 m 412 760 q 375 637 412 679 q 293 595 338 595 q 203 642 235 595 q 171 767 171 688 q 203 889 171 844 q 290 935 235 935 q 378 889 345 935 q 412 760 412 844 "},"":{"ha":771,"x_min":96,"x_max":705,"o":"m 705 159 l 666 190 q 575 92 624 125 q 455 59 526 59 q 448 59 450 59 q 441 60 445 60 l 441 640 q 501 629 474 638 q 540 602 528 619 q 529 554 538 586 q 519 492 519 522 q 538 446 519 467 q 602 426 557 426 q 655 448 637 426 q 673 512 673 471 q 607 640 673 592 q 441 688 541 688 l 441 865 l 386 865 l 386 685 q 176 569 257 668 q 96 338 96 469 q 171 97 96 193 q 386 -12 247 0 l 386 -203 l 441 -203 l 441 -13 q 596 42 526 -7 q 705 159 665 91 m 386 68 q 273 163 313 92 q 233 344 233 235 q 247 466 233 412 q 281 554 260 520 q 329 609 302 588 q 386 637 356 629 l 386 68 "},"":{"ha":864,"x_min":79,"x_max":790,"o":"m 203 120 l 203 126 q 323 253 282 178 q 363 421 363 329 l 632 421 l 632 486 l 363 486 q 360 614 363 537 q 357 734 357 691 q 374 836 357 795 q 417 897 391 876 q 472 926 445 920 q 524 933 500 933 q 594 914 566 933 q 631 876 623 895 q 620 829 628 861 q 611 768 611 798 q 634 722 611 742 q 697 702 657 702 q 751 727 735 702 q 768 787 768 753 q 751 860 768 824 q 705 924 735 895 q 631 969 676 951 q 526 987 586 987 q 303 894 389 987 q 218 657 218 801 q 222 568 218 622 q 228 486 226 513 l 115 486 l 115 421 l 228 421 q 222 320 228 370 q 201 229 216 270 q 156 150 185 184 q 79 100 126 116 l 79 0 l 790 0 l 790 120 l 203 120 "},"":{"ha":694,"x_min":82,"x_max":612,"o":"m 612 430 q 566 556 612 500 q 419 653 520 611 q 339 687 385 667 q 267 726 293 707 q 226 764 240 743 q 212 812 212 785 q 252 899 212 863 q 355 934 292 934 q 385 932 369 934 q 411 927 401 930 q 430 884 422 904 q 450 844 437 865 q 477 813 462 825 q 515 801 493 801 q 564 819 547 801 q 582 868 582 837 q 573 905 582 884 q 543 943 564 926 q 481 974 521 961 q 380 986 441 986 q 264 970 317 986 q 178 928 212 954 q 125 865 142 900 q 107 787 107 829 q 140 687 107 728 q 245 610 173 645 q 122 522 162 574 q 82 404 82 469 q 130 268 82 326 q 292 165 177 210 q 446 80 411 119 q 481 0 481 41 q 438 -85 481 -47 q 334 -123 396 -123 q 301 -121 314 -123 q 278 -116 289 -119 q 260 -74 270 -98 q 239 -33 250 -50 q 213 -3 229 -16 q 174 10 197 10 q 124 -9 142 10 q 107 -58 107 -28 q 116 -95 107 -75 q 149 -133 125 -115 q 210 -163 172 -151 q 310 -175 248 -175 q 425 -159 378 -175 q 511 -115 473 -144 q 565 -48 546 -87 q 584 35 584 -9 q 551 139 584 94 q 443 216 517 184 q 567 303 522 245 q 612 430 612 362 m 507 398 q 482 310 507 350 q 395 235 457 271 q 237 321 288 278 q 186 431 186 365 q 213 520 186 481 q 302 585 240 559 q 455 504 402 550 q 507 398 507 458 "},"":{"ha":545,"x_min":94,"x_max":452,"o":"m 452 406 q 399 533 452 480 q 273 585 347 585 q 146 533 199 585 q 94 406 94 480 q 146 280 94 332 q 273 227 199 227 q 399 280 347 227 q 452 406 452 332 "},"":{"ha":694,"x_min":67,"x_max":678,"o":"m 678 912 l 678 962 l 328 962 q 140 895 212 962 q 67 718 67 828 q 145 542 67 604 q 355 479 224 479 l 355 -146 l 425 -146 l 425 912 l 533 912 l 533 -146 l 603 -146 l 603 912 l 678 912 "},"":{"ha":762,"x_min":40,"x_max":708,"o":"m 629 547 q 554 603 595 582 q 477 631 513 624 l 477 637 q 535 654 503 640 q 593 693 566 669 q 639 756 621 718 q 658 845 658 794 q 638 939 658 901 q 585 1002 618 977 q 510 1040 550 1029 q 422 1051 471 1051 q 317 1032 371 1051 q 218 964 264 1013 q 149 840 163 905 q 134 682 134 775 l 134 117 q 126 76 134 92 q 101 54 118 60 q 72 48 90 50 q 40 45 54 46 l 40 0 l 261 0 l 261 719 q 299 927 261 854 q 416 1000 336 1000 q 506 959 472 1000 q 540 841 540 918 q 526 760 540 794 q 488 703 512 726 q 438 672 466 682 q 383 662 410 662 l 359 662 l 359 604 l 372 604 q 516 532 465 604 q 566 342 566 459 q 557 224 566 275 q 527 133 547 173 q 473 71 508 94 q 392 48 439 48 q 363 50 378 48 q 332 55 347 52 l 332 0 q 370 -5 347 -3 q 414 -7 392 -7 q 623 89 538 -7 q 708 338 708 185 q 686 459 708 408 q 629 547 663 511 "},"":{"ha":1308,"x_min":54,"x_max":1254,"o":"m 1254 408 q 1078 832 1254 656 q 654 1007 902 1007 q 230 832 406 1007 q 54 408 54 656 q 230 -15 54 160 q 654 -191 406 -191 q 1078 -15 902 -191 q 1254 408 1254 160 m 1187 408 q 1031 28 1187 188 q 654 -131 876 -131 q 276 28 431 -131 q 121 408 121 188 q 276 788 121 629 q 654 947 431 947 q 1031 788 876 947 q 1187 408 1187 629 m 1046 98 l 1046 138 q 1015 142 1034 138 q 983 151 996 146 q 947 168 966 156 q 910 203 929 179 q 843 287 880 240 q 750 399 805 333 q 869 463 829 421 q 909 579 909 505 q 891 649 909 620 q 844 695 873 677 q 777 721 814 713 q 703 729 741 729 l 369 729 l 369 690 q 401 685 382 688 q 433 676 419 681 q 456 658 452 670 q 461 630 461 646 l 461 195 q 455 166 461 178 q 433 149 448 155 q 402 142 423 144 q 369 138 381 139 l 369 98 l 667 98 l 667 138 q 631 142 654 138 q 600 149 607 146 q 577 167 583 155 q 571 195 571 180 l 571 372 l 642 372 q 739 250 692 311 q 851 98 787 189 l 1046 98 m 783 566 q 742 461 783 498 q 630 424 701 424 l 571 424 l 571 680 l 650 680 q 749 651 715 680 q 783 566 783 622 "},"":{"ha":1308,"x_min":54,"x_max":1254,"o":"m 1254 408 q 1078 832 1254 656 q 654 1007 902 1007 q 230 832 406 1007 q 54 408 54 656 q 230 -15 54 160 q 654 -191 406 -191 q 1078 -15 902 -191 q 1254 408 1254 160 m 1187 408 q 1031 28 1187 188 q 654 -131 876 -131 q 276 28 431 -131 q 121 408 121 188 q 276 788 121 629 q 654 947 431 947 q 1031 788 876 947 q 1187 408 1187 629 m 932 274 l 893 291 q 810 176 859 212 q 694 140 762 140 q 537 212 600 140 q 474 408 474 284 q 526 615 474 540 q 659 691 578 691 q 745 675 710 691 q 803 631 779 659 q 843 569 829 602 q 871 496 858 536 l 908 496 l 905 742 l 865 742 l 834 697 q 769 727 812 713 q 686 741 725 741 q 544 714 610 741 q 433 643 478 688 q 359 534 385 596 q 334 401 334 473 q 358 267 334 327 q 426 163 382 206 q 532 98 471 120 q 666 75 593 75 q 765 92 725 75 q 840 139 805 109 q 895 202 871 165 q 932 274 918 239 "},"":{"ha":1309,"x_min":66,"x_max":1259,"o":"m 1259 497 l 1259 532 q 1227 535 1244 532 q 1204 541 1211 538 q 1191 551 1194 545 q 1188 566 1188 557 l 1188 895 q 1191 909 1188 902 q 1204 919 1194 917 q 1229 924 1211 922 q 1259 928 1247 927 l 1259 962 l 1077 962 q 1071 937 1075 952 q 1060 905 1067 922 l 941 642 l 798 962 l 609 962 l 609 928 q 644 923 629 926 q 669 911 659 919 q 684 892 679 903 q 689 865 689 881 l 689 629 q 685 571 689 587 q 669 547 681 555 q 637 536 659 539 q 605 531 616 533 l 605 497 l 819 497 l 819 532 q 782 538 803 532 q 752 549 761 544 q 737 577 741 559 q 732 632 732 596 l 732 879 l 743 879 l 903 512 l 925 512 l 1090 872 l 1101 872 l 1101 566 q 1097 551 1101 556 q 1082 539 1093 547 q 1055 534 1075 536 q 1024 532 1035 532 l 1024 497 l 1259 497 m 526 828 l 526 962 l 66 962 l 66 828 l 98 828 q 125 884 105 850 q 166 922 145 918 q 192 923 175 922 q 219 924 209 924 l 252 924 l 252 565 q 249 550 252 557 q 235 539 245 543 q 210 535 229 537 q 176 532 190 532 l 176 497 l 416 497 l 416 532 q 382 536 400 532 q 357 542 363 540 q 343 553 346 547 q 340 569 340 559 l 340 924 l 373 924 q 397 924 382 924 q 426 922 411 923 q 466 884 446 918 q 494 828 487 850 l 526 828 "},"":{"ha":694,"x_min":193,"x_max":472,"o":"m 472 990 q 456 1026 472 1010 q 416 1043 441 1043 q 371 1030 391 1043 q 330 983 351 1018 q 278 902 302 939 q 193 774 254 865 l 219 753 q 337 844 282 802 q 425 913 391 886 q 460 948 448 932 q 472 990 472 964 "},"":{"ha":694,"x_min":121,"x_max":573,"o":"m 573 925 q 550 984 573 960 q 493 1008 526 1008 q 436 984 460 1008 q 413 925 413 960 q 436 866 413 890 q 493 842 460 842 q 550 866 526 842 q 573 925 573 890 m 281 925 q 258 984 281 960 q 201 1008 235 1008 q 145 984 168 1008 q 121 925 121 960 q 145 866 121 890 q 201 842 168 842 q 258 866 235 842 q 281 925 281 890 "},"":{"ha":893,"x_min":104,"x_max":789,"o":"m 789 211 l 789 296 l 462 296 l 509 463 l 789 463 l 789 548 l 534 548 l 595 759 l 516 759 l 455 548 l 104 548 l 104 463 l 432 463 l 384 296 l 104 296 l 104 211 l 359 211 l 298 0 l 377 0 l 438 211 l 789 211 "},"":{"ha":1348,"x_min":-66,"x_max":1316,"o":"m 1316 283 l 1267 283 q 1224 186 1258 252 q 1158 87 1190 120 q 1122 68 1147 75 q 1069 58 1097 62 q 1010 56 1046 56 q 952 56 975 56 q 866 59 896 56 q 817 76 836 63 q 793 114 800 89 q 787 182 787 139 l 787 471 l 889 471 q 960 463 934 471 q 1008 429 987 455 q 1033 376 1021 412 q 1047 307 1044 340 l 1098 307 l 1098 684 l 1047 684 q 1033 622 1044 654 q 1008 569 1023 589 q 965 536 990 546 q 889 526 941 526 l 787 526 l 787 909 l 932 909 q 998 907 969 909 q 1048 903 1027 906 q 1135 840 1089 898 q 1193 730 1180 782 l 1244 730 l 1244 962 l 404 962 l 404 914 q 467 909 432 913 q 519 899 503 905 q 310 524 411 703 q 104 165 209 345 q 67 112 87 136 q 22 74 46 87 q -21 57 5 64 q -66 48 -47 50 l -66 0 l 289 0 l 289 48 q 204 68 233 52 q 175 115 175 85 q 181 149 175 131 q 196 183 187 166 q 263 314 237 267 q 317 408 288 360 l 643 408 l 643 131 q 634 90 643 106 q 604 63 626 73 q 556 53 591 57 q 506 48 522 50 l 506 0 l 1298 0 l 1316 283 m 643 468 l 351 468 l 591 903 l 643 903 l 643 468 "},"":{"ha":1034,"x_min":54,"x_max":979,"o":"m 979 480 q 944 682 979 592 q 850 838 909 772 l 957 966 l 913 1001 l 810 877 q 674 958 749 930 q 517 986 600 986 q 340 951 425 986 q 192 848 256 916 q 91 689 127 781 q 54 480 54 597 q 89 282 54 374 q 184 122 123 189 l 62 -24 l 105 -58 l 223 85 q 355 5 281 35 q 517 -24 430 -24 q 694 12 611 -24 q 841 112 778 47 q 942 270 904 176 q 979 480 979 364 m 745 798 l 261 214 q 228 334 239 266 q 216 480 216 401 q 233 649 216 568 q 284 788 250 730 q 379 889 322 853 q 517 926 436 926 q 648 893 591 926 q 745 798 705 861 m 745 165 q 648 70 706 102 q 517 37 591 37 q 383 71 440 37 q 289 165 326 105 l 773 747 q 806 626 795 694 q 817 480 817 557 q 800 306 817 384 q 745 165 782 228 "},"":{"ha":996,"x_min":52,"x_max":944,"o":"m 944 382 q 880 586 944 508 q 715 664 817 664 q 596 623 650 664 q 505 501 541 582 q 403 625 458 585 q 282 665 348 665 q 120 585 189 665 q 52 382 52 505 q 116 178 52 256 q 281 100 180 100 q 398 140 344 100 q 490 263 452 180 q 591 141 536 182 q 713 100 647 100 q 876 181 808 100 q 944 382 944 263 m 886 380 q 847 266 886 311 q 742 220 809 220 q 627 276 672 220 q 529 457 582 332 q 604 524 555 501 q 722 546 654 546 q 841 501 795 546 q 886 380 886 456 m 467 307 q 391 241 442 264 q 273 218 339 218 q 155 263 201 218 q 110 385 110 309 q 148 498 110 453 q 254 544 186 544 q 367 490 321 544 q 467 307 413 435 "},"":{"ha":893,"x_min":101,"x_max":792,"o":"m 792 0 l 792 85 l 490 85 l 490 357 l 792 357 l 792 442 l 490 442 l 490 748 l 404 748 l 404 442 l 101 442 l 101 357 l 404 357 l 404 85 l 101 85 l 101 0 l 792 0 "},"":{"ha":893,"x_min":123,"x_max":770,"o":"m 770 136 l 770 230 l 245 441 l 770 651 l 770 745 l 123 479 l 123 401 l 770 136 m 770 85 l 123 85 l 123 0 l 770 0 l 770 85 "},"":{"ha":893,"x_min":123,"x_max":770,"o":"m 770 401 l 770 479 l 123 745 l 123 651 l 648 441 l 123 230 l 123 136 l 770 401 m 770 0 l 770 85 l 123 85 l 123 0 l 770 0 "},"":{"ha":854,"x_min":-8,"x_max":869,"o":"m 869 914 l 869 962 l 549 962 l 549 914 q 590 910 572 912 q 626 903 608 909 q 654 888 644 898 q 664 863 664 879 q 604 745 664 846 q 467 514 544 643 q 382 666 413 610 q 323 774 351 721 q 283 850 294 827 q 271 882 271 874 q 295 905 271 898 q 385 914 319 911 l 385 962 l -8 962 l -8 914 q 33 907 10 913 q 72 892 56 902 q 112 857 94 877 q 151 799 129 838 q 253 617 212 692 q 353 423 294 543 l 353 380 l 87 380 l 87 315 l 353 315 l 353 134 q 344 89 353 106 q 315 62 334 71 q 267 53 301 56 q 216 48 233 50 l 216 0 l 630 0 l 630 48 q 577 56 610 49 q 532 69 544 64 q 501 98 510 80 q 492 140 492 116 l 492 315 l 759 315 l 759 380 l 492 380 l 492 436 q 605 629 562 555 q 724 817 648 703 q 761 864 751 855 q 797 888 770 872 q 833 905 808 897 q 869 914 858 913 "},"":{"ha":787,"x_min":82,"x_max":768,"o":"m 768 13 l 768 56 q 724 57 745 56 q 690 64 702 58 q 661 91 670 74 q 652 137 652 108 l 652 669 l 524 669 l 524 157 q 503 127 517 143 q 473 98 490 112 q 425 73 454 84 q 358 62 395 62 q 278 101 310 62 q 247 210 247 139 l 247 669 l 119 669 l 119 92 q 117 37 119 66 q 111 -30 115 7 q 94 -129 106 -64 q 82 -233 82 -193 q 99 -283 82 -264 q 144 -301 117 -301 q 190 -283 169 -301 q 211 -232 211 -265 q 193 -122 211 -199 q 175 1 175 -45 l 175 41 l 179 41 q 233 2 197 18 q 308 -14 269 -14 q 385 -6 359 -14 q 439 18 412 2 q 483 52 460 31 q 522 92 505 74 l 526 92 q 569 14 534 40 q 656 -13 604 -13 q 712 -6 687 -13 q 768 13 736 1 "},"":{"ha":800,"x_min":59,"x_max":735,"o":"m 494 161 q 419 69 463 106 q 322 33 375 33 q 259 48 285 33 q 219 89 234 63 q 198 148 203 116 q 192 220 192 180 q 260 444 192 348 q 416 540 328 540 q 485 527 456 540 q 532 492 513 514 q 562 443 553 469 q 572 386 570 416 q 544 276 565 341 q 494 161 522 212 m 311 901 q 353 924 328 913 q 415 934 378 934 q 505 909 469 934 q 562 842 541 885 q 591 742 581 802 q 600 623 600 682 q 598 555 600 585 q 593 496 597 526 q 509 588 563 556 q 372 619 455 619 q 156 511 254 619 q 59 261 59 402 q 127 56 59 134 q 321 -22 196 -22 q 493 34 414 -22 q 636 202 573 89 q 711 404 686 292 q 735 609 735 516 q 717 751 735 684 q 661 872 699 819 q 561 956 621 925 q 416 987 501 987 q 308 971 356 987 q 230 928 260 954 q 184 876 201 905 q 168 821 168 847 q 185 769 168 791 q 239 747 203 747 q 299 769 283 747 q 317 827 316 791 q 314 868 317 848 q 311 901 312 888 "},"":{"ha":979,"x_min":14,"x_max":939,"o":"m 22 962 l 22 932 l 486 321 l 14 -248 l 14 -281 l 859 -281 l 939 17 l 894 31 q 863 -34 882 1 q 819 -98 844 -69 q 766 -142 796 -125 q 699 -159 735 -159 l 159 -159 l 606 374 l 606 393 l 212 909 l 507 909 q 573 907 541 909 q 626 902 606 906 q 726 828 671 892 q 811 690 781 764 l 859 690 l 829 962 l 22 962 "},"":{"ha":1159,"x_min":66,"x_max":1096,"o":"m 1096 962 l 66 962 l 66 901 l 202 901 l 202 -153 q 193 -196 202 -179 q 163 -220 183 -212 q 120 -229 151 -226 q 73 -233 90 -231 l 73 -281 l 473 -281 l 473 -233 q 426 -226 456 -232 q 385 -214 397 -220 q 354 -185 362 -201 q 347 -145 347 -169 l 347 901 l 812 901 l 812 -153 q 803 -196 812 -179 q 773 -220 793 -212 q 731 -229 762 -226 q 684 -233 700 -231 l 684 -281 l 1083 -281 l 1083 -233 q 1037 -226 1066 -232 q 996 -214 1007 -220 q 965 -185 972 -201 q 957 -145 957 -169 l 957 901 l 1096 901 l 1096 962 "},"":{"ha":694,"x_min":14,"x_max":680,"o":"m 285 648 l 285 16 q 281 -88 285 -43 q 265 -171 277 -132 q 234 -229 255 -206 q 181 -252 214 -252 q 172 -251 174 -252 q 168 -251 170 -251 q 164 -250 167 -251 q 159 -249 162 -250 q 140 -160 159 -192 q 77 -128 121 -128 q 29 -148 45 -128 q 14 -191 14 -167 q 22 -229 14 -210 q 48 -264 31 -248 q 94 -291 66 -281 q 162 -301 121 -301 q 253 -279 209 -301 q 334 -214 298 -256 q 394 -82 378 -162 q 409 102 409 -1 l 409 737 q 413 833 409 783 q 429 920 417 884 q 461 979 441 958 q 513 1001 481 1001 q 522 1001 518 1001 q 526 1000 525 1001 q 529 999 528 1000 q 535 998 531 999 q 552 912 535 947 q 617 878 568 878 q 664 896 648 878 q 680 940 680 913 q 672 978 680 959 q 646 1013 664 996 q 602 1039 629 1028 q 532 1050 574 1050 q 440 1027 488 1050 q 360 964 393 1003 q 302 836 319 916 q 285 648 285 757 "},"":{"ha":694,"x_min":106,"x_max":633,"o":"m 633 439 l 633 480 q 596 480 614 480 q 568 486 578 481 q 544 508 552 495 q 536 541 536 521 q 538 671 536 614 q 540 807 540 728 q 524 898 540 864 q 479 952 508 932 q 413 978 451 971 q 330 985 376 985 q 197 948 262 985 q 132 859 132 911 q 144 815 132 836 q 186 794 157 794 q 239 809 218 794 q 260 843 260 823 q 255 879 260 858 q 250 909 251 899 q 280 928 260 920 q 323 937 301 937 q 381 921 359 937 q 414 886 403 906 q 427 848 423 869 q 431 820 431 827 l 431 783 q 332 744 395 764 q 222 706 269 725 q 178 687 199 697 q 141 659 157 676 q 115 612 125 639 q 106 551 106 586 q 146 454 106 493 q 247 416 186 416 q 348 438 304 416 q 429 500 392 460 l 433 500 q 466 440 440 461 q 536 418 492 418 q 584 425 562 418 q 633 439 606 431 m 431 729 l 429 549 q 379 508 408 526 q 304 490 350 490 q 246 511 268 490 q 224 576 224 532 q 240 632 224 608 q 283 672 256 656 q 347 702 315 691 q 431 729 379 713 "},"":{"ha":694,"x_min":79,"x_max":616,"o":"m 616 704 q 542 907 616 828 q 351 985 469 985 q 154 904 229 985 q 79 696 79 823 q 156 491 79 571 q 342 411 233 411 q 542 495 468 411 q 616 704 616 578 m 456 532 q 412 480 439 499 q 349 461 385 461 q 282 481 310 461 q 237 534 255 501 q 212 611 220 568 q 203 705 203 654 q 210 784 203 742 q 234 859 217 827 q 279 915 251 894 q 349 935 308 935 q 416 915 389 935 q 460 862 443 895 q 483 787 476 829 q 490 703 490 745 q 481 608 490 652 q 456 532 473 564 "},"":{"ha":1082,"x_min":4,"x_max":1080,"o":"m 747 121 l 747 144 q 843 255 800 202 q 918 360 886 307 q 965 473 948 412 q 983 606 983 534 q 854 875 983 764 q 542 985 725 985 q 230 875 359 985 q 102 606 102 764 q 119 473 102 532 q 168 360 136 414 q 242 255 196 311 q 338 144 289 199 l 338 121 l 186 121 q 139 135 159 121 q 101 170 119 148 q 70 215 83 191 q 46 263 56 239 l 4 248 l 83 0 l 465 0 l 465 46 q 380 171 413 120 q 321 277 347 221 q 279 398 292 338 q 265 530 265 458 q 277 665 265 595 q 317 788 290 734 q 407 889 351 853 q 542 925 464 925 q 674 892 618 925 q 768 789 730 859 q 807 660 795 734 q 819 530 819 586 q 806 394 819 450 q 764 278 792 338 q 701 166 741 227 q 619 46 661 105 l 619 0 l 1001 0 l 1080 248 l 1038 263 q 981 166 1017 212 q 898 121 945 121 l 747 121 "},"":{"ha":1023,"x_min":55,"x_max":996,"o":"m 996 158 l 948 187 q 878 92 919 127 q 767 57 838 57 q 610 137 661 57 q 559 372 559 218 l 979 372 l 979 412 q 964 518 979 469 q 919 605 950 567 q 840 665 889 642 q 721 688 791 688 q 616 665 667 688 q 531 606 566 642 q 443 671 498 654 q 320 688 388 688 q 239 675 283 688 q 163 642 195 662 q 107 592 129 619 q 85 532 85 564 q 101 478 85 502 q 151 454 117 454 q 211 473 189 454 q 232 517 232 493 q 225 566 232 539 q 219 606 219 592 q 257 628 230 617 q 317 638 283 638 q 380 620 357 638 q 416 576 404 601 q 432 528 428 551 q 435 494 435 504 l 435 422 q 337 393 389 408 q 192 340 286 378 q 141 315 166 330 q 98 277 117 300 q 66 222 78 254 q 55 149 55 191 q 104 27 55 73 q 230 -18 153 -18 q 368 12 309 -18 q 479 110 427 42 l 483 110 q 589 13 530 44 q 735 -18 649 -18 q 887 28 819 -18 q 996 158 956 75 m 845 428 l 559 428 q 603 575 560 514 q 713 637 645 637 q 782 616 756 637 q 823 565 808 596 q 840 497 834 539 q 845 428 845 455 m 437 132 q 376 80 413 102 q 288 58 340 58 q 217 85 244 58 q 191 168 191 112 q 210 243 191 211 q 263 300 229 276 q 341 339 300 325 q 437 364 382 353 l 437 132 "},"":{"ha":749,"x_min":47,"x_max":701,"o":"m 701 341 q 676 479 701 416 q 608 589 652 543 l 688 688 l 649 718 l 574 622 q 486 671 534 654 q 378 688 437 688 q 139 588 230 688 q 47 332 47 488 q 72 192 47 254 q 138 85 97 131 l 48 -26 l 87 -55 q 117 -18 90 -52 q 173 51 144 16 q 264 -2 215 16 q 368 -20 314 -20 q 506 6 444 -20 q 614 87 568 33 q 678 202 656 134 q 701 341 701 271 m 517 553 l 208 168 q 191 251 197 205 q 185 343 185 296 q 194 446 185 393 q 225 540 203 498 q 284 609 248 583 q 376 636 321 636 q 462 614 429 636 q 517 553 495 592 m 517 122 q 459 56 495 81 q 376 31 424 31 q 288 55 323 31 q 231 121 254 79 l 540 507 q 557 427 552 471 q 563 340 563 382 q 552 220 563 272 q 517 122 541 168 "},"":{"ha":665,"x_min":68,"x_max":593,"o":"m 490 889 q 463 954 490 927 q 397 981 435 981 q 332 954 359 981 q 304 889 304 927 q 332 824 304 851 q 397 796 359 796 q 463 824 435 796 q 490 889 490 851 m 593 139 q 577 197 593 172 q 525 222 562 222 q 462 202 484 222 q 440 156 440 181 q 446 109 440 140 q 455 62 452 79 q 421 45 444 54 q 366 36 397 36 q 240 90 283 36 q 197 246 197 144 q 217 346 197 310 q 271 406 236 381 q 346 440 304 430 q 431 454 388 451 l 431 711 l 368 711 l 368 562 q 149 466 229 545 q 68 261 68 387 q 86 154 68 203 q 142 66 104 105 q 234 5 178 27 q 361 -18 289 -18 q 457 -2 411 -18 q 531 35 503 14 q 578 86 563 60 q 593 139 593 112 "},"":{"ha":460,"x_min":140,"x_max":326,"o":"m 326 888 q 299 953 326 926 q 233 981 271 981 q 168 953 195 981 q 140 888 140 926 q 168 823 140 850 q 233 796 195 796 q 299 823 271 796 q 326 888 326 850 m 320 70 q 297 309 320 109 q 258 673 274 509 l 205 673 q 168 295 190 477 q 146 70 146 114 q 171 4 146 31 q 233 -22 195 -22 q 296 5 271 -22 q 320 70 320 31 "},"":{"ha":893,"x_min":98,"x_max":789,"o":"m 789 52 l 789 442 l 98 442 l 98 357 l 699 357 l 699 52 l 789 52 "},"":{"ha":929,"x_min":29,"x_max":970,"o":"m 970 1156 l 890 1156 l 469 122 l 273 612 l 29 612 l 29 549 l 154 549 l 414 -85 l 459 -85 l 970 1156 "},"":{"ha":721,"x_min":-119,"x_max":715,"o":"m 715 789 q 678 858 715 830 q 578 886 642 886 q 469 866 518 886 q 380 805 419 846 q 295 675 326 749 q 252 487 264 601 l 107 487 l 107 422 l 245 422 q 229 260 238 347 q 203 66 219 174 q 152 -127 184 -61 q 64 -201 119 -194 q 6 -111 35 -137 q -54 -84 -22 -84 q -102 -104 -85 -84 q -119 -155 -119 -125 q -83 -223 -119 -195 q 18 -250 -47 -250 q 123 -229 73 -250 q 214 -168 174 -208 q 292 -47 259 -121 q 343 149 324 27 q 361 282 353 214 q 375 422 368 351 l 555 422 l 555 487 l 381 487 l 391 569 q 441 766 406 704 q 532 837 475 828 q 588 746 560 774 q 649 718 616 718 q 698 738 682 718 q 715 789 715 757 "},"":{"ha":893,"x_min":102,"x_max":791,"o":"m 791 357 l 740 378 q 686 295 714 328 q 612 262 658 262 q 548 275 576 262 q 484 303 519 287 q 412 332 450 319 q 324 345 373 345 q 245 325 285 345 q 180 279 206 306 q 132 219 152 251 q 102 159 113 187 l 153 138 q 207 220 181 190 q 281 250 233 250 q 346 236 309 250 q 411 209 382 222 q 483 181 444 193 q 568 168 522 168 q 648 186 614 168 q 713 235 682 205 q 759 292 739 260 q 791 357 779 323 m 791 616 l 740 637 q 686 554 714 587 q 612 522 658 522 q 548 534 576 522 q 484 562 519 546 q 412 591 450 578 q 324 604 373 604 q 245 584 285 604 q 180 538 206 565 q 132 478 152 510 q 102 418 113 446 l 153 397 q 207 479 181 449 q 281 509 233 509 q 346 495 309 509 q 411 468 382 481 q 483 440 444 452 q 568 427 522 427 q 648 446 614 427 q 713 494 682 464 q 759 551 739 519 q 791 616 779 583 "},"":{"ha":928,"x_min":13,"x_max":916,"o":"m 916 0 l 916 34 l 504 976 l 451 976 l 13 34 l 13 0 l 916 0 m 724 117 l 121 117 l 430 791 l 724 117 "},"":{"ha":807,"x_min":115,"x_max":676,"o":"m 676 109 l 500 359 l 676 608 l 643 635 l 404 412 q 385 391 396 404 q 374 358 374 378 q 385 325 374 338 q 402 307 396 312 l 643 81 l 676 109 m 418 109 l 242 359 l 418 608 l 385 635 l 146 412 q 126 391 136 403 q 115 358 115 378 q 126 325 115 338 q 144 307 138 312 l 385 81 l 418 109 "},"":{"ha":807,"x_min":131,"x_max":692,"o":"m 692 358 q 680 390 692 375 q 661 412 669 406 l 422 635 l 389 608 l 565 359 l 389 109 l 422 81 l 663 307 q 680 324 669 311 q 692 358 692 336 m 433 358 q 421 392 433 377 q 403 412 410 406 l 164 635 l 131 608 l 307 359 l 131 109 l 164 81 l 405 307 q 422 324 410 311 q 433 358 433 336 "},"":{"ha":1121,"x_min":100,"x_max":1025,"o":"m 1025 74 q 999 136 1025 110 q 937 163 973 163 q 874 136 900 163 q 848 74 848 110 q 874 12 848 38 q 937 -14 901 -14 q 999 12 972 -14 q 1025 74 1025 38 m 652 74 q 625 136 652 110 q 563 163 599 163 q 500 136 526 163 q 474 74 474 110 q 500 12 474 38 q 563 -14 527 -14 q 625 12 598 -14 q 652 74 652 37 m 278 74 q 252 136 278 110 q 189 163 225 163 q 126 136 153 163 q 100 74 100 110 q 127 12 100 38 q 189 -14 153 -14 q 251 12 224 -14 q 278 74 278 37 "},"":{"ha":932,"x_min":-28,"x_max":964,"o":"m 964 0 l 964 48 q 922 55 947 49 q 881 71 897 62 q 845 103 858 87 q 822 146 832 119 l 501 976 l 447 976 q 291 574 378 800 q 131 167 203 348 q 102 112 117 132 q 60 73 87 92 q 16 56 43 62 q -28 48 -10 50 l -28 0 l 334 0 l 334 48 q 238 66 281 51 q 195 108 195 81 q 199 138 195 119 q 211 185 202 156 q 232 250 220 215 q 263 333 244 286 l 600 333 l 680 117 q 684 102 683 111 q 686 87 686 93 q 651 62 686 72 q 563 48 616 52 l 563 0 l 964 0 m 576 393 l 287 393 l 430 766 l 576 393 m 637 1048 q 529 1153 568 1114 q 459 1224 490 1192 q 419 1258 436 1249 q 381 1267 401 1267 q 336 1252 353 1267 q 319 1213 319 1236 q 333 1169 319 1185 q 381 1136 348 1153 q 474 1091 411 1121 q 616 1022 536 1061 l 637 1048 "},"":{"ha":932,"x_min":-28,"x_max":964,"o":"m 964 0 l 964 48 q 922 55 947 49 q 881 71 897 62 q 845 103 858 87 q 822 146 832 119 l 501 976 l 447 976 q 291 574 378 800 q 131 167 203 348 q 102 112 117 132 q 60 73 87 92 q 16 56 43 62 q -28 48 -10 50 l -28 0 l 334 0 l 334 48 q 238 66 281 51 q 195 108 195 81 q 199 138 195 119 q 211 185 202 156 q 232 250 220 215 q 263 333 244 286 l 600 333 l 680 117 q 684 102 683 111 q 686 87 686 93 q 651 62 686 72 q 563 48 616 52 l 563 0 l 964 0 m 576 393 l 287 393 l 430 766 l 576 393 m 737 1238 l 696 1253 q 679 1215 686 1230 q 661 1187 671 1200 q 634 1169 651 1175 q 591 1162 618 1162 q 547 1173 565 1162 q 504 1197 530 1183 q 453 1221 481 1210 q 388 1232 426 1232 q 327 1215 356 1232 q 277 1173 298 1198 q 242 1120 258 1150 q 219 1067 226 1089 l 258 1050 q 279 1087 268 1067 q 300 1119 290 1107 q 322 1137 312 1132 q 354 1143 333 1143 q 401 1132 380 1143 q 446 1107 422 1121 q 496 1084 467 1095 q 564 1073 526 1073 q 628 1089 602 1073 q 680 1131 655 1105 q 717 1185 703 1158 q 737 1238 730 1212 "},"":{"ha":1034,"x_min":54,"x_max":979,"o":"m 844 848 q 697 949 782 913 q 517 985 612 985 q 340 950 425 985 q 192 848 256 915 q 91 689 127 781 q 54 480 54 597 q 89 279 54 373 q 185 119 124 185 q 331 15 246 52 q 517 -23 416 -23 q 694 12 611 -23 q 841 113 778 47 q 943 272 906 178 q 979 480 979 366 q 943 688 979 594 q 844 848 907 782 m 743 166 q 648 71 706 105 q 517 37 589 37 q 384 71 439 37 q 292 164 328 104 q 236 304 254 225 q 218 480 218 382 q 235 648 218 568 q 286 788 252 728 q 378 888 321 850 q 517 925 435 925 q 646 893 589 925 q 739 803 702 861 q 796 662 777 745 q 815 480 815 579 q 798 306 815 384 q 743 166 781 228 m 776 1244 l 734 1260 q 717 1221 724 1236 q 699 1194 710 1206 q 673 1176 690 1182 q 629 1169 656 1169 q 586 1179 604 1169 q 543 1204 568 1190 q 492 1228 519 1217 q 427 1239 465 1239 q 366 1222 395 1239 q 316 1180 336 1204 q 281 1126 297 1157 q 258 1074 264 1096 l 297 1057 q 317 1094 307 1074 q 339 1126 328 1114 q 361 1144 351 1139 q 393 1149 372 1149 q 440 1139 418 1149 q 485 1114 461 1128 q 535 1091 506 1102 q 603 1080 564 1080 q 667 1096 640 1080 q 718 1138 694 1112 q 755 1192 742 1164 q 776 1244 769 1219 "},"":{"ha":1386,"x_min":54,"x_max":1354,"o":"m 680 59 q 628 57 652 58 q 586 56 604 56 q 320 175 421 56 q 218 486 218 294 q 246 677 218 596 q 321 807 273 758 q 433 883 370 859 q 575 906 496 906 q 623 905 593 906 q 680 903 652 904 l 680 59 m 825 182 l 825 471 l 926 471 q 999 463 972 471 q 1045 429 1025 454 q 1070 376 1058 412 q 1084 307 1082 340 l 1135 307 l 1135 684 l 1084 684 q 1070 622 1081 654 q 1045 569 1060 589 q 1000 535 1024 543 q 926 526 975 526 l 825 526 l 825 909 l 969 909 q 1036 907 1006 909 q 1086 903 1065 906 q 1172 840 1126 898 q 1230 730 1217 781 l 1281 730 l 1281 962 l 576 962 q 387 934 481 962 q 219 848 292 906 q 99 698 144 788 q 54 488 54 608 q 68 355 54 415 q 106 248 82 296 q 287 67 165 135 q 553 0 408 0 l 1335 0 l 1354 283 l 1305 283 q 1261 186 1295 252 q 1196 87 1227 120 q 1159 68 1184 75 q 1107 58 1135 62 q 1047 56 1083 56 q 989 56 1012 56 q 903 59 933 56 q 854 76 873 63 q 831 114 837 88 q 825 182 825 140 "},"":{"ha":1134,"x_min":47,"x_max":1106,"o":"m 1106 158 l 1059 187 q 989 92 1029 127 q 878 57 948 57 q 721 131 774 57 q 666 355 668 205 l 1089 355 l 1089 404 q 1074 515 1089 463 q 1028 605 1059 567 q 948 666 996 644 q 830 688 901 688 q 701 651 760 688 q 606 557 642 614 q 511 649 573 610 q 372 688 450 688 q 234 660 296 688 q 132 584 173 632 q 68 470 90 534 q 47 332 47 406 q 73 185 47 250 q 142 74 98 119 q 242 4 185 28 q 359 -20 298 -20 q 497 16 436 -20 q 601 115 559 52 q 705 17 640 52 q 846 -18 769 -18 q 998 28 929 -18 q 1106 158 1067 75 m 956 412 l 666 412 q 709 571 666 506 q 822 637 753 637 q 892 616 865 637 q 933 563 919 595 q 952 491 948 530 q 956 412 956 452 m 534 332 q 490 105 534 179 q 366 31 446 31 q 284 55 317 31 q 229 122 250 79 q 198 219 208 163 q 187 342 187 275 q 196 446 187 393 q 224 540 204 499 q 279 610 245 583 q 366 637 313 637 q 449 611 416 637 q 501 544 482 586 q 527 446 519 503 q 534 332 534 389 "},"":{"ha":893,"x_min":69,"x_max":824,"o":"m 824 337 l 824 422 l 69 422 l 69 337 l 824 337 "},"":{"ha":1190,"x_min":69,"x_max":1121,"o":"m 1121 337 l 1121 422 l 69 422 l 69 337 l 1121 337 "},"":{"ha":570,"x_min":54,"x_max":505,"o":"m 254 994 l 230 1035 q 178 1002 209 1022 q 119 952 146 981 q 73 887 92 924 q 54 807 54 851 q 79 706 54 745 q 162 668 104 668 q 221 693 199 668 q 242 746 242 718 q 218 807 242 786 q 152 827 194 827 l 119 827 q 134 885 123 863 q 163 928 144 907 q 203 963 183 949 q 254 994 222 976 m 505 994 l 481 1035 q 429 1002 460 1022 q 370 952 397 981 q 323 887 342 924 q 304 807 304 851 q 330 706 304 745 q 413 668 355 668 q 472 693 450 668 q 493 746 493 718 q 469 807 493 786 q 403 827 445 827 l 370 827 q 384 885 374 863 q 414 928 394 907 q 454 963 434 949 q 505 994 473 976 "},"":{"ha":570,"x_min":64,"x_max":516,"o":"m 265 899 q 240 999 265 960 q 157 1037 215 1037 q 98 1012 120 1037 q 77 960 77 987 q 100 899 77 921 q 167 878 124 878 l 199 878 q 186 820 197 842 q 157 777 175 798 q 118 744 143 762 q 64 711 92 727 l 87 671 q 140 703 107 681 q 199 753 172 725 q 245 817 226 780 q 265 899 265 854 m 516 899 q 491 999 516 960 q 408 1037 466 1037 q 349 1012 371 1037 q 328 960 328 987 q 351 899 328 921 q 418 878 375 878 l 450 878 q 437 820 448 842 q 408 777 426 798 q 369 744 394 762 q 315 711 343 727 l 338 671 q 391 703 358 681 q 450 753 423 725 q 496 817 477 780 q 516 899 516 854 "},"":{"ha":315,"x_min":52,"x_max":252,"o":"m 252 994 l 228 1035 q 176 1002 207 1022 q 117 952 144 981 q 71 887 90 924 q 52 807 52 851 q 77 706 52 745 q 160 668 102 668 q 219 693 197 668 q 240 746 240 718 q 216 807 240 786 q 150 827 192 827 l 117 827 q 132 885 121 863 q 161 928 142 908 q 201 963 181 949 q 252 994 220 976 "},"":{"ha":315,"x_min":62,"x_max":263,"o":"m 263 899 q 238 999 263 960 q 155 1037 213 1037 q 96 1012 118 1037 q 75 960 75 987 q 98 899 75 921 q 165 878 122 878 l 197 878 q 184 820 195 842 q 155 777 173 798 q 116 744 141 762 q 62 711 90 727 l 85 671 q 138 703 105 681 q 197 753 170 725 q 244 817 224 780 q 263 899 263 854 "},"":{"ha":893,"x_min":98,"x_max":795,"o":"m 534 655 q 509 716 534 691 q 447 741 483 741 q 385 716 411 741 q 359 655 359 691 q 385 593 359 619 q 447 568 411 568 q 509 593 483 568 q 534 655 534 619 m 795 337 l 795 422 l 98 422 l 98 337 l 795 337 m 534 104 q 509 165 534 140 q 447 191 483 191 q 385 165 411 191 q 359 104 359 140 q 385 43 359 68 q 447 18 411 18 q 509 43 483 18 q 534 104 534 68 "},"":{"ha":780,"x_min":44,"x_max":736,"o":"m 736 389 l 390 779 l 44 389 l 390 0 l 736 389 m 629 389 l 390 115 l 151 389 l 390 664 l 629 389 "},"":{"ha":684,"x_min":-13,"x_max":704,"o":"m -2 -218 q 28 -276 -2 -251 q 111 -301 58 -301 q 164 -291 138 -301 q 220 -253 189 -281 q 286 -169 252 -222 q 362 -21 319 -116 q 457 205 395 52 q 601 547 520 359 q 650 603 617 583 q 704 627 684 623 l 704 669 l 456 669 l 456 625 q 514 607 484 622 q 545 574 545 591 q 536 535 545 557 q 523 499 528 512 q 449 316 482 393 q 386 165 416 238 q 304 368 357 241 q 225 562 251 494 q 218 581 221 572 q 215 595 215 591 q 243 613 215 605 q 292 621 272 621 l 292 669 l -13 669 l -13 624 q 48 602 18 619 q 92 553 79 585 q 201 291 149 418 q 317 3 253 164 q 249 -132 296 -55 q 168 -228 202 -210 q 150 -199 161 -216 q 128 -171 138 -181 q 100 -150 116 -158 q 63 -142 85 -142 q 17 -163 35 -142 q -2 -218 -2 -184 m 594 925 q 571 984 594 960 q 514 1008 547 1008 q 457 984 481 1008 q 434 925 434 960 q 457 866 434 890 q 514 842 481 842 q 571 866 547 842 q 594 925 594 890 m 302 925 q 279 984 302 960 q 222 1008 256 1008 q 166 984 189 1008 q 142 925 142 960 q 166 866 142 890 q 222 842 189 842 q 279 866 256 842 q 302 925 302 890 "},"":{"ha":854,"x_min":-30,"x_max":891,"o":"m 891 914 l 891 962 l 557 962 l 557 914 q 600 910 576 912 q 642 903 623 909 q 673 888 661 898 q 684 863 684 879 q 628 748 684 844 q 466 481 572 652 q 379 637 412 577 q 314 758 346 697 q 291 801 303 779 q 270 842 279 824 q 258 867 262 857 q 254 882 254 878 q 283 905 254 897 q 380 914 311 913 l 380 962 l -30 962 l -30 914 q 11 907 -12 913 q 50 892 34 902 q 90 857 73 877 q 130 799 107 838 q 216 642 166 734 q 306 472 265 551 q 337 408 324 437 q 351 368 351 379 l 351 134 q 341 91 351 109 q 308 63 332 73 q 255 53 293 57 q 198 48 217 50 l 198 0 l 648 0 l 648 48 q 589 57 626 49 q 538 70 553 64 q 505 99 515 81 q 495 141 495 117 l 495 325 q 503 401 495 375 q 536 471 511 428 q 648 666 604 589 q 746 817 693 743 q 783 863 773 854 q 819 888 792 872 q 854 905 829 897 q 891 914 880 913 m 686 1173 q 663 1232 686 1208 q 606 1257 640 1257 q 550 1232 573 1257 q 526 1173 526 1208 q 550 1114 526 1139 q 606 1090 573 1090 q 663 1114 640 1090 q 686 1173 686 1139 m 381 1173 q 358 1232 381 1208 q 301 1257 334 1257 q 244 1232 268 1257 q 221 1173 221 1208 q 244 1114 221 1139 q 301 1090 268 1090 q 358 1114 334 1090 q 381 1173 381 1139 "},"":{"ha":113,"x_min":-241,"x_max":352,"o":"m 352 962 l 259 962 l -241 0 l -149 0 l 352 962 "},"":{"ha":892,"x_min":0,"x_max":874,"o":"m 874 243 l 823 268 q 781 185 807 223 q 722 117 755 147 q 645 72 688 89 q 547 54 602 54 q 421 86 479 54 q 319 176 362 119 q 275 258 293 212 q 248 359 258 304 l 421 359 l 446 425 l 241 425 q 240 449 241 437 q 240 481 240 460 q 240 511 240 490 q 241 543 241 533 l 490 543 l 515 608 l 248 608 q 271 716 255 665 q 316 810 287 767 q 408 897 356 867 q 526 926 460 926 q 625 900 584 926 q 699 827 667 873 q 750 728 728 787 q 783 619 772 669 l 838 619 l 832 962 l 778 962 l 750 916 q 644 966 698 948 q 518 983 589 983 q 343 947 422 983 q 203 842 263 911 q 130 731 157 791 q 90 608 103 671 l 24 608 l 0 543 l 81 543 q 79 506 80 530 q 78 472 78 483 q 78 448 78 454 q 79 425 78 442 l 24 425 l 0 359 l 86 359 q 128 221 96 289 q 202 109 160 153 q 337 11 262 44 q 497 -22 411 -22 q 723 39 630 -22 q 874 243 816 100 "},"":{"ha":576,"x_min":119,"x_max":435,"o":"m 435 109 l 252 359 l 435 608 l 401 635 l 149 412 q 129 391 140 404 q 119 358 119 378 q 130 325 119 338 q 147 307 140 313 l 401 81 l 435 109 "},"":{"ha":576,"x_min":142,"x_max":458,"o":"m 458 358 q 446 391 458 375 q 427 412 435 406 l 175 635 l 142 608 l 324 359 l 142 109 l 175 81 l 429 307 q 447 324 435 312 q 458 358 458 336 "},"":{"ha":809,"x_min":16,"x_max":776,"o":"m 715 60 q 686 83 695 68 q 677 123 677 99 l 677 667 l 667 677 l 499 666 l 275 666 l 275 722 q 290 850 275 796 q 330 937 304 905 q 389 984 358 971 q 456 998 419 998 l 493 998 q 506 955 498 981 q 524 909 513 928 q 554 876 535 889 q 603 863 573 863 q 648 885 630 863 q 665 937 665 907 q 614 1021 665 990 q 465 1051 562 1051 q 343 1024 402 1051 q 252 962 285 998 q 173 838 197 904 q 149 682 149 772 l 149 666 l 16 666 l 16 601 l 149 601 l 149 115 q 139 75 149 90 q 111 54 130 60 q 82 48 99 50 q 50 45 66 46 l 50 0 l 381 0 l 381 45 q 345 50 362 46 q 313 60 328 54 q 284 83 293 68 q 275 121 275 98 l 275 604 l 531 604 q 546 576 541 589 q 551 543 551 564 l 551 115 q 542 75 551 90 q 513 54 532 60 q 486 48 501 50 q 455 45 471 46 l 455 0 l 776 0 l 776 45 q 744 50 758 46 q 715 60 730 54 "},"":{"ha":819,"x_min":16,"x_max":784,"o":"m 521 53 q 492 48 509 50 q 458 45 474 46 l 458 0 l 784 0 l 784 45 q 751 50 766 46 q 722 60 736 53 q 693 83 702 68 q 684 122 684 98 l 684 1040 l 675 1050 l 620 1024 q 551 1044 590 1037 q 465 1051 511 1051 q 337 1022 395 1051 q 252 962 280 994 q 172 838 196 904 q 149 682 149 772 l 149 666 l 16 666 l 16 601 l 149 601 l 149 115 q 139 75 149 90 q 111 54 130 60 q 82 48 99 50 q 50 45 66 46 l 50 0 l 381 0 l 381 45 q 345 50 362 46 q 313 60 328 54 q 284 83 293 68 q 275 121 275 98 l 275 601 l 440 601 l 440 666 l 275 666 l 275 722 q 289 851 275 797 q 328 937 303 905 q 387 984 355 971 q 458 998 418 998 q 529 976 500 998 q 558 922 558 955 l 558 114 q 549 74 558 90 q 521 53 540 59 "},"":{"ha":656,"x_min":69,"x_max":586,"o":"m 586 404 q 572 440 586 428 q 535 452 557 452 q 468 440 517 452 q 345 419 418 427 q 354 487 347 456 q 363 553 361 518 l 363 575 q 354 641 361 610 q 345 709 347 673 q 462 689 406 703 q 535 676 518 676 q 572 689 557 676 q 586 724 586 701 q 572 761 586 750 q 535 772 557 772 q 468 759 517 772 q 345 736 418 745 q 365 861 352 804 q 378 936 378 918 q 366 972 378 958 q 329 987 354 987 q 292 972 305 987 q 279 936 279 958 q 291 864 279 919 q 311 736 302 809 q 185 759 233 746 q 120 772 138 772 q 83 761 98 772 q 69 724 69 749 q 83 688 69 701 q 120 676 98 676 q 191 689 138 676 q 311 709 244 703 q 301 642 309 673 q 292 575 294 610 l 292 553 q 301 487 294 518 q 311 419 308 456 q 188 440 235 427 q 120 452 140 452 q 83 440 98 452 q 69 404 69 427 q 83 367 69 378 q 120 356 98 356 q 186 369 138 356 q 311 392 235 382 q 291 263 302 313 q 279 193 279 214 q 293 156 279 170 q 329 142 306 142 q 367 156 355 142 q 378 193 378 170 q 365 268 378 211 q 345 392 351 325 q 462 371 406 385 q 535 356 518 356 q 572 368 557 356 q 586 404 586 379 "},"":{"ha":388,"x_min":102,"x_max":288,"o":"m 288 379 q 261 445 288 417 q 195 472 233 472 q 130 445 157 472 q 102 379 102 417 q 130 314 102 341 q 195 288 157 288 q 261 314 233 288 q 288 379 288 341 "},"":{"ha":315,"x_min":62,"x_max":263,"o":"m 263 22 q 238 122 263 84 q 155 161 213 161 q 96 136 118 161 q 75 83 75 111 q 98 23 75 45 q 165 1 122 1 l 197 1 q 184 -57 195 -35 q 155 -99 173 -79 q 116 -132 141 -115 q 62 -165 90 -149 l 85 -205 q 138 -173 105 -195 q 197 -123 170 -151 q 244 -59 224 -96 q 263 22 263 -22 "},"":{"ha":570,"x_min":64,"x_max":516,"o":"m 265 22 q 240 122 265 84 q 157 161 215 161 q 98 136 120 161 q 77 83 77 111 q 100 23 77 45 q 167 1 124 1 l 199 1 q 186 -57 197 -35 q 157 -99 175 -79 q 118 -132 143 -115 q 64 -165 92 -149 l 87 -205 q 140 -173 107 -195 q 199 -123 172 -151 q 245 -59 226 -96 q 265 22 265 -22 m 516 22 q 491 122 516 84 q 408 161 466 161 q 349 136 371 161 q 328 83 328 111 q 351 23 328 45 q 418 1 375 1 l 450 1 q 437 -57 448 -35 q 408 -99 426 -79 q 369 -132 394 -115 q 315 -165 343 -149 l 338 -205 q 391 -173 358 -195 q 450 -123 423 -151 q 496 -59 477 -96 q 516 22 516 -22 "},"":{"ha":1674,"x_min":74,"x_max":1600,"o":"m 534 734 q 471 916 534 847 q 304 985 408 985 q 137 916 199 985 q 74 734 74 847 q 138 549 74 615 q 304 484 202 484 q 470 549 406 484 q 534 734 534 615 m 420 734 q 390 589 420 644 q 304 534 361 534 q 218 589 247 534 q 189 734 189 644 q 217 879 189 823 q 304 935 246 935 q 391 879 361 935 q 420 734 420 823 m 1061 229 q 998 411 1061 342 q 831 480 935 480 q 664 411 726 480 q 601 229 601 342 q 665 44 601 110 q 831 -22 729 -22 q 997 44 932 -22 q 1061 229 1061 110 m 947 229 q 917 84 947 139 q 831 28 888 28 q 745 84 774 28 q 715 229 715 139 q 744 374 715 317 q 831 430 773 430 q 918 374 888 430 q 947 229 947 317 m 1017 966 l 921 966 l 123 0 l 217 0 l 1017 966 m 1600 229 q 1537 411 1600 342 q 1371 480 1474 480 q 1203 411 1265 480 q 1140 229 1140 342 q 1204 44 1140 110 q 1370 -22 1268 -22 q 1536 44 1472 -22 q 1600 229 1600 110 m 1486 229 q 1456 84 1486 139 q 1370 28 1427 28 q 1284 84 1313 28 q 1255 229 1255 139 q 1283 374 1255 317 q 1371 430 1312 430 q 1457 374 1428 430 q 1486 229 1486 317 "},"":{"ha":932,"x_min":-28,"x_max":964,"o":"m 964 0 l 964 48 q 922 55 947 49 q 881 71 897 62 q 845 103 858 87 q 822 146 832 119 l 501 976 l 447 976 q 291 574 378 800 q 131 167 203 348 q 102 112 117 132 q 60 73 87 92 q 16 56 43 62 q -28 48 -10 50 l -28 0 l 334 0 l 334 48 q 238 66 281 51 q 195 108 195 81 q 199 138 195 119 q 211 185 202 156 q 232 250 220 215 q 263 333 244 286 l 600 333 l 680 117 q 684 102 683 111 q 686 87 686 93 q 651 62 686 72 q 563 48 616 52 l 563 0 l 964 0 m 576 393 l 287 393 l 430 766 l 576 393 m 696 1044 l 536 1239 q 515 1259 526 1252 q 477 1267 505 1267 q 438 1259 450 1267 q 414 1236 426 1251 l 255 1044 l 288 1022 l 474 1166 l 663 1022 l 696 1044 "},"":{"ha":907,"x_min":58,"x_max":876,"o":"m 876 283 l 827 283 q 783 186 817 252 q 718 87 749 120 q 679 68 706 75 q 625 58 651 61 q 564 56 600 56 q 505 56 527 56 q 418 59 448 56 q 370 76 387 63 q 346 114 352 89 q 340 182 340 139 l 340 471 l 448 471 q 519 463 492 471 q 567 429 546 455 q 592 376 580 412 q 606 307 604 340 l 657 307 l 657 684 l 606 684 q 592 622 603 654 q 567 569 582 589 q 525 536 549 546 q 448 526 500 526 l 340 526 l 340 909 l 491 909 q 557 907 528 909 q 608 903 587 906 q 693 840 648 898 q 752 730 739 782 l 803 730 l 803 962 l 58 962 l 58 914 q 107 906 77 913 q 157 890 138 899 q 188 862 180 880 q 195 823 195 845 l 195 131 q 187 90 195 106 q 157 63 178 73 q 113 54 146 58 q 58 48 79 50 l 58 0 l 857 0 l 876 283 m 681 1044 l 521 1239 q 500 1259 511 1252 q 462 1267 490 1267 q 423 1259 435 1267 q 399 1236 411 1251 l 240 1044 l 273 1022 l 459 1166 l 648 1022 l 681 1044 "},"":{"ha":932,"x_min":-28,"x_max":964,"o":"m 964 0 l 964 48 q 922 55 947 49 q 881 71 897 62 q 845 103 858 87 q 822 146 832 119 l 501 976 l 447 976 q 291 574 378 800 q 131 167 203 348 q 102 112 117 132 q 60 73 87 92 q 16 56 43 62 q -28 48 -10 50 l -28 0 l 334 0 l 334 48 q 238 66 281 51 q 195 108 195 81 q 199 138 195 119 q 211 185 202 156 q 232 250 220 215 q 263 333 244 286 l 600 333 l 680 117 q 684 102 683 111 q 686 87 686 93 q 651 62 686 72 q 563 48 616 52 l 563 0 l 964 0 m 576 393 l 287 393 l 430 766 l 576 393 m 606 1136 q 650 1166 633 1149 q 668 1213 668 1183 q 650 1251 668 1236 q 606 1267 631 1267 q 567 1257 585 1267 q 528 1224 549 1247 q 451 1146 490 1184 q 350 1048 412 1107 l 371 1022 q 513 1091 450 1061 q 606 1136 576 1121 "},"":{"ha":907,"x_min":58,"x_max":876,"o":"m 876 283 l 827 283 q 783 186 817 252 q 718 87 749 120 q 679 68 706 75 q 625 58 651 61 q 564 56 600 56 q 505 56 527 56 q 418 59 448 56 q 370 76 387 63 q 346 114 352 89 q 340 182 340 139 l 340 471 l 448 471 q 519 463 492 471 q 567 429 546 455 q 592 376 580 412 q 606 307 604 340 l 657 307 l 657 684 l 606 684 q 592 622 603 654 q 567 569 582 589 q 525 536 549 546 q 448 526 500 526 l 340 526 l 340 909 l 491 909 q 557 907 528 909 q 608 903 587 906 q 693 840 648 898 q 752 730 739 782 l 803 730 l 803 962 l 58 962 l 58 914 q 107 906 77 913 q 157 890 138 899 q 188 862 180 880 q 195 823 195 845 l 195 131 q 187 90 195 106 q 157 63 178 73 q 113 54 146 58 q 58 48 79 50 l 58 0 l 857 0 l 876 283 m 699 1173 q 676 1232 699 1208 q 619 1257 652 1257 q 563 1232 586 1257 q 539 1173 539 1208 q 563 1114 539 1139 q 619 1090 586 1090 q 676 1114 652 1090 q 699 1173 699 1139 m 394 1173 q 371 1232 394 1208 q 314 1257 347 1257 q 257 1232 281 1257 q 234 1173 234 1208 q 257 1114 234 1139 q 314 1090 281 1090 q 371 1114 347 1090 q 394 1173 394 1139 "},"":{"ha":907,"x_min":58,"x_max":876,"o":"m 876 283 l 827 283 q 783 186 817 252 q 718 87 749 120 q 679 68 706 75 q 625 58 651 61 q 564 56 600 56 q 505 56 527 56 q 418 59 448 56 q 370 76 387 63 q 346 114 352 89 q 340 182 340 139 l 340 471 l 448 471 q 519 463 492 471 q 567 429 546 455 q 592 376 580 412 q 606 307 604 340 l 657 307 l 657 684 l 606 684 q 592 622 603 654 q 567 569 582 589 q 525 536 549 546 q 448 526 500 526 l 340 526 l 340 909 l 491 909 q 557 907 528 909 q 608 903 587 906 q 693 840 648 898 q 752 730 739 782 l 803 730 l 803 962 l 58 962 l 58 914 q 107 906 77 913 q 157 890 138 899 q 188 862 180 880 q 195 823 195 845 l 195 131 q 187 90 195 106 q 157 63 178 73 q 113 54 146 58 q 58 48 79 50 l 58 0 l 857 0 l 876 283 m 574 1048 q 466 1153 505 1114 q 396 1224 427 1192 q 356 1258 373 1249 q 318 1267 338 1267 q 273 1252 290 1267 q 256 1213 256 1236 q 270 1169 256 1185 q 318 1136 285 1153 q 411 1091 348 1121 q 553 1022 473 1061 l 574 1048 "},"":{"ha":541,"x_min":54,"x_max":487,"o":"m 487 0 l 487 48 q 432 55 465 49 q 386 67 400 62 q 352 95 362 77 q 342 134 342 112 l 342 831 q 351 871 342 853 q 386 898 360 890 q 437 909 408 905 q 487 914 466 913 l 487 962 l 54 962 l 54 914 q 104 906 73 913 q 155 890 135 899 q 191 864 183 880 q 198 824 198 848 l 198 127 q 188 84 198 100 q 155 60 178 69 q 106 52 141 55 q 54 48 72 50 l 54 0 l 487 0 m 369 1136 q 414 1166 396 1149 q 431 1213 431 1183 q 413 1251 431 1236 q 369 1267 395 1267 q 331 1257 349 1267 q 291 1224 313 1247 q 214 1146 253 1184 q 113 1048 175 1107 l 134 1022 q 276 1091 214 1061 q 369 1136 339 1121 "},"":{"ha":541,"x_min":50,"x_max":491,"o":"m 487 0 l 487 48 q 432 55 465 49 q 386 67 400 62 q 352 95 362 77 q 342 134 342 112 l 342 831 q 351 871 342 853 q 386 898 360 890 q 437 909 408 905 q 487 914 466 913 l 487 962 l 54 962 l 54 914 q 104 906 73 913 q 155 890 135 899 q 191 864 183 880 q 198 824 198 848 l 198 127 q 188 84 198 100 q 155 60 178 69 q 106 52 141 55 q 54 48 72 50 l 54 0 l 487 0 m 491 1044 l 331 1239 q 310 1259 321 1252 q 272 1267 300 1267 q 233 1259 245 1267 q 209 1236 221 1251 l 50 1044 l 83 1022 l 269 1166 l 458 1022 l 491 1044 "},"":{"ha":541,"x_min":45,"x_max":496,"o":"m 487 0 l 487 48 q 432 55 465 49 q 386 67 400 62 q 352 95 362 77 q 342 134 342 112 l 342 831 q 351 871 342 853 q 386 898 360 890 q 437 909 408 905 q 487 914 466 913 l 487 962 l 54 962 l 54 914 q 104 906 73 913 q 155 890 135 899 q 191 864 183 880 q 198 824 198 848 l 198 127 q 188 84 198 100 q 155 60 178 69 q 106 52 141 55 q 54 48 72 50 l 54 0 l 487 0 m 496 1173 q 473 1232 496 1208 q 416 1257 450 1257 q 360 1232 383 1257 q 336 1173 336 1208 q 360 1114 336 1139 q 416 1090 383 1090 q 473 1114 450 1090 q 496 1173 496 1139 m 205 1173 q 181 1232 205 1208 q 125 1257 158 1257 q 68 1232 92 1257 q 45 1173 45 1208 q 68 1114 45 1139 q 125 1090 92 1090 q 181 1114 158 1090 q 205 1173 205 1139 "},"":{"ha":541,"x_min":54,"x_max":487,"o":"m 487 0 l 487 48 q 432 55 465 49 q 386 67 400 62 q 352 95 362 77 q 342 134 342 112 l 342 831 q 351 871 342 853 q 386 898 360 890 q 437 909 408 905 q 487 914 466 913 l 487 962 l 54 962 l 54 914 q 104 906 73 913 q 155 890 135 899 q 191 864 183 880 q 198 824 198 848 l 198 127 q 188 84 198 100 q 155 60 178 69 q 106 52 141 55 q 54 48 72 50 l 54 0 l 487 0 m 457 1048 q 350 1153 389 1114 q 279 1224 311 1192 q 239 1258 256 1249 q 201 1267 222 1267 q 156 1252 173 1267 q 139 1213 139 1236 q 154 1169 139 1185 q 201 1136 168 1153 q 294 1091 231 1121 q 436 1022 357 1061 l 457 1048 "},"":{"ha":1034,"x_min":54,"x_max":979,"o":"m 844 848 q 697 949 782 913 q 517 985 612 985 q 340 950 425 985 q 192 848 256 915 q 91 689 127 781 q 54 480 54 597 q 89 279 54 373 q 185 119 124 185 q 331 15 246 52 q 517 -23 416 -23 q 694 12 611 -23 q 841 113 778 47 q 943 272 906 178 q 979 480 979 366 q 943 688 979 594 q 844 848 907 782 m 743 166 q 648 71 706 105 q 517 37 589 37 q 384 71 439 37 q 292 164 328 104 q 236 304 254 225 q 218 480 218 382 q 235 648 218 568 q 286 788 252 728 q 378 888 321 850 q 517 925 435 925 q 646 893 589 925 q 739 803 702 861 q 796 662 777 745 q 815 480 815 579 q 798 306 815 384 q 743 166 781 228 m 619 1136 q 664 1166 646 1149 q 682 1213 682 1183 q 663 1251 682 1236 q 619 1267 645 1267 q 581 1257 599 1267 q 541 1224 563 1247 q 464 1146 503 1184 q 363 1048 425 1107 l 385 1022 q 527 1091 464 1061 q 619 1136 589 1121 "},"":{"ha":1034,"x_min":54,"x_max":979,"o":"m 844 848 q 697 949 782 913 q 517 985 612 985 q 340 950 425 985 q 192 848 256 915 q 91 689 127 781 q 54 480 54 597 q 89 279 54 373 q 185 119 124 185 q 331 15 246 52 q 517 -23 416 -23 q 694 12 611 -23 q 841 113 778 47 q 943 272 906 178 q 979 480 979 366 q 943 688 979 594 q 844 848 907 782 m 743 166 q 648 71 706 105 q 517 37 589 37 q 384 71 439 37 q 292 164 328 104 q 236 304 254 225 q 218 480 218 382 q 235 648 218 568 q 286 788 252 728 q 378 888 321 850 q 517 925 435 925 q 646 893 589 925 q 739 803 702 861 q 796 662 777 745 q 815 480 815 579 q 798 306 815 384 q 743 166 781 228 m 737 1044 l 577 1239 q 556 1259 567 1252 q 518 1267 546 1267 q 479 1259 491 1267 q 455 1236 467 1251 l 296 1044 l 329 1022 l 515 1166 l 705 1022 l 737 1044 "},"":{"ha":1034,"x_min":54,"x_max":979,"o":"m 844 848 q 697 949 782 913 q 517 985 612 985 q 340 950 425 985 q 192 848 256 915 q 91 689 127 781 q 54 480 54 597 q 89 279 54 373 q 185 119 124 185 q 331 15 246 52 q 517 -23 416 -23 q 694 12 611 -23 q 841 113 778 47 q 943 272 906 178 q 979 480 979 366 q 943 688 979 594 q 844 848 907 782 m 743 166 q 648 71 706 105 q 517 37 589 37 q 384 71 439 37 q 292 164 328 104 q 236 304 254 225 q 218 480 218 382 q 235 648 218 568 q 286 788 252 728 q 378 888 321 850 q 517 925 435 925 q 646 893 589 925 q 739 803 702 861 q 796 662 777 745 q 815 480 815 579 q 798 306 815 384 q 743 166 781 228 m 699 1048 q 592 1153 631 1114 q 522 1224 553 1192 q 481 1258 498 1249 q 444 1267 464 1267 q 398 1252 415 1267 q 381 1213 381 1236 q 396 1169 381 1185 q 444 1136 410 1153 q 536 1091 473 1121 q 678 1022 599 1061 l 699 1048 "},"":{"ha":1050,"x_min":50,"x_max":1040,"o":"m 1040 914 l 1040 962 l 646 962 l 646 914 q 709 903 668 913 q 774 877 750 894 q 806 814 795 862 q 817 691 817 766 l 817 296 q 805 216 817 256 q 766 139 793 176 q 686 77 736 100 q 561 53 635 53 q 436 77 481 53 q 364 138 391 100 q 331 217 339 174 q 322 298 322 259 l 322 829 q 330 871 322 852 q 361 898 338 890 q 403 908 374 903 q 451 914 432 913 l 451 962 l 50 962 l 50 914 q 94 907 67 913 q 137 892 120 901 q 169 862 161 878 q 176 823 176 846 l 176 254 q 199 150 176 199 q 268 61 222 100 q 382 0 314 22 q 536 -23 450 -23 q 650 -7 591 -23 q 763 45 709 9 q 850 142 817 83 q 884 281 884 201 l 884 700 q 892 819 884 770 q 924 884 901 868 q 984 906 947 899 q 1040 914 1021 913 m 651 1136 q 696 1166 678 1149 q 713 1213 713 1183 q 695 1251 713 1236 q 651 1267 677 1267 q 613 1257 631 1267 q 573 1224 595 1247 q 496 1146 535 1184 q 395 1048 457 1107 l 416 1022 q 558 1091 496 1061 q 651 1136 621 1121 "},"":{"ha":1050,"x_min":50,"x_max":1040,"o":"m 1040 914 l 1040 962 l 646 962 l 646 914 q 709 903 668 913 q 774 877 750 894 q 806 814 795 862 q 817 691 817 766 l 817 296 q 805 216 817 256 q 766 139 793 176 q 686 77 736 100 q 561 53 635 53 q 436 77 481 53 q 364 138 391 100 q 331 217 339 174 q 322 298 322 259 l 322 829 q 330 871 322 852 q 361 898 338 890 q 403 908 374 903 q 451 914 432 913 l 451 962 l 50 962 l 50 914 q 94 907 67 913 q 137 892 120 901 q 169 862 161 878 q 176 823 176 846 l 176 254 q 199 150 176 199 q 268 61 222 100 q 382 0 314 22 q 536 -23 450 -23 q 650 -7 591 -23 q 763 45 709 9 q 850 142 817 83 q 884 281 884 201 l 884 700 q 892 819 884 770 q 924 884 901 868 q 984 906 947 899 q 1040 914 1021 913 m 770 1044 l 610 1239 q 589 1259 600 1252 q 551 1267 578 1267 q 512 1259 524 1267 q 488 1236 500 1251 l 329 1044 l 361 1022 l 548 1166 l 737 1022 l 770 1044 "},"":{"ha":1050,"x_min":50,"x_max":1040,"o":"m 1040 914 l 1040 962 l 646 962 l 646 914 q 709 903 668 913 q 774 877 750 894 q 806 814 795 862 q 817 691 817 766 l 817 296 q 805 216 817 256 q 766 139 793 176 q 686 77 736 100 q 561 53 635 53 q 436 77 481 53 q 364 138 391 100 q 331 217 339 174 q 322 298 322 259 l 322 829 q 330 871 322 852 q 361 898 338 890 q 403 908 374 903 q 451 914 432 913 l 451 962 l 50 962 l 50 914 q 94 907 67 913 q 137 892 120 901 q 169 862 161 878 q 176 823 176 846 l 176 254 q 199 150 176 199 q 268 61 222 100 q 382 0 314 22 q 536 -23 450 -23 q 650 -7 591 -23 q 763 45 709 9 q 850 142 817 83 q 884 281 884 201 l 884 700 q 892 819 884 770 q 924 884 901 868 q 984 906 947 899 q 1040 914 1021 913 m 692 1048 q 585 1153 624 1114 q 515 1224 546 1192 q 474 1258 492 1249 q 437 1267 457 1267 q 391 1252 408 1267 q 374 1213 374 1236 q 389 1169 374 1185 q 437 1136 404 1153 q 529 1091 467 1121 q 671 1022 592 1061 l 692 1048 "},"":{"ha":407,"x_min":29,"x_max":374,"o":"m 374 0 l 374 45 q 342 50 356 46 q 313 60 328 54 q 284 83 293 67 q 275 122 275 98 l 275 667 l 265 677 l 29 662 l 29 618 q 74 611 50 616 q 111 597 98 605 q 139 567 129 585 q 149 527 149 549 l 149 114 q 139 74 149 90 q 111 53 130 59 q 82 47 99 49 q 50 45 66 46 l 50 0 l 374 0 "},"":{"ha":694,"x_min":127,"x_max":568,"o":"m 568 780 l 406 1018 q 386 1039 396 1031 q 349 1046 376 1046 q 310 1039 320 1046 q 288 1015 299 1032 l 127 780 l 159 758 l 346 943 l 535 758 l 568 780 "},"":{"ha":694,"x_min":88,"x_max":606,"o":"m 606 995 l 565 1010 q 548 972 555 987 q 530 944 541 957 q 504 926 520 932 q 460 920 487 920 q 416 930 434 920 q 373 954 399 940 q 322 978 350 967 q 257 989 295 989 q 196 972 225 989 q 146 930 167 955 q 111 877 127 907 q 88 825 95 846 l 127 808 q 148 844 137 824 q 170 876 159 864 q 192 895 181 889 q 223 900 202 900 q 270 889 249 900 q 315 865 292 878 q 366 841 336 852 q 433 830 395 830 q 497 846 471 830 q 549 888 524 862 q 586 942 572 915 q 606 995 600 969 "},"":{"ha":694,"x_min":115,"x_max":580,"o":"m 580 876 l 580 962 l 115 962 l 115 876 l 580 876 "},"":{"ha":694,"x_min":135,"x_max":559,"o":"m 559 1014 l 522 1022 q 499 960 512 988 q 466 910 486 931 q 417 878 446 889 q 347 866 389 866 q 275 878 302 866 q 227 911 248 890 q 195 961 209 932 q 172 1022 182 990 l 135 1014 q 205 828 152 892 q 347 764 258 764 q 488 825 435 764 q 559 1014 541 886 "},"":{"ha":694,"x_min":260,"x_max":434,"o":"m 434 941 q 409 1001 434 975 q 346 1026 385 1026 q 286 999 311 1026 q 260 935 260 972 q 286 872 260 899 q 346 846 311 846 q 409 874 383 846 q 434 941 434 902 "},"":{"ha":694,"x_min":172,"x_max":522,"o":"m 522 907 q 473 1016 522 975 q 347 1057 423 1057 q 223 1015 274 1057 q 172 907 172 973 q 220 797 172 838 q 347 755 268 755 q 474 798 426 755 q 522 907 522 840 m 437 907 q 414 829 437 859 q 347 799 391 799 q 281 829 304 799 q 258 907 258 860 q 281 985 258 956 q 347 1014 304 1014 q 414 983 391 1014 q 437 907 437 953 "},"":{"ha":694,"x_min":208,"x_max":479,"o":"m 427 -87 q 378 -71 402 -75 q 323 -67 353 -67 l 323 12 l 269 12 l 269 -140 q 344 -149 307 -140 q 381 -191 381 -158 q 366 -227 381 -214 q 324 -245 351 -239 q 269 -252 301 -251 q 208 -252 236 -252 l 208 -301 q 314 -296 269 -301 q 397 -277 359 -290 q 457 -235 435 -262 q 479 -168 479 -208 q 465 -118 479 -138 q 427 -87 450 -98 "},"":{"ha":694,"x_min":131,"x_max":628,"o":"m 628 990 q 612 1026 628 1010 q 572 1043 596 1043 q 532 1029 548 1043 q 496 981 515 1015 q 448 897 476 944 q 372 772 420 849 l 396 753 q 511 850 465 810 q 585 913 557 890 q 617 948 607 932 q 628 990 628 964 m 376 989 q 360 1026 376 1009 q 321 1043 344 1043 q 279 1029 296 1043 q 246 981 263 1015 q 207 904 231 949 q 131 772 182 859 l 156 753 q 270 854 227 814 q 336 913 313 894 q 367 950 359 935 q 376 989 376 966 "},"":{"ha":694,"x_min":208,"x_max":467,"o":"m 467 -301 l 467 -252 q 393 -245 423 -253 q 345 -223 363 -238 q 321 -190 328 -209 q 315 -147 315 -172 q 341 -47 315 -88 q 409 26 368 -5 l 368 26 q 247 -71 286 -21 q 208 -170 208 -121 q 255 -266 208 -230 q 389 -301 302 -301 l 467 -301 "},"":{"ha":694,"x_min":127,"x_max":568,"o":"m 568 1024 l 535 1046 l 346 861 l 159 1046 l 127 1024 l 288 789 q 308 766 298 773 q 349 758 318 758 q 386 765 378 758 q 406 786 394 771 l 568 1024 "},"":{"ha":838,"x_min":61,"x_max":839,"o":"m 839 286 l 791 286 q 740 183 777 247 q 675 89 703 120 q 645 71 665 78 q 602 60 625 64 q 550 54 577 56 q 498 53 523 53 q 411 57 442 53 q 365 73 380 60 q 344 111 349 86 q 340 180 340 136 l 340 479 l 547 564 l 524 623 l 340 547 l 340 827 q 348 869 340 849 q 380 897 357 888 q 424 907 393 901 q 473 914 454 913 l 473 962 l 66 962 l 66 914 q 113 905 85 913 q 157 889 141 897 q 188 861 180 878 q 195 820 195 843 l 195 492 l 61 437 l 85 378 l 195 424 l 195 131 q 186 87 195 104 q 157 62 177 71 q 114 53 144 56 q 66 48 83 50 l 66 0 l 819 0 l 839 286 "},"":{"ha":397,"x_min":1,"x_max":379,"o":"m 379 514 l 356 569 l 262 529 l 262 1040 l 253 1050 l 1 1034 l 1 991 q 54 983 21 989 q 98 968 86 976 q 126 934 115 956 q 136 888 136 913 l 136 481 l 20 433 l 43 378 l 136 418 l 136 114 q 127 74 136 90 q 98 53 117 59 q 69 48 87 50 q 36 45 52 46 l 36 0 l 362 0 l 362 45 q 329 50 344 46 q 300 60 315 53 q 271 83 280 68 q 262 122 262 98 l 262 466 l 379 514 "},"":{"ha":779,"x_min":64,"x_max":725,"o":"m 665 441 q 600 494 637 471 q 522 534 562 516 q 429 571 477 553 q 332 612 381 588 q 247 679 276 638 q 218 783 218 720 q 263 884 218 842 q 373 925 309 925 q 476 902 434 925 q 547 839 518 878 q 596 748 577 798 q 629 643 614 698 l 684 643 l 679 962 l 625 962 l 597 916 q 501 964 553 943 q 382 984 448 984 q 270 964 323 984 q 177 909 216 944 q 113 824 136 871 q 91 722 91 777 q 136 567 91 626 q 262 471 181 507 q 361 430 304 452 q 462 391 418 409 q 559 316 526 366 q 591 208 591 266 q 581 139 591 169 q 549 86 570 109 q 492 52 527 64 q 410 39 457 39 q 301 63 348 39 q 218 127 254 87 q 158 219 181 170 q 119 329 136 268 l 64 329 l 73 -1 l 127 -1 l 157 49 q 268 0 203 20 q 397 -20 332 -20 q 631 63 536 -20 q 725 273 725 146 q 710 367 725 327 q 665 441 696 408 m 616 1245 l 583 1267 l 397 1122 l 208 1267 l 175 1245 l 335 1050 q 356 1029 345 1037 q 394 1022 366 1022 q 435 1028 427 1022 q 457 1053 443 1035 l 616 1245 "},"":{"ha":600,"x_min":50,"x_max":548,"o":"m 490 328 q 425 370 465 351 q 340 403 385 389 q 264 430 295 418 q 213 455 233 441 q 181 490 192 469 q 171 541 171 510 q 203 608 171 580 q 290 635 235 635 q 405 590 358 635 q 467 473 452 545 l 513 473 l 503 688 l 454 688 l 439 653 q 372 677 413 667 q 292 688 331 688 q 128 631 189 688 q 67 492 67 574 q 86 410 67 445 q 135 352 105 376 q 202 313 163 330 q 273 287 241 296 q 345 262 313 275 q 400 234 378 250 q 433 198 422 218 q 444 149 444 177 q 409 64 444 94 q 309 35 374 35 q 225 55 262 35 q 162 105 189 75 q 119 169 137 134 q 96 231 102 204 l 50 231 l 56 -2 l 107 -2 l 121 42 q 191 3 142 24 q 298 -18 240 -18 q 478 41 409 -18 q 548 193 548 100 q 533 271 548 239 q 490 328 518 303 m 526 1024 l 493 1046 l 304 861 l 117 1046 l 85 1024 l 245 789 q 266 766 256 773 q 307 758 276 758 q 344 765 336 758 q 363 786 352 771 l 526 1024 "},"":{"ha":836,"x_min":18,"x_max":823,"o":"m 823 300 l 776 300 q 720 193 758 254 q 637 90 682 132 q 553 62 618 70 q 430 54 488 54 l 201 54 l 807 939 l 807 962 l 86 962 l 57 690 l 104 690 q 189 828 133 763 q 290 902 245 893 q 337 907 311 906 q 402 909 363 909 l 624 909 l 18 24 l 18 0 l 791 0 l 823 300 m 646 1245 l 614 1267 l 427 1122 l 238 1267 l 205 1245 l 366 1050 q 386 1029 376 1037 q 425 1022 397 1022 q 466 1028 458 1022 q 488 1053 473 1035 l 646 1245 "},"":{"ha":616,"x_min":37,"x_max":578,"o":"m 578 0 l 578 236 l 538 236 q 519 169 530 203 q 501 115 509 134 q 480 76 494 93 q 439 58 466 59 q 363 54 393 55 q 307 54 334 54 q 243 54 273 54 q 190 55 214 54 l 574 641 l 574 669 l 63 669 l 63 463 l 104 463 q 133 555 117 520 q 169 598 150 591 q 230 612 197 610 q 322 614 263 614 l 416 614 l 37 36 l 37 0 l 578 0 m 530 1024 l 498 1046 l 309 861 l 122 1046 l 90 1024 l 250 789 q 271 766 261 773 q 311 758 281 758 q 349 765 340 758 q 368 786 357 771 l 530 1024 "},"":{"ha":521,"x_min":218,"x_max":304,"o":"m 304 490 l 304 1033 l 218 1033 l 218 490 l 304 490 m 304 -288 l 304 262 l 218 262 l 218 -288 l 304 -288 "},"":{"ha":1040,"x_min":64,"x_max":988,"o":"m 988 475 q 940 705 988 608 q 807 863 892 803 q 661 936 745 909 q 490 962 576 962 l 69 962 l 69 914 q 111 908 87 913 q 157 893 136 903 q 188 864 180 882 q 195 823 195 846 l 195 542 l 69 542 l 69 475 l 195 475 l 195 128 q 186 86 195 104 q 157 60 177 69 q 115 52 146 56 q 64 48 83 48 l 64 0 l 463 0 q 654 28 562 0 q 822 115 747 57 q 942 262 896 172 q 988 475 988 353 m 822 476 q 803 303 822 378 q 741 171 783 228 q 637 86 701 117 q 486 56 572 56 q 376 79 412 56 q 340 165 340 103 l 340 475 l 544 475 l 544 542 l 340 542 l 340 905 q 392 906 357 905 q 454 907 427 907 q 606 876 538 907 q 721 788 674 844 q 796 651 770 730 q 822 476 822 573 "},"":{"ha":739,"x_min":47,"x_max":688,"o":"m 688 414 q 640 692 688 572 q 500 911 593 812 l 629 985 l 594 1038 l 456 955 q 387 1010 430 980 q 312 1055 343 1040 l 278 1017 q 339 971 309 996 q 391 918 370 945 l 236 829 l 270 777 l 427 870 q 501 736 467 811 q 545 575 534 662 l 539 574 q 468 639 516 610 q 355 668 419 668 q 134 574 220 668 q 47 330 47 479 q 74 180 47 246 q 144 70 100 115 q 244 2 189 24 q 361 -21 300 -21 q 601 97 514 -21 q 688 414 688 215 m 506 129 q 451 58 486 85 q 368 31 416 31 q 235 107 283 31 q 188 338 188 184 q 197 441 188 391 q 226 527 207 492 q 282 590 248 566 q 370 614 317 614 q 498 541 451 614 q 546 347 546 467 q 536 228 546 284 q 506 129 526 172 "},"":{"ha":854,"x_min":-30,"x_max":891,"o":"m 891 914 l 891 962 l 557 962 l 557 914 q 600 910 576 912 q 642 903 623 909 q 673 888 661 898 q 684 863 684 879 q 628 748 684 844 q 466 481 572 652 q 379 637 412 577 q 314 758 346 697 q 291 801 303 779 q 270 842 279 824 q 258 867 262 857 q 254 882 254 878 q 283 905 254 897 q 380 914 311 913 l 380 962 l -30 962 l -30 914 q 11 907 -12 913 q 50 892 34 902 q 90 857 73 877 q 130 799 107 838 q 216 642 166 734 q 306 472 265 551 q 337 408 324 437 q 351 368 351 379 l 351 134 q 341 91 351 109 q 308 63 332 73 q 255 53 293 57 q 198 48 217 50 l 198 0 l 648 0 l 648 48 q 589 57 626 49 q 538 70 553 64 q 505 99 515 81 q 495 141 495 117 l 495 325 q 503 401 495 375 q 536 471 511 428 q 648 666 604 589 q 746 817 693 743 q 783 863 773 854 q 819 888 792 872 q 854 905 829 897 q 891 914 880 913 m 591 1136 q 635 1166 618 1149 q 653 1213 653 1183 q 635 1251 653 1236 q 591 1267 616 1267 q 552 1257 570 1267 q 513 1224 534 1247 q 436 1146 475 1184 q 335 1048 397 1107 l 356 1022 q 498 1091 435 1061 q 591 1136 561 1121 "},"":{"ha":684,"x_min":-13,"x_max":704,"o":"m -2 -218 q 28 -276 -2 -251 q 111 -301 58 -301 q 164 -291 138 -301 q 220 -253 189 -281 q 286 -169 252 -222 q 362 -21 319 -116 q 457 205 395 52 q 601 547 520 359 q 650 603 617 583 q 704 627 684 623 l 704 669 l 456 669 l 456 625 q 514 607 484 622 q 545 574 545 591 q 536 535 545 557 q 523 499 528 512 q 449 316 482 393 q 386 165 416 238 q 304 368 357 241 q 225 562 251 494 q 218 581 221 572 q 215 595 215 591 q 243 613 215 605 q 292 621 272 621 l 292 669 l -13 669 l -13 624 q 48 602 18 619 q 92 553 79 585 q 201 291 149 418 q 317 3 253 164 q 249 -132 296 -55 q 168 -228 202 -210 q 150 -199 161 -216 q 128 -171 138 -181 q 100 -150 116 -158 q 63 -142 85 -142 q 17 -163 35 -142 q -2 -218 -2 -184 m 515 990 q 499 1026 515 1010 q 459 1043 484 1043 q 414 1030 433 1043 q 373 983 394 1018 q 321 902 345 939 q 236 774 297 865 l 262 753 q 379 844 325 802 q 468 913 434 886 q 503 948 491 932 q 515 990 515 964 "},"":{"ha":853,"x_min":65,"x_max":806,"o":"m 806 513 q 723 698 806 628 q 511 768 639 768 l 340 768 l 340 831 q 348 872 340 854 q 379 898 356 890 q 421 908 393 903 q 470 914 450 913 l 470 962 l 65 962 l 65 914 q 111 906 85 913 q 157 890 137 899 q 188 863 180 880 q 195 824 195 846 l 195 131 q 186 87 195 104 q 157 62 177 71 q 114 53 144 56 q 66 48 83 50 l 66 0 l 477 0 l 477 48 q 421 53 452 49 q 379 62 391 57 q 347 89 355 71 q 340 131 340 107 l 340 219 l 454 219 q 587 236 525 219 q 698 288 649 254 q 777 380 747 323 q 806 513 806 436 m 601 359 q 532 302 578 325 q 414 279 487 279 l 340 279 l 340 711 l 435 711 q 532 693 493 711 q 596 643 571 675 q 629 572 619 612 q 638 492 638 531 q 631 428 638 463 q 601 359 624 393 "},"":{"ha":777,"x_min":-13,"x_max":727,"o":"m 643 589 q 554 660 606 633 q 439 687 502 687 q 336 660 388 687 q 248 592 283 633 l 244 595 l 244 1040 l 235 1050 l -13 1034 l -13 991 q 37 985 6 989 q 80 973 68 981 q 106 938 97 962 q 118 892 116 914 l 118 -182 q 110 -222 118 -205 q 81 -245 102 -239 q 46 -253 66 -251 q 5 -256 26 -254 l 5 -301 l 379 -301 l 379 -256 q 329 -249 359 -255 q 283 -237 298 -243 q 254 -214 263 -230 q 244 -173 244 -197 l 244 28 l 250 28 q 313 -4 274 9 q 412 -18 351 -18 q 530 7 474 -18 q 631 79 585 33 q 701 191 675 125 q 727 336 727 256 q 705 479 727 416 q 643 589 683 542 m 585 330 q 572 206 585 262 q 532 109 559 151 q 473 52 509 72 q 400 32 438 32 q 340 42 365 32 q 295 70 316 53 q 264 104 278 84 q 244 142 250 123 l 244 537 q 305 590 270 568 q 391 612 340 612 q 480 587 443 612 q 541 524 517 563 q 574 433 564 485 q 585 330 585 380 "},"":{"ha":893,"x_min":101,"x_max":792,"o":"m 792 337 l 792 422 l 101 422 l 101 337 l 792 337 "},"":{"ha":893,"x_min":141,"x_max":751,"o":"m 751 135 l 505 380 l 751 625 l 692 685 l 446 439 l 201 684 l 141 625 l 388 380 l 141 134 l 201 74 l 446 321 l 691 75 l 751 135 "},"":{"ha":694,"x_min":149,"x_max":535,"o":"m 535 332 l 535 380 q 480 385 513 380 q 433 394 446 389 q 412 412 420 400 q 404 440 404 425 l 404 819 q 406 899 404 848 q 409 980 408 949 l 359 980 q 290 935 336 954 q 191 916 244 916 l 149 916 l 149 863 l 290 863 l 290 435 q 281 406 290 417 q 259 391 273 395 q 209 384 245 386 q 152 380 172 381 l 152 332 l 535 332 "},"":{"ha":694,"x_min":100,"x_max":610,"o":"m 610 332 l 610 430 l 189 430 q 291 503 229 467 q 397 559 353 538 q 465 596 432 576 q 524 644 498 616 q 565 708 549 671 q 580 797 580 746 q 513 934 580 883 q 339 985 446 985 q 175 937 245 985 q 104 827 104 889 q 118 780 104 801 q 164 758 132 758 q 219 774 200 758 q 237 810 237 789 q 232 853 237 833 q 223 890 227 874 q 263 921 235 908 q 329 935 290 935 q 416 901 383 935 q 450 802 450 867 q 439 727 450 757 q 408 671 429 698 q 364 625 393 650 q 311 585 335 600 q 180 494 235 537 q 100 408 126 452 l 100 332 l 610 332 "},"":{"ha":694,"x_min":86,"x_max":597,"o":"m 539 629 q 484 657 517 646 q 422 671 450 669 l 422 677 q 494 708 467 690 q 538 745 522 726 q 561 788 553 764 q 568 833 568 812 q 559 876 568 850 q 526 927 551 902 q 457 969 500 953 q 350 985 413 985 q 250 971 298 985 q 174 936 201 956 q 127 888 142 913 q 113 839 113 864 q 126 795 113 814 q 172 776 140 776 q 225 791 205 776 q 244 824 244 806 q 239 862 244 840 q 231 897 235 885 q 272 926 247 916 q 328 937 297 937 q 409 908 381 937 q 437 831 437 880 q 407 730 437 763 q 307 696 377 696 l 256 696 l 256 633 l 328 633 q 398 623 370 633 q 440 597 425 614 q 461 558 455 581 q 467 512 467 536 q 425 397 467 436 q 315 358 383 358 q 248 369 279 358 q 201 394 218 380 q 210 428 205 408 q 215 463 215 448 q 197 497 215 481 q 143 512 178 512 q 102 493 118 512 q 86 444 86 475 q 153 348 86 387 q 311 309 219 309 q 519 366 441 309 q 597 509 597 424 q 581 581 597 551 q 539 629 564 610 "},"":{"ha":1458,"x_min":89,"x_max":1386,"o":"m 475 332 l 475 380 q 419 385 453 380 q 373 394 386 389 q 352 412 359 400 q 344 440 344 425 l 344 819 q 346 899 344 848 q 349 980 347 949 l 299 980 q 230 935 276 954 q 131 916 184 916 l 89 916 l 89 863 l 229 863 l 229 435 q 221 406 229 417 q 199 391 212 395 q 149 384 185 386 q 92 380 112 381 l 92 332 l 475 332 m 975 962 l 882 962 l 382 0 l 473 0 l 975 962 m 1386 0 l 1386 98 l 965 98 q 1067 170 1005 135 q 1173 227 1129 205 q 1241 264 1208 243 q 1300 312 1274 284 q 1340 376 1325 338 q 1356 465 1356 414 q 1289 602 1356 551 q 1115 653 1221 653 q 950 605 1021 653 q 880 495 880 557 q 893 447 880 469 q 940 426 907 426 q 995 441 976 426 q 1013 478 1013 457 q 1008 521 1013 500 q 999 558 1003 542 q 1039 589 1011 576 q 1105 602 1066 602 q 1192 568 1159 602 q 1225 469 1225 534 q 1215 395 1225 425 q 1184 338 1204 366 q 1140 293 1168 317 q 1087 253 1111 268 q 956 162 1010 205 q 876 75 902 119 l 876 0 l 1386 0 "},"":{"ha":1458,"x_min":89,"x_max":1348,"o":"m 475 332 l 475 380 q 419 385 453 380 q 373 394 386 389 q 352 412 359 400 q 344 440 344 425 l 344 819 q 346 899 344 848 q 349 980 347 949 l 299 980 q 230 935 276 954 q 131 916 184 916 l 89 916 l 89 863 l 229 863 l 229 435 q 221 406 229 417 q 199 391 212 395 q 149 384 185 386 q 92 380 112 381 l 92 332 l 475 332 m 981 962 l 888 962 l 389 0 l 480 0 l 981 962 m 1348 144 l 1348 218 l 1240 218 l 1240 652 l 1160 652 l 792 229 l 792 144 l 1128 144 l 1128 -14 l 1240 -14 l 1240 144 l 1348 144 m 1128 218 l 861 218 l 1128 525 l 1128 218 "},"":{"ha":1458,"x_min":79,"x_max":1409,"o":"m 532 629 q 477 657 510 646 q 416 671 444 669 l 416 677 q 487 708 460 690 q 531 745 515 726 q 554 788 547 764 q 561 833 561 812 q 552 876 561 850 q 519 927 544 902 q 450 969 494 953 q 343 985 406 985 q 243 971 291 985 q 168 936 195 956 q 121 888 136 913 q 106 839 106 864 q 120 795 106 814 q 165 776 134 776 q 218 791 199 776 q 237 824 237 806 q 233 862 237 840 q 224 897 228 885 q 265 926 240 916 q 321 937 290 937 q 402 908 374 937 q 431 831 431 880 q 400 730 431 763 q 300 696 370 696 l 249 696 l 249 633 l 321 633 q 391 623 363 633 q 433 597 418 614 q 454 558 448 581 q 460 512 460 536 q 418 397 460 436 q 308 358 376 358 q 241 369 272 358 q 194 394 211 380 q 203 428 198 408 q 208 463 208 448 q 190 497 208 481 q 136 512 172 512 q 95 493 111 512 q 79 444 79 475 q 146 348 79 387 q 304 309 212 309 q 512 366 434 309 q 590 509 590 424 q 574 581 590 551 q 532 629 557 610 m 1084 962 l 991 962 l 492 0 l 583 0 l 1084 962 m 1409 144 l 1409 218 l 1301 218 l 1301 652 l 1221 652 l 853 229 l 853 144 l 1189 144 l 1189 -14 l 1301 -14 l 1301 144 l 1409 144 m 1189 218 l 922 218 l 1189 525 l 1189 218 "},"":{"ha":864,"x_min":71,"x_max":811,"o":"m 811 722 l 811 962 l 71 962 l 71 914 q 120 906 90 913 q 170 890 151 899 q 201 862 193 880 q 208 823 208 845 l 208 313 l 77 313 l 77 248 l 208 248 l 208 128 q 199 86 208 104 q 170 60 190 69 q 125 53 159 56 q 71 48 92 50 l 71 0 l 485 0 l 485 48 q 433 56 467 49 q 389 67 399 62 q 358 96 367 78 q 349 136 349 113 l 349 248 l 527 248 l 527 313 l 349 313 l 349 488 l 455 488 q 524 482 495 488 q 575 448 552 475 q 600 399 590 429 q 613 349 609 370 l 665 349 l 665 680 l 613 680 q 599 623 609 648 q 575 583 589 598 q 527 552 555 560 q 455 543 499 543 l 349 543 l 349 909 l 499 909 q 565 907 536 909 q 614 903 593 906 q 700 838 654 898 q 760 722 745 779 l 811 722 "},"":{"ha":1007,"x_min":53,"x_max":998,"o":"m 998 385 l 998 434 l 576 434 l 576 385 q 636 378 597 383 q 696 363 674 373 q 729 331 721 353 q 736 280 736 309 l 736 227 q 736 166 736 202 q 730 95 736 130 q 661 56 710 75 q 552 38 612 38 q 409 73 472 38 q 304 168 346 107 q 240 308 262 227 q 218 480 218 389 q 240 668 218 584 q 304 808 262 752 q 403 896 346 867 q 532 926 460 926 q 647 900 599 926 q 728 832 694 875 q 782 735 761 789 q 817 626 803 682 l 873 626 l 867 962 l 812 962 l 785 916 q 678 964 739 944 q 536 983 618 983 q 346 946 435 983 q 192 840 256 908 q 89 677 125 771 q 53 473 53 583 q 91 267 53 359 q 193 111 129 175 q 342 12 257 47 q 520 -22 428 -22 q 696 -1 606 -22 q 876 62 785 21 q 873 109 874 80 q 872 218 872 137 l 872 293 q 881 337 872 318 q 909 366 889 355 q 954 378 926 374 q 998 385 981 382 m 746 1255 l 709 1266 q 648 1171 689 1204 q 530 1138 608 1138 q 412 1171 453 1138 q 352 1266 372 1204 l 315 1255 q 386 1093 332 1148 q 530 1038 441 1038 q 675 1092 622 1038 q 746 1255 728 1146 "},"":{"ha":707,"x_min":28,"x_max":680,"o":"m 622 69 q 565 106 596 93 q 502 121 533 120 q 428 125 480 122 q 347 130 376 129 q 293 132 319 130 q 247 138 267 133 q 212 156 227 143 q 198 195 198 170 q 215 233 198 219 q 248 253 232 248 l 330 253 q 496 314 425 253 q 568 463 568 375 q 555 532 568 497 q 518 597 543 568 l 518 601 l 675 601 l 675 666 l 442 666 q 381 682 411 675 q 320 688 351 688 q 139 627 210 688 q 68 471 68 566 q 104 360 68 408 q 205 281 140 312 l 205 271 q 128 219 153 250 q 102 153 102 189 q 113 105 102 125 q 142 72 124 86 q 179 51 157 60 q 221 35 201 41 l 221 26 q 83 -18 137 22 q 28 -127 28 -58 q 104 -257 28 -212 q 331 -301 179 -301 q 487 -283 424 -301 q 595 -234 550 -266 q 659 -160 638 -203 q 680 -70 680 -118 q 665 11 680 -22 q 622 69 649 43 m 439 466 q 407 347 439 394 q 317 300 376 300 q 232 347 265 300 q 199 470 199 395 q 205 535 199 503 q 224 589 211 566 q 261 626 239 613 q 316 640 284 640 q 407 592 374 640 q 439 466 439 545 m 569 -95 q 512 -211 569 -173 q 355 -250 454 -250 q 257 -238 297 -250 q 193 -210 217 -227 q 158 -170 168 -191 q 148 -124 148 -148 q 179 -38 148 -71 q 283 10 210 -4 q 420 7 361 10 q 498 1 479 3 q 551 -33 534 -8 q 569 -95 569 -57 m 547 1014 l 509 1022 q 486 960 499 988 q 453 910 473 931 q 405 878 433 889 q 334 866 376 866 q 262 878 289 866 q 214 911 235 890 q 182 961 196 932 q 159 1022 169 990 l 122 1014 q 192 828 139 892 q 334 764 245 764 q 475 825 422 764 q 547 1014 528 886 "},"":{"ha":541,"x_min":54,"x_max":487,"o":"m 487 0 l 487 48 q 432 55 465 49 q 386 67 400 62 q 352 95 362 77 q 342 134 342 112 l 342 831 q 351 871 342 853 q 386 898 360 890 q 437 909 408 905 q 487 914 466 913 l 487 962 l 54 962 l 54 914 q 104 906 73 913 q 155 890 135 899 q 191 864 183 880 q 198 824 198 848 l 198 127 q 188 84 198 100 q 155 60 178 69 q 106 52 141 55 q 54 48 72 50 l 54 0 l 487 0 m 358 1179 q 333 1239 358 1213 q 270 1264 309 1264 q 210 1237 235 1264 q 184 1173 184 1210 q 210 1110 184 1137 q 270 1084 235 1084 q 333 1112 307 1084 q 358 1179 358 1140 "},"":{"ha":779,"x_min":64,"x_max":725,"o":"m 458 -191 q 443 -227 458 -214 q 401 -245 428 -239 q 346 -251 380 -250 q 285 -252 313 -252 l 285 -301 q 391 -296 345 -301 q 473 -277 437 -291 q 534 -235 512 -262 q 555 -168 555 -208 q 541 -119 555 -138 q 504 -87 526 -99 q 454 -71 479 -75 q 399 -67 430 -67 l 399 -19 q 633 64 542 -19 q 725 273 725 148 q 710 367 725 327 q 665 441 696 408 q 600 494 637 471 q 522 534 562 516 q 429 571 477 553 q 332 612 381 588 q 247 679 276 638 q 218 783 218 720 q 263 884 218 842 q 373 925 309 925 q 476 902 434 925 q 547 839 518 878 q 596 748 577 798 q 629 643 614 698 l 684 643 l 679 962 l 625 962 l 597 916 q 501 964 553 943 q 382 984 448 984 q 270 964 323 984 q 177 909 216 944 q 113 824 136 871 q 91 722 91 777 q 136 567 91 626 q 262 471 181 507 q 361 430 304 452 q 462 391 418 409 q 559 316 526 366 q 591 208 591 266 q 581 139 591 169 q 549 86 570 109 q 492 52 527 64 q 410 39 457 39 q 301 63 348 39 q 218 127 254 87 q 158 219 181 170 q 119 329 136 268 l 64 329 l 73 -1 l 127 -1 l 157 49 q 247 6 200 23 q 346 -16 294 -10 q 346 -77 346 -24 q 346 -140 346 -130 q 420 -149 383 -140 q 458 -191 458 -158 "},"":{"ha":600,"x_min":50,"x_max":548,"o":"m 356 -191 q 341 -227 356 -214 q 299 -245 326 -239 q 244 -251 278 -250 q 183 -252 211 -252 l 183 -301 q 290 -296 243 -301 q 372 -277 336 -291 q 432 -235 410 -262 q 454 -168 454 -208 q 439 -119 454 -138 q 402 -87 425 -99 q 353 -71 377 -75 q 298 -67 328 -67 l 298 -17 q 478 42 408 -17 q 548 193 548 100 q 533 271 548 239 q 490 328 518 303 q 425 370 465 351 q 340 403 385 389 q 264 430 295 418 q 213 455 233 441 q 181 490 192 469 q 171 541 171 510 q 203 608 171 580 q 290 635 235 635 q 405 590 358 635 q 467 473 452 545 l 513 473 l 503 688 l 454 688 l 439 653 q 372 677 413 667 q 292 688 331 688 q 128 631 189 688 q 67 492 67 574 q 86 410 67 445 q 135 352 105 376 q 202 313 163 330 q 273 287 241 296 q 345 262 313 275 q 400 234 378 250 q 433 198 422 218 q 444 149 444 177 q 409 64 444 94 q 309 35 374 35 q 225 55 262 35 q 162 105 189 75 q 119 169 137 134 q 96 231 102 204 l 50 231 l 56 -2 l 107 -2 l 121 42 q 170 12 140 26 q 244 -12 199 -3 q 244 -78 244 -26 q 244 -140 244 -130 q 319 -149 281 -140 q 356 -191 356 -158 "},"":{"ha":892,"x_min":53,"x_max":874,"o":"m 490 -22 q 720 39 623 -22 q 874 243 816 100 l 823 268 q 781 185 807 223 q 722 117 755 147 q 642 72 688 89 q 541 54 595 54 q 408 87 467 54 q 305 177 349 119 q 238 312 262 235 q 215 481 215 389 q 237 671 215 586 q 299 810 260 755 q 397 897 340 867 q 519 926 454 926 q 622 900 577 926 q 699 827 667 873 q 750 728 728 787 q 783 619 772 669 l 838 619 l 832 962 l 778 962 l 750 916 q 640 966 698 948 q 511 983 583 983 q 332 947 416 983 q 186 843 248 910 q 88 681 123 775 q 53 472 53 587 q 89 265 53 357 q 185 109 125 173 q 325 12 246 45 q 490 -22 404 -22 m 596 1136 q 641 1166 623 1149 q 659 1213 659 1183 q 640 1251 659 1236 q 596 1267 622 1267 q 558 1257 576 1267 q 518 1224 540 1247 q 441 1146 480 1184 q 340 1048 402 1107 l 361 1022 q 504 1091 441 1061 q 596 1136 566 1121 "},"":{"ha":631,"x_min":49,"x_max":627,"o":"m 358 -18 q 509 29 436 -18 q 627 156 583 76 l 584 184 q 502 89 546 121 q 391 57 457 57 q 244 137 300 57 q 189 342 189 216 q 204 480 189 422 q 245 572 220 538 q 302 623 273 609 q 364 637 332 637 q 416 630 392 637 q 452 602 440 623 q 443 554 451 587 q 435 492 435 522 q 457 446 435 467 q 519 426 479 426 q 572 452 556 426 q 589 512 589 478 q 527 641 589 593 q 367 688 465 688 q 235 658 296 688 q 135 581 175 629 q 71 469 93 530 q 49 337 49 408 q 131 79 49 175 q 358 -18 213 -18 m 489 990 q 473 1026 489 1010 q 433 1043 458 1043 q 388 1030 408 1043 q 347 983 368 1018 q 295 902 319 939 q 210 774 271 865 l 236 753 q 354 844 299 802 q 442 913 408 886 q 477 948 465 932 q 489 990 489 964 "},"":{"ha":892,"x_min":53,"x_max":874,"o":"m 490 -22 q 720 39 623 -22 q 874 243 816 100 l 823 268 q 781 185 807 223 q 722 117 755 147 q 642 72 688 89 q 541 54 595 54 q 408 87 467 54 q 305 177 349 119 q 238 312 262 235 q 215 481 215 389 q 237 671 215 586 q 299 810 260 755 q 397 897 340 867 q 519 926 454 926 q 622 900 577 926 q 699 827 667 873 q 750 728 728 787 q 783 619 772 669 l 838 619 l 832 962 l 778 962 l 750 916 q 640 966 698 948 q 511 983 583 983 q 332 947 416 983 q 186 843 248 910 q 88 681 123 775 q 53 472 53 587 q 89 265 53 357 q 185 109 125 173 q 325 12 246 45 q 490 -22 404 -22 m 729 1245 l 696 1267 l 510 1122 l 321 1267 l 288 1245 l 448 1050 q 469 1029 458 1037 q 507 1022 479 1022 q 548 1028 541 1022 q 570 1053 556 1035 l 729 1245 "},"":{"ha":631,"x_min":49,"x_max":627,"o":"m 358 -18 q 509 29 436 -18 q 627 156 583 76 l 584 184 q 502 89 546 121 q 391 57 457 57 q 244 137 300 57 q 189 342 189 216 q 204 480 189 422 q 245 572 220 538 q 302 623 273 609 q 364 637 332 637 q 416 630 392 637 q 452 602 440 623 q 443 554 451 587 q 435 492 435 522 q 457 446 435 467 q 519 426 479 426 q 572 452 556 426 q 589 512 589 478 q 527 641 589 593 q 367 688 465 688 q 235 658 296 688 q 135 581 175 629 q 71 469 93 530 q 49 337 49 408 q 131 79 49 175 q 358 -18 213 -18 m 574 1024 l 542 1046 l 353 861 l 166 1046 l 134 1024 l 294 789 q 315 766 305 773 q 355 758 325 758 q 393 765 385 758 q 412 786 401 771 l 574 1024 "},"":{"ha":798,"x_min":49,"x_max":810,"o":"m 781 12 l 781 56 q 736 59 761 57 q 699 69 712 61 q 672 97 682 81 q 663 138 663 114 l 663 793 l 810 793 l 810 851 l 663 851 l 663 1040 l 653 1050 l 380 1034 l 380 992 q 449 984 417 989 q 500 965 481 978 q 527 934 517 953 q 537 878 537 915 l 537 851 l 292 851 l 292 793 l 536 793 l 536 645 q 459 675 504 663 q 367 687 414 687 q 244 660 304 687 q 143 587 184 633 q 74 473 99 538 q 49 336 49 408 q 72 191 49 256 q 136 78 96 125 q 228 6 175 32 q 338 -19 281 -19 q 445 6 393 -19 q 532 71 497 31 l 538 69 l 538 7 l 548 -3 l 781 12 m 536 130 q 476 77 512 101 q 387 54 441 54 q 299 77 336 54 q 238 138 262 100 q 201 224 212 178 q 191 328 191 271 q 205 457 191 399 q 245 554 220 516 q 306 614 271 593 q 380 635 340 635 q 442 624 416 635 q 488 596 469 613 q 519 559 507 579 q 536 521 531 538 l 536 130 "},"":{"ha":893,"x_min":-3,"x_max":897,"o":"m 897 1087 l 897 1156 l -3 1156 l -3 1087 l 897 1087 "},"":{"ha":388,"x_min":102,"x_max":288,"o":"m 288 379 q 261 445 288 417 q 195 472 233 472 q 130 445 157 472 q 102 379 102 417 q 130 314 102 341 q 195 288 157 288 q 261 314 233 288 q 288 379 288 341 "},"":{"ha":932,"x_min":-28,"x_max":964,"o":"m 964 0 l 964 48 q 922 55 947 49 q 881 71 897 62 q 845 103 858 87 q 822 146 832 119 l 501 976 l 447 976 q 291 574 378 800 q 131 167 203 348 q 102 112 117 132 q 60 73 87 92 q 16 56 43 62 q -28 48 -10 50 l -28 0 l 334 0 l 334 48 q 238 66 281 51 q 195 108 195 81 q 199 138 195 119 q 211 185 202 156 q 232 250 220 215 q 263 333 244 286 l 600 333 l 680 117 q 684 102 683 111 q 686 87 686 93 q 651 62 686 72 q 563 48 616 52 l 563 0 l 964 0 m 576 393 l 287 393 l 430 766 l 576 393 m 689 1255 l 652 1266 q 591 1171 632 1204 q 473 1138 551 1138 q 355 1171 396 1138 q 295 1266 315 1204 l 258 1255 q 329 1093 275 1148 q 473 1038 384 1038 q 618 1092 565 1038 q 689 1255 671 1146 "},"":{"ha":700,"x_min":54,"x_max":682,"o":"m 682 12 l 682 56 q 637 56 659 56 q 605 63 615 57 q 577 90 586 74 q 568 132 568 105 q 570 295 568 220 q 572 467 572 370 q 554 578 572 535 q 501 646 536 621 q 424 680 467 672 q 325 688 382 688 q 240 674 283 688 q 166 642 197 661 q 109 591 131 620 q 87 532 87 563 q 103 478 87 502 q 153 454 119 454 q 212 473 191 454 q 233 517 233 493 q 227 566 233 539 q 220 606 220 592 q 258 628 231 617 q 316 638 285 638 q 386 620 361 638 q 425 576 411 601 q 440 528 437 553 q 444 494 444 503 l 444 427 q 318 378 412 410 q 195 336 225 347 q 142 310 170 326 q 98 274 115 294 q 65 219 76 250 q 54 150 54 189 q 103 29 54 75 q 227 -17 151 -17 q 348 9 298 -17 q 443 83 399 35 l 447 83 q 487 11 456 36 q 572 -14 519 -14 q 626 -6 602 -14 q 682 12 650 1 m 446 370 l 441 136 q 380 81 416 104 q 295 58 343 58 q 220 84 250 58 q 191 167 191 111 q 210 242 191 210 q 264 296 230 273 q 345 337 301 321 q 446 370 388 353 m 547 1014 l 510 1022 q 487 960 500 988 q 454 910 473 931 q 405 878 434 889 q 335 866 376 866 q 263 878 290 866 q 215 911 236 890 q 183 961 197 932 q 160 1022 170 990 l 123 1014 q 193 828 140 892 q 335 764 245 764 q 476 825 423 764 q 547 1014 528 886 "},"":{"ha":932,"x_min":-28,"x_max":964,"o":"m 755 0 q 667 -84 696 -41 q 637 -170 637 -127 q 685 -266 637 -230 q 819 -301 732 -301 l 897 -301 l 897 -252 q 823 -245 853 -253 q 775 -223 793 -238 q 751 -190 758 -209 q 745 -147 745 -172 q 761 -65 745 -100 q 808 0 777 -30 l 964 0 l 964 48 q 922 55 947 49 q 881 71 897 62 q 845 103 858 87 q 822 146 832 119 l 501 976 l 447 976 q 291 574 378 800 q 131 167 203 348 q 102 112 117 132 q 60 73 87 92 q 16 56 43 62 q -28 48 -10 50 l -28 0 l 334 0 l 334 48 q 238 66 281 51 q 195 108 195 81 q 199 138 195 119 q 211 185 202 156 q 232 250 220 215 q 263 333 244 286 l 600 333 l 680 117 q 684 102 683 111 q 686 87 686 93 q 651 62 686 72 q 563 48 616 52 l 563 0 l 755 0 m 576 393 l 287 393 l 430 766 l 576 393 "},"":{"ha":700,"x_min":54,"x_max":682,"o":"m 372 -170 q 419 -266 372 -230 q 553 -301 466 -301 l 631 -301 l 631 -252 q 557 -245 587 -253 q 509 -223 527 -238 q 485 -190 492 -209 q 479 -147 479 -172 q 493 -70 479 -102 q 534 -9 507 -38 q 552 -13 542 -12 q 572 -14 562 -14 q 626 -6 602 -14 q 682 12 650 1 l 682 56 q 637 56 659 56 q 605 63 615 57 q 577 90 586 74 q 568 132 568 105 q 570 295 568 220 q 572 467 572 370 q 554 578 572 535 q 501 646 536 621 q 424 680 467 672 q 325 688 382 688 q 240 674 283 688 q 166 642 197 661 q 109 591 131 620 q 87 532 87 563 q 103 478 87 502 q 153 454 119 454 q 212 473 191 454 q 233 517 233 493 q 227 566 233 539 q 220 606 220 592 q 258 628 231 617 q 316 638 285 638 q 386 620 361 638 q 425 576 411 601 q 440 528 437 553 q 444 494 444 503 l 444 427 q 318 378 412 410 q 195 336 225 347 q 142 310 170 326 q 98 274 115 294 q 65 219 76 250 q 54 150 54 189 q 103 29 54 75 q 227 -17 151 -17 q 348 9 298 -17 q 443 83 399 35 l 447 83 q 464 37 452 55 q 496 5 475 18 q 402 -82 433 -39 q 372 -170 372 -126 m 446 370 l 441 136 q 380 81 416 104 q 295 58 343 58 q 220 84 250 58 q 191 167 191 111 q 210 242 191 210 q 264 296 230 273 q 345 337 301 321 q 446 370 388 353 "},"":{"ha":1040,"x_min":64,"x_max":988,"o":"m 988 475 q 940 705 988 608 q 807 863 892 803 q 661 936 745 909 q 490 962 576 962 l 69 962 l 69 914 q 111 908 87 913 q 157 893 136 903 q 188 864 180 882 q 195 823 195 846 l 195 128 q 186 86 195 104 q 157 60 177 69 q 115 52 146 56 q 64 48 83 48 l 64 0 l 463 0 q 654 28 562 0 q 822 115 747 57 q 942 262 896 172 q 988 475 988 353 m 822 476 q 803 303 822 378 q 741 171 783 228 q 637 86 701 117 q 486 56 572 56 q 376 79 412 56 q 340 165 340 103 l 340 905 q 392 906 357 905 q 454 907 427 907 q 606 876 538 907 q 721 788 674 844 q 796 651 770 730 q 822 476 822 573 m 703 1245 l 670 1267 l 484 1122 l 294 1267 l 262 1245 l 422 1050 q 443 1029 432 1037 q 481 1022 453 1022 q 522 1028 514 1022 q 544 1053 530 1035 l 703 1245 "},"":{"ha":924,"x_min":49,"x_max":939,"o":"m 781 12 l 781 56 q 736 59 761 57 q 699 69 712 61 q 672 97 682 81 q 663 138 663 114 l 663 1040 l 653 1050 l 380 1034 l 380 992 q 449 984 417 989 q 500 965 481 978 q 527 929 517 953 q 536 878 536 906 l 536 645 q 459 675 504 663 q 367 687 414 687 q 244 660 304 687 q 143 587 184 633 q 74 473 99 538 q 49 336 49 408 q 72 191 49 256 q 136 78 96 125 q 228 6 175 32 q 338 -19 281 -19 q 445 6 393 -19 q 532 71 497 31 l 538 69 l 538 7 l 548 -3 l 781 12 m 536 130 q 476 77 512 101 q 387 54 441 54 q 299 77 336 54 q 238 138 262 100 q 201 224 212 178 q 191 328 191 271 q 205 457 191 399 q 245 554 220 516 q 306 614 271 593 q 380 635 340 635 q 442 624 416 635 q 488 596 469 613 q 519 559 507 579 q 536 521 531 538 l 536 130 m 939 909 q 913 1009 939 970 q 831 1047 888 1047 q 772 1022 793 1047 q 750 970 750 998 q 774 909 750 931 q 840 888 798 888 l 873 888 q 859 830 870 852 q 830 787 848 808 q 791 754 817 772 q 738 721 766 737 l 761 681 q 813 713 781 691 q 873 763 846 735 q 919 827 900 790 q 939 909 939 864 "},"":{"ha":1040,"x_min":64,"x_max":988,"o":"m 988 475 q 940 705 988 608 q 807 863 892 803 q 661 936 745 909 q 490 962 576 962 l 69 962 l 69 914 q 111 908 87 913 q 157 893 136 903 q 188 864 180 882 q 195 823 195 846 l 195 542 l 69 542 l 69 475 l 195 475 l 195 128 q 186 86 195 104 q 157 60 177 69 q 115 52 146 56 q 64 48 83 48 l 64 0 l 463 0 q 654 28 562 0 q 822 115 747 57 q 942 262 896 172 q 988 475 988 353 m 822 476 q 803 303 822 378 q 741 171 783 228 q 637 86 701 117 q 486 56 572 56 q 376 79 412 56 q 340 165 340 103 l 340 475 l 544 475 l 544 542 l 340 542 l 340 905 q 392 906 357 905 q 454 907 427 907 q 606 876 538 907 q 721 788 674 844 q 796 651 770 730 q 822 476 822 573 "},"":{"ha":907,"x_min":58,"x_max":876,"o":"m 585 -84 q 556 -170 556 -127 q 603 -266 556 -230 q 737 -301 650 -301 l 815 -301 l 815 -252 q 742 -245 772 -253 q 694 -223 711 -238 q 670 -190 676 -209 q 663 -147 663 -172 q 679 -65 663 -100 q 726 0 695 -30 l 857 0 l 876 283 l 827 283 q 783 186 817 252 q 718 87 749 120 q 679 68 706 75 q 625 58 651 61 q 564 56 600 56 q 505 56 527 56 q 418 59 448 56 q 370 76 387 63 q 346 114 352 89 q 340 182 340 139 l 340 471 l 448 471 q 519 463 492 471 q 567 429 546 455 q 592 376 580 412 q 606 307 604 340 l 657 307 l 657 684 l 606 684 q 592 622 603 654 q 567 569 582 589 q 525 536 549 546 q 448 526 500 526 l 340 526 l 340 909 l 491 909 q 557 907 528 909 q 608 903 587 906 q 693 840 648 898 q 752 730 739 782 l 803 730 l 803 962 l 58 962 l 58 914 q 107 906 77 913 q 157 890 138 899 q 188 862 180 880 q 195 823 195 845 l 195 131 q 187 90 195 106 q 157 63 178 73 q 113 54 146 58 q 58 48 79 50 l 58 0 l 674 0 q 600 -63 614 -41 q 585 -84 585 -84 "},"":{"ha":671,"x_min":49,"x_max":643,"o":"m 417 -14 q 342 -94 366 -54 q 318 -170 318 -133 q 365 -266 318 -230 q 499 -301 412 -301 l 577 -301 l 577 -252 q 504 -245 534 -253 q 456 -223 473 -238 q 432 -190 438 -209 q 425 -147 425 -172 q 447 -55 425 -94 q 509 17 469 -16 q 585 76 551 39 q 643 157 619 112 l 595 186 q 511 85 555 113 q 407 57 467 57 q 305 80 348 57 q 236 142 262 102 q 196 236 209 182 q 184 355 184 290 l 627 355 l 627 400 q 611 512 627 460 q 565 602 596 564 q 480 665 532 642 q 355 688 428 688 q 226 658 283 688 q 130 581 169 629 q 70 468 90 530 q 49 340 49 405 q 68 202 49 267 q 127 88 87 137 q 227 11 166 39 q 368 -17 288 -17 q 393 -16 380 -17 q 417 -14 406 -16 m 493 412 l 184 412 q 235 577 188 518 q 353 637 282 637 q 423 617 396 637 q 466 566 450 597 q 487 494 480 537 q 493 412 493 450 "},"":{"ha":907,"x_min":58,"x_max":876,"o":"m 876 283 l 827 283 q 783 186 817 252 q 718 87 749 120 q 679 68 706 75 q 625 58 651 61 q 564 56 600 56 q 505 56 527 56 q 418 59 448 56 q 370 76 387 63 q 346 114 352 89 q 340 182 340 139 l 340 471 l 448 471 q 519 463 492 471 q 567 429 546 455 q 592 376 580 412 q 606 307 604 340 l 657 307 l 657 684 l 606 684 q 592 622 603 654 q 567 569 582 589 q 525 536 549 546 q 448 526 500 526 l 340 526 l 340 909 l 491 909 q 557 907 528 909 q 608 903 587 906 q 693 840 648 898 q 752 730 739 782 l 803 730 l 803 962 l 58 962 l 58 914 q 107 906 77 913 q 157 890 138 899 q 188 862 180 880 q 195 823 195 845 l 195 131 q 187 90 195 106 q 157 63 178 73 q 113 54 146 58 q 58 48 79 50 l 58 0 l 857 0 l 876 283 m 690 1245 l 658 1267 l 471 1122 l 282 1267 l 250 1245 l 410 1050 q 430 1029 420 1037 q 469 1022 441 1022 q 510 1028 502 1022 q 532 1053 517 1035 l 690 1245 "},"":{"ha":671,"x_min":49,"x_max":643,"o":"m 643 157 l 595 186 q 511 85 555 113 q 407 57 467 57 q 305 80 348 57 q 236 142 262 102 q 196 236 209 182 q 184 355 184 290 l 627 355 l 627 400 q 611 512 627 460 q 565 602 596 564 q 480 665 532 642 q 355 688 428 688 q 226 658 283 688 q 130 581 169 629 q 70 468 90 530 q 49 340 49 405 q 68 202 49 267 q 127 88 87 137 q 227 11 166 39 q 368 -18 288 -18 q 530 30 460 -18 q 643 157 601 77 m 493 412 l 184 412 q 235 577 188 518 q 353 637 282 637 q 423 617 396 637 q 466 566 450 597 q 487 494 480 537 q 493 412 493 450 m 574 1024 l 542 1046 l 353 861 l 166 1046 l 134 1024 l 294 789 q 315 766 305 773 q 355 758 325 758 q 393 765 385 758 q 412 786 401 771 l 574 1024 "},"":{"ha":838,"x_min":66,"x_max":839,"o":"m 839 286 l 791 286 q 740 183 777 247 q 675 89 703 120 q 645 71 665 78 q 602 60 625 64 q 550 54 577 56 q 498 53 523 53 q 411 57 442 53 q 365 73 380 60 q 344 111 349 86 q 340 180 340 136 l 340 827 q 348 869 340 849 q 380 897 357 888 q 424 907 393 901 q 473 914 454 913 l 473 962 l 66 962 l 66 914 q 113 905 85 913 q 157 889 141 897 q 188 861 180 878 q 195 820 195 843 l 195 131 q 186 87 195 104 q 157 62 177 71 q 114 53 144 56 q 66 48 83 50 l 66 0 l 819 0 l 839 286 m 536 1136 q 581 1166 564 1149 q 599 1213 599 1183 q 581 1251 599 1236 q 536 1267 562 1267 q 498 1257 516 1267 q 458 1224 480 1247 q 381 1146 420 1184 q 281 1048 342 1107 l 302 1022 q 444 1091 381 1061 q 536 1136 507 1121 "},"":{"ha":397,"x_min":1,"x_max":385,"o":"m 362 0 l 362 45 q 329 50 344 46 q 300 60 315 53 q 271 83 280 68 q 262 122 262 98 l 262 952 l 253 962 l 1 947 l 1 903 q 54 896 21 902 q 98 880 86 889 q 126 847 115 868 q 136 801 136 825 l 136 114 q 127 74 136 90 q 98 53 117 59 q 69 48 87 50 q 36 45 52 46 l 36 0 l 362 0 m 385 1213 q 366 1251 385 1236 q 322 1267 348 1267 q 284 1257 302 1267 q 244 1224 266 1247 q 167 1146 206 1184 q 66 1048 128 1107 l 87 1022 q 230 1091 167 1061 q 322 1136 292 1121 q 367 1166 349 1149 q 385 1213 385 1183 "},"":{"ha":838,"x_min":66,"x_max":839,"o":"m 839 286 l 791 286 q 740 183 777 247 q 675 89 703 120 q 645 71 665 78 q 602 60 625 64 q 550 54 577 56 q 498 53 523 53 q 411 57 442 53 q 365 73 380 60 q 344 111 349 86 q 340 180 340 136 l 340 827 q 348 869 340 849 q 380 897 357 888 q 424 907 393 901 q 473 914 454 913 l 473 962 l 66 962 l 66 914 q 113 905 85 913 q 157 889 141 897 q 188 861 180 878 q 195 820 195 843 l 195 131 q 186 87 195 104 q 157 62 177 71 q 114 53 144 56 q 66 48 83 50 l 66 0 l 819 0 l 839 286 m 774 833 q 749 933 774 895 q 666 972 724 972 q 607 947 629 972 q 585 895 585 922 q 609 834 585 856 q 675 812 633 812 l 708 812 q 694 754 705 777 q 665 712 684 732 q 626 679 652 696 q 573 646 601 662 l 596 606 q 648 638 616 616 q 708 688 681 660 q 754 752 735 715 q 774 833 774 789 "},"":{"ha":523,"x_min":1,"x_max":538,"o":"m 362 0 l 362 45 q 329 50 344 46 q 300 60 315 53 q 271 83 280 68 q 262 122 262 98 l 262 1040 l 253 1050 l 1 1034 l 1 991 q 54 983 21 989 q 98 968 86 976 q 126 934 115 956 q 136 888 136 913 l 136 114 q 127 74 136 90 q 98 53 117 59 q 69 48 87 50 q 36 45 52 46 l 36 0 l 362 0 m 538 909 q 513 1009 538 970 q 430 1047 488 1047 q 371 1022 393 1047 q 349 970 349 998 q 373 909 349 931 q 439 888 397 888 l 472 888 q 458 830 469 852 q 429 787 448 808 q 390 754 416 772 q 337 721 365 737 l 360 681 q 412 713 380 691 q 472 763 445 735 q 518 827 499 790 q 538 909 538 864 "},"":{"ha":838,"x_min":66,"x_max":839,"o":"m 839 286 l 791 286 q 740 183 777 247 q 675 89 703 120 q 645 71 665 78 q 602 60 625 64 q 550 54 577 56 q 498 53 523 53 q 411 57 442 53 q 365 73 380 60 q 344 111 349 86 q 340 180 340 136 l 340 827 q 348 869 340 849 q 380 897 357 888 q 424 907 393 901 q 473 914 454 913 l 473 962 l 66 962 l 66 914 q 113 905 85 913 q 157 889 141 897 q 188 861 180 878 q 195 820 195 843 l 195 131 q 186 87 195 104 q 157 62 177 71 q 114 53 144 56 q 66 48 83 50 l 66 0 l 819 0 l 839 286 m 781 491 q 753 556 781 529 q 688 584 726 584 q 622 556 650 584 q 595 491 595 529 q 622 426 595 453 q 688 399 650 399 q 753 426 726 399 q 781 491 781 453 "},"":{"ha":584,"x_min":1,"x_max":583,"o":"m 362 0 l 362 45 q 329 50 344 46 q 300 60 315 53 q 271 83 280 68 q 262 122 262 98 l 262 1040 l 253 1050 l 1 1034 l 1 991 q 54 983 21 989 q 98 968 86 976 q 126 934 115 956 q 136 888 136 913 l 136 114 q 127 74 136 90 q 98 53 117 59 q 69 48 87 50 q 36 45 52 46 l 36 0 l 362 0 m 583 456 q 555 520 583 493 q 491 547 528 547 q 427 520 454 547 q 399 456 399 493 q 427 392 399 418 q 491 366 454 366 q 555 392 528 366 q 583 456 583 418 "},"":{"ha":1065,"x_min":16,"x_max":1054,"o":"m 1054 914 l 1054 962 l 663 962 l 663 914 q 728 901 685 913 q 790 876 771 888 q 821 815 810 861 q 832 686 832 770 l 832 229 l 291 962 l 16 962 l 16 914 q 84 897 42 913 q 150 859 125 881 q 179 810 168 842 q 190 748 190 779 l 190 274 q 181 141 190 180 q 149 83 172 102 q 94 61 138 73 q 33 48 51 50 l 33 0 l 427 0 l 427 48 q 363 62 412 49 q 298 90 314 75 q 266 153 277 109 q 256 281 256 198 l 256 778 l 839 -9 l 898 -9 l 898 695 q 906 817 898 769 q 939 882 915 865 q 996 903 956 893 q 1054 914 1035 913 m 679 1136 q 724 1166 706 1149 q 741 1213 741 1183 q 723 1251 741 1236 q 679 1267 705 1267 q 641 1257 659 1267 q 601 1224 623 1247 q 524 1146 563 1184 q 423 1048 485 1107 l 444 1022 q 586 1091 524 1061 q 679 1136 649 1121 "},"":{"ha":821,"x_min":41,"x_max":787,"o":"m 787 0 l 787 45 q 754 49 766 46 q 726 58 743 52 q 699 81 707 66 q 690 119 690 96 l 690 467 q 644 627 690 567 q 501 687 597 687 q 423 676 458 687 q 363 649 389 665 q 317 612 342 635 q 277 573 293 589 l 273 573 l 273 667 l 264 677 l 41 662 l 41 618 q 79 613 62 616 q 110 601 97 609 q 137 569 127 589 q 147 527 147 550 l 147 114 q 138 74 147 90 q 110 53 129 59 q 81 47 98 49 q 49 45 64 46 l 49 0 l 376 0 l 376 45 q 342 50 359 46 q 311 60 326 53 q 283 83 292 68 q 273 121 273 98 l 273 505 q 293 534 279 516 q 328 568 306 552 q 381 595 351 584 q 447 606 411 606 q 529 568 495 606 q 562 458 562 529 l 562 114 q 553 74 562 90 q 525 53 544 59 q 494 47 513 49 q 460 45 475 46 l 460 0 l 787 0 m 569 990 q 553 1026 569 1010 q 513 1043 538 1043 q 468 1030 488 1043 q 427 983 448 1018 q 375 902 399 939 q 290 774 351 865 l 316 753 q 434 844 379 802 q 522 913 488 886 q 557 948 545 932 q 569 990 569 964 "},"":{"ha":1065,"x_min":16,"x_max":1054,"o":"m 1054 914 l 1054 962 l 663 962 l 663 914 q 728 901 685 913 q 790 876 771 888 q 821 815 810 861 q 832 686 832 770 l 832 229 l 291 962 l 16 962 l 16 914 q 84 897 42 913 q 150 859 125 881 q 179 810 168 842 q 190 748 190 779 l 190 274 q 181 141 190 180 q 149 83 172 102 q 94 61 138 73 q 33 48 51 50 l 33 0 l 427 0 l 427 48 q 363 62 412 49 q 298 90 314 75 q 266 153 277 109 q 256 281 256 198 l 256 778 l 839 -9 l 898 -9 l 898 695 q 906 817 898 769 q 939 882 915 865 q 996 903 956 893 q 1054 914 1035 913 m 750 1245 l 718 1267 l 531 1122 l 342 1267 l 309 1245 l 469 1050 q 490 1029 479 1037 q 528 1022 500 1022 q 569 1028 562 1022 q 591 1053 577 1035 l 750 1245 "},"":{"ha":821,"x_min":41,"x_max":787,"o":"m 787 0 l 787 45 q 754 49 766 46 q 726 58 743 52 q 699 81 707 66 q 690 119 690 96 l 690 467 q 644 627 690 567 q 501 687 597 687 q 423 676 458 687 q 363 649 389 665 q 317 612 342 635 q 277 573 293 589 l 273 573 l 273 667 l 264 677 l 41 662 l 41 618 q 79 613 62 616 q 110 601 97 609 q 137 569 127 589 q 147 527 147 550 l 147 114 q 138 74 147 90 q 110 53 129 59 q 81 47 98 49 q 49 45 64 46 l 49 0 l 376 0 l 376 45 q 342 50 359 46 q 311 60 326 53 q 283 83 292 68 q 273 121 273 98 l 273 505 q 293 534 279 516 q 328 568 306 552 q 381 595 351 584 q 447 606 411 606 q 529 568 495 606 q 562 458 562 529 l 562 114 q 553 74 562 90 q 525 53 544 59 q 494 47 513 49 q 460 45 475 46 l 460 0 l 787 0 m 633 1024 l 601 1046 l 412 861 l 225 1046 l 193 1024 l 353 789 q 374 766 364 773 q 414 758 384 758 q 452 765 444 758 q 471 786 460 771 l 633 1024 "},"":{"ha":1034,"x_min":54,"x_max":979,"o":"m 844 848 q 697 949 782 913 q 517 985 612 985 q 340 950 425 985 q 192 848 256 915 q 91 689 127 781 q 54 480 54 597 q 89 279 54 373 q 185 119 124 185 q 331 15 246 52 q 517 -23 416 -23 q 694 12 611 -23 q 841 113 778 47 q 943 272 906 178 q 979 480 979 366 q 943 688 979 594 q 844 848 907 782 m 743 166 q 648 71 706 105 q 517 37 589 37 q 384 71 439 37 q 292 164 328 104 q 236 304 254 225 q 218 480 218 382 q 235 648 218 568 q 286 788 252 728 q 378 888 321 850 q 517 925 435 925 q 646 893 589 925 q 739 803 702 861 q 796 662 777 745 q 815 480 815 579 q 798 306 815 384 q 743 166 781 228 m 567 1138 q 607 1167 592 1151 q 623 1209 623 1183 q 607 1249 623 1231 q 563 1266 591 1266 q 526 1252 545 1266 q 488 1215 507 1238 q 424 1139 453 1173 q 343 1046 395 1105 l 363 1022 q 493 1100 464 1084 q 567 1138 523 1115 m 831 1138 q 871 1167 856 1151 q 886 1209 886 1183 q 871 1249 886 1231 q 827 1266 855 1266 q 790 1252 809 1266 q 752 1215 771 1238 q 688 1141 720 1176 q 604 1046 656 1105 l 623 1022 q 755 1100 724 1084 q 831 1138 787 1115 "},"":{"ha":749,"x_min":47,"x_max":701,"o":"m 701 341 q 609 593 701 498 q 378 688 518 688 q 139 588 230 688 q 47 332 47 488 q 74 185 47 250 q 144 74 100 119 q 246 4 189 28 q 368 -20 304 -20 q 506 6 444 -20 q 614 87 568 33 q 678 202 656 134 q 701 341 701 271 m 560 340 q 511 113 560 195 q 376 31 461 31 q 290 56 325 31 q 232 124 255 81 q 198 223 209 168 q 188 343 188 278 q 197 446 188 393 q 227 540 205 498 q 287 610 250 585 q 376 636 324 636 q 463 611 427 636 q 519 543 498 585 q 550 447 540 504 q 560 340 560 391 m 697 990 q 681 1026 697 1010 q 642 1043 665 1043 q 601 1029 617 1043 q 566 981 585 1015 q 517 897 545 944 q 441 772 490 849 l 465 753 q 580 850 534 810 q 654 913 627 890 q 687 948 676 932 q 697 990 697 964 m 445 989 q 429 1026 445 1009 q 390 1043 413 1043 q 349 1029 365 1043 q 315 981 332 1015 q 276 904 300 949 q 200 772 252 859 l 225 753 q 339 854 296 814 q 405 913 382 894 q 436 950 428 935 q 445 989 445 966 "},"":{"ha":975,"x_min":66,"x_max":1004,"o":"m 1004 0 l 1004 48 q 960 54 986 49 q 916 67 933 58 q 868 99 892 79 q 814 159 844 118 q 698 315 745 251 q 580 474 651 380 q 674 510 631 489 q 747 561 717 532 q 798 635 781 592 q 814 733 814 677 q 789 839 814 795 q 722 909 764 882 q 625 950 679 937 q 511 962 572 962 l 66 962 l 66 914 q 113 908 85 913 q 157 897 140 903 q 189 869 182 887 q 195 827 195 850 l 195 131 q 186 87 195 104 q 157 62 177 71 q 114 53 144 56 q 66 48 83 50 l 66 0 l 473 0 l 473 48 q 422 53 452 49 q 379 62 391 57 q 347 89 355 71 q 340 131 340 107 l 340 436 l 438 436 q 589 233 519 332 q 745 0 659 135 l 1004 0 m 647 718 q 585 554 647 614 q 429 494 522 494 l 340 494 l 340 907 l 455 907 q 597 856 547 907 q 647 718 647 805 m 611 1136 q 656 1166 638 1149 q 673 1213 673 1183 q 655 1251 673 1236 q 611 1267 637 1267 q 573 1257 591 1267 q 533 1224 555 1247 q 456 1146 495 1184 q 355 1048 417 1107 l 376 1022 q 518 1091 456 1061 q 611 1136 581 1121 "},"":{"ha":569,"x_min":41,"x_max":561,"o":"m 561 583 q 534 657 561 629 q 465 685 507 685 q 370 656 422 685 q 277 573 319 628 l 273 573 l 273 667 l 264 677 l 41 662 l 41 618 q 79 613 62 616 q 110 601 97 609 q 137 568 127 589 q 147 527 147 548 l 147 114 q 138 74 147 90 q 110 53 129 59 q 81 47 98 49 q 49 45 64 46 l 49 0 l 401 0 l 401 45 q 355 50 382 46 q 311 60 328 53 q 282 82 292 67 q 273 121 273 97 l 273 510 q 346 583 303 557 q 420 609 389 609 q 416 585 418 597 q 414 557 414 572 q 434 514 414 534 q 492 494 454 494 q 544 521 527 494 q 561 583 561 548 m 472 990 q 456 1026 472 1010 q 416 1043 441 1043 q 371 1030 391 1043 q 330 983 351 1018 q 278 902 302 939 q 193 774 254 865 l 219 753 q 337 844 282 802 q 425 913 391 886 q 460 948 448 932 q 472 990 472 964 "},"":{"ha":975,"x_min":66,"x_max":1004,"o":"m 1004 0 l 1004 48 q 960 54 986 49 q 916 67 933 58 q 868 99 892 79 q 814 159 844 118 q 698 315 745 251 q 580 474 651 380 q 674 510 631 489 q 747 561 717 532 q 798 635 781 592 q 814 733 814 677 q 789 839 814 795 q 722 909 764 882 q 625 950 679 937 q 511 962 572 962 l 66 962 l 66 914 q 113 908 85 913 q 157 897 140 903 q 189 869 182 887 q 195 827 195 850 l 195 131 q 186 87 195 104 q 157 62 177 71 q 114 53 144 56 q 66 48 83 50 l 66 0 l 473 0 l 473 48 q 422 53 452 49 q 379 62 391 57 q 347 89 355 71 q 340 131 340 107 l 340 436 l 438 436 q 589 233 519 332 q 745 0 659 135 l 1004 0 m 647 718 q 585 554 647 614 q 429 494 522 494 l 340 494 l 340 907 l 455 907 q 597 856 547 907 q 647 718 647 805 m 667 1245 l 635 1267 l 448 1122 l 259 1267 l 227 1245 l 387 1050 q 407 1029 397 1037 q 446 1022 418 1022 q 487 1028 479 1022 q 509 1053 494 1035 l 667 1245 "},"":{"ha":569,"x_min":41,"x_max":561,"o":"m 561 583 q 534 657 561 629 q 465 685 507 685 q 370 656 422 685 q 277 573 319 628 l 273 573 l 273 667 l 264 677 l 41 662 l 41 618 q 79 613 62 616 q 110 601 97 609 q 137 568 127 589 q 147 527 147 548 l 147 114 q 138 74 147 90 q 110 53 129 59 q 81 47 98 49 q 49 45 64 46 l 49 0 l 401 0 l 401 45 q 355 50 382 46 q 311 60 328 53 q 282 82 292 67 q 273 121 273 97 l 273 510 q 346 583 303 557 q 420 609 389 609 q 416 585 418 597 q 414 557 414 572 q 434 514 414 534 q 492 494 454 494 q 544 521 527 494 q 561 583 561 548 m 507 1024 l 475 1046 l 286 861 l 99 1046 l 66 1024 l 227 789 q 248 766 238 773 q 288 758 258 758 q 326 765 317 758 q 345 786 334 771 l 507 1024 "},"":{"ha":779,"x_min":64,"x_max":725,"o":"m 665 441 q 600 494 637 471 q 522 534 562 516 q 429 571 477 553 q 332 612 381 588 q 247 679 276 638 q 218 783 218 720 q 263 884 218 842 q 373 925 309 925 q 476 902 434 925 q 547 839 518 878 q 596 748 577 798 q 629 643 614 698 l 684 643 l 679 962 l 625 962 l 597 916 q 501 964 553 943 q 382 984 448 984 q 270 964 323 984 q 177 909 216 944 q 113 824 136 871 q 91 722 91 777 q 136 567 91 626 q 262 471 181 507 q 361 430 304 452 q 462 391 418 409 q 559 316 526 366 q 591 208 591 266 q 581 139 591 169 q 549 86 570 109 q 492 52 527 64 q 410 39 457 39 q 301 63 348 39 q 218 127 254 87 q 158 219 181 170 q 119 329 136 268 l 64 329 l 73 -1 l 127 -1 l 157 49 q 268 0 203 20 q 397 -20 332 -20 q 631 63 536 -20 q 725 273 725 146 q 710 367 725 327 q 665 441 696 408 m 513 1136 q 558 1166 541 1149 q 576 1213 576 1183 q 557 1251 576 1236 q 513 1267 539 1267 q 475 1257 493 1267 q 435 1224 457 1247 q 358 1146 397 1184 q 258 1048 319 1107 l 279 1022 q 421 1091 358 1061 q 513 1136 484 1121 "},"":{"ha":600,"x_min":50,"x_max":548,"o":"m 490 328 q 425 370 465 351 q 340 403 385 389 q 264 430 295 418 q 213 455 233 441 q 181 490 192 469 q 171 541 171 510 q 203 608 171 580 q 290 635 235 635 q 405 590 358 635 q 467 473 452 545 l 513 473 l 503 688 l 454 688 l 439 653 q 372 677 413 667 q 292 688 331 688 q 128 631 189 688 q 67 492 67 574 q 86 410 67 445 q 135 352 105 376 q 202 313 163 330 q 273 287 241 296 q 345 262 313 275 q 400 234 378 250 q 433 198 422 218 q 444 149 444 177 q 409 64 444 94 q 309 35 374 35 q 225 55 262 35 q 162 105 189 75 q 119 169 137 134 q 96 231 102 204 l 50 231 l 56 -2 l 107 -2 l 121 42 q 191 3 142 24 q 298 -18 240 -18 q 478 41 409 -18 q 548 193 548 100 q 533 271 548 239 q 490 328 518 303 m 470 990 q 454 1026 470 1010 q 414 1043 439 1043 q 369 1030 389 1043 q 328 983 349 1018 q 276 902 300 939 q 191 774 252 865 l 217 753 q 335 844 280 802 q 423 913 389 886 q 458 948 446 932 q 470 990 470 964 "},"":{"ha":859,"x_min":10,"x_max":848,"o":"m 848 701 l 848 962 l 10 962 l 10 701 l 58 701 q 79 758 64 724 q 115 823 95 792 q 160 877 136 853 q 206 904 184 901 q 266 908 235 907 q 318 909 297 909 l 357 909 l 357 134 q 347 89 357 106 q 314 64 336 73 q 260 54 299 58 q 202 48 221 50 l 202 0 l 656 0 l 656 48 q 596 57 635 49 q 545 70 557 65 q 511 99 521 80 q 502 140 502 117 l 502 909 l 541 909 q 600 908 568 909 q 653 904 632 907 q 700 877 675 901 q 744 823 724 854 q 780 759 764 793 q 802 701 795 726 l 848 701 m 541 -157 q 513 -76 541 -107 q 440 -45 486 -45 q 381 -66 402 -45 q 361 -111 361 -87 q 379 -157 361 -139 q 442 -176 397 -176 l 479 -176 q 452 -237 477 -216 q 361 -262 427 -258 l 361 -301 q 491 -265 442 -301 q 541 -157 541 -229 "},"":{"ha":479,"x_min":9,"x_max":462,"o":"m 462 29 l 462 79 q 415 71 448 74 q 366 68 382 68 q 307 78 329 68 q 275 108 286 88 q 260 157 263 129 q 257 227 257 185 l 257 601 l 448 601 l 448 666 l 256 666 l 256 874 l 132 874 l 132 666 l 9 666 l 9 601 l 130 601 l 130 148 q 164 28 130 71 q 282 -14 198 -14 q 378 -2 339 -14 q 462 29 418 11 m 391 -157 q 364 -76 391 -107 q 291 -45 336 -45 q 232 -66 253 -45 q 212 -111 212 -87 q 230 -157 212 -139 q 293 -176 248 -176 l 330 -176 q 303 -237 328 -216 q 212 -262 277 -258 l 212 -301 q 342 -265 293 -301 q 391 -157 391 -229 "},"":{"ha":859,"x_min":10,"x_max":848,"o":"m 848 701 l 848 962 l 10 962 l 10 701 l 58 701 q 79 758 64 724 q 115 823 95 792 q 160 877 136 853 q 206 904 184 901 q 266 908 235 907 q 318 909 297 909 l 357 909 l 357 134 q 347 89 357 106 q 314 64 336 73 q 260 54 299 58 q 202 48 221 50 l 202 0 l 656 0 l 656 48 q 596 57 635 49 q 545 70 557 65 q 511 99 521 80 q 502 140 502 117 l 502 909 l 541 909 q 600 908 568 909 q 653 904 632 907 q 700 877 675 901 q 744 823 724 854 q 780 759 764 793 q 802 701 795 726 l 848 701 m 650 1245 l 618 1267 l 431 1122 l 242 1267 l 210 1245 l 370 1050 q 390 1029 380 1037 q 429 1022 401 1022 q 470 1028 462 1022 q 492 1053 477 1035 l 650 1245 "},"":{"ha":479,"x_min":9,"x_max":538,"o":"m 462 29 l 462 79 q 415 71 448 74 q 366 68 382 68 q 307 78 329 68 q 275 108 286 88 q 260 157 263 129 q 257 227 257 185 l 257 601 l 448 601 l 448 666 l 256 666 l 256 874 l 132 874 l 132 666 l 9 666 l 9 601 l 130 601 l 130 148 q 164 28 130 71 q 282 -14 198 -14 q 378 -2 339 -14 q 462 29 418 11 m 538 928 q 511 1023 538 990 q 431 1057 484 1057 q 372 1032 393 1057 q 350 982 350 1007 q 374 927 350 946 q 440 907 399 907 l 471 907 q 455 856 467 876 q 427 821 443 836 q 388 793 411 806 q 338 766 364 781 l 361 726 q 418 756 387 737 q 473 798 448 774 q 519 855 500 821 q 538 928 538 888 "},"":{"ha":1050,"x_min":50,"x_max":1040,"o":"m 1040 914 l 1040 962 l 646 962 l 646 914 q 709 903 668 913 q 774 877 750 894 q 806 814 795 862 q 817 691 817 766 l 817 296 q 805 216 817 256 q 766 139 793 176 q 686 77 736 100 q 561 53 635 53 q 436 77 481 53 q 364 138 391 100 q 331 217 339 174 q 322 298 322 259 l 322 829 q 330 871 322 852 q 361 898 338 890 q 403 908 374 903 q 451 914 432 913 l 451 962 l 50 962 l 50 914 q 94 907 67 913 q 137 892 120 901 q 169 862 161 878 q 176 823 176 846 l 176 254 q 199 150 176 199 q 268 61 222 100 q 382 0 314 22 q 536 -23 450 -23 q 650 -7 591 -23 q 763 45 709 9 q 850 142 817 83 q 884 281 884 201 l 884 700 q 892 819 884 770 q 924 884 901 868 q 984 906 947 899 q 1040 914 1021 913 m 723 1114 q 673 1223 723 1182 q 548 1264 624 1264 q 424 1222 475 1264 q 373 1114 373 1180 q 421 1004 373 1045 q 548 962 469 962 q 675 1005 627 962 q 723 1114 723 1047 m 637 1114 q 614 1036 637 1065 q 548 1006 591 1006 q 481 1036 505 1006 q 458 1114 458 1067 q 482 1192 458 1162 q 548 1221 505 1221 q 615 1190 592 1221 q 637 1114 637 1160 "},"":{"ha":799,"x_min":24,"x_max":766,"o":"m 766 12 l 766 56 q 728 59 745 57 q 699 69 711 62 q 673 97 682 81 q 663 136 663 113 l 663 667 l 653 677 l 410 661 l 410 616 q 464 613 440 615 q 500 604 488 612 q 527 574 517 591 q 536 534 536 557 l 536 155 q 515 126 529 142 q 483 96 501 110 q 434 68 463 80 q 368 57 405 57 q 290 94 322 57 q 257 203 257 130 l 257 667 l 247 677 l 24 661 l 24 616 q 62 611 44 615 q 93 600 81 608 q 120 571 111 587 q 129 530 129 554 l 129 210 q 175 41 129 99 q 311 -17 222 -17 q 391 -7 363 -17 q 450 20 420 2 q 497 55 477 36 q 534 92 517 75 l 538 92 l 538 7 l 548 -3 l 766 12 m 559 907 q 509 1016 559 975 q 384 1057 460 1057 q 260 1015 311 1057 q 209 907 209 973 q 257 797 209 838 q 384 755 304 755 q 511 798 463 755 q 559 907 559 840 m 473 907 q 450 829 473 859 q 384 799 427 799 q 317 829 340 799 q 294 907 294 860 q 318 985 294 956 q 384 1014 341 1014 q 451 983 428 1014 q 473 907 473 953 "},"":{"ha":1050,"x_min":50,"x_max":1040,"o":"m 1040 914 l 1040 962 l 646 962 l 646 914 q 709 903 668 913 q 774 877 750 894 q 806 814 795 862 q 817 691 817 766 l 817 296 q 805 216 817 256 q 766 139 793 176 q 686 77 736 100 q 561 53 635 53 q 436 77 481 53 q 364 138 391 100 q 331 217 339 174 q 322 298 322 259 l 322 829 q 330 871 322 852 q 361 898 338 890 q 403 908 374 903 q 451 914 432 913 l 451 962 l 50 962 l 50 914 q 94 907 67 913 q 137 892 120 901 q 169 862 161 878 q 176 823 176 846 l 176 254 q 199 150 176 199 q 268 61 222 100 q 382 0 314 22 q 536 -23 450 -23 q 650 -7 591 -23 q 763 45 709 9 q 850 142 817 83 q 884 281 884 201 l 884 700 q 892 819 884 770 q 924 884 901 868 q 984 906 947 899 q 1040 914 1021 913 m 555 1138 q 595 1167 580 1151 q 610 1209 610 1183 q 595 1249 610 1231 q 551 1266 579 1266 q 514 1252 533 1266 q 476 1215 495 1238 q 412 1139 441 1173 q 331 1046 383 1105 l 351 1022 q 481 1100 452 1084 q 555 1138 511 1115 m 819 1138 q 859 1167 844 1151 q 874 1209 874 1183 q 859 1249 874 1231 q 814 1266 843 1266 q 778 1252 797 1266 q 740 1215 759 1238 q 676 1141 707 1176 q 591 1046 644 1105 l 611 1022 q 743 1100 712 1084 q 819 1138 774 1115 "},"":{"ha":799,"x_min":24,"x_max":766,"o":"m 766 12 l 766 56 q 728 59 745 57 q 699 69 711 62 q 673 97 682 81 q 663 136 663 113 l 663 667 l 653 677 l 410 661 l 410 616 q 464 613 440 615 q 500 604 488 612 q 527 574 517 591 q 536 534 536 557 l 536 155 q 515 126 529 142 q 483 96 501 110 q 434 68 463 80 q 368 57 405 57 q 290 94 322 57 q 257 203 257 130 l 257 667 l 247 677 l 24 661 l 24 616 q 62 611 44 615 q 93 600 81 608 q 120 571 111 587 q 129 530 129 554 l 129 210 q 175 41 129 99 q 311 -17 222 -17 q 391 -7 363 -17 q 450 20 420 2 q 497 55 477 36 q 534 92 517 75 l 538 92 l 538 7 l 548 -3 l 766 12 m 696 990 q 680 1026 696 1010 q 640 1043 664 1043 q 600 1029 616 1043 q 564 981 583 1015 q 516 897 544 944 q 440 772 488 849 l 464 753 q 579 850 532 810 q 653 913 625 890 q 685 948 675 932 q 696 990 696 964 m 444 989 q 428 1026 444 1009 q 389 1043 412 1043 q 347 1029 363 1043 q 314 981 331 1015 q 274 904 298 949 q 199 772 250 859 l 224 753 q 338 854 295 814 q 404 913 381 894 q 435 950 427 935 q 444 989 444 966 "},"":{"ha":836,"x_min":18,"x_max":823,"o":"m 823 300 l 776 300 q 720 193 758 254 q 637 90 682 132 q 553 62 618 70 q 430 54 488 54 l 201 54 l 807 939 l 807 962 l 86 962 l 57 690 l 104 690 q 189 828 133 763 q 290 902 245 893 q 337 907 311 906 q 402 909 363 909 l 624 909 l 18 24 l 18 0 l 791 0 l 823 300 m 574 1136 q 619 1166 602 1149 q 637 1213 637 1183 q 618 1251 637 1236 q 574 1267 600 1267 q 536 1257 554 1267 q 496 1224 518 1247 q 419 1146 458 1184 q 319 1048 380 1107 l 340 1022 q 482 1091 419 1061 q 574 1136 545 1121 "},"":{"ha":616,"x_min":37,"x_max":578,"o":"m 578 0 l 578 236 l 538 236 q 519 169 530 203 q 501 115 509 134 q 480 76 494 93 q 439 58 466 59 q 363 54 393 55 q 307 54 334 54 q 243 54 273 54 q 190 55 214 54 l 574 641 l 574 669 l 63 669 l 63 463 l 104 463 q 133 555 117 520 q 169 598 150 591 q 230 612 197 610 q 322 614 263 614 l 416 614 l 37 36 l 37 0 l 578 0 m 495 990 q 479 1026 495 1010 q 439 1043 464 1043 q 394 1030 414 1043 q 353 983 374 1018 q 301 902 326 939 q 216 774 277 865 l 242 753 q 360 844 305 802 q 448 913 414 886 q 483 948 471 932 q 495 990 495 964 "},"":{"ha":836,"x_min":18,"x_max":823,"o":"m 823 300 l 776 300 q 720 193 758 254 q 637 90 682 132 q 553 62 618 70 q 430 54 488 54 l 201 54 l 807 939 l 807 962 l 86 962 l 57 690 l 104 690 q 189 828 133 763 q 290 902 245 893 q 337 907 311 906 q 402 909 363 909 l 624 909 l 18 24 l 18 0 l 791 0 l 823 300 m 519 1179 q 494 1239 519 1213 q 431 1264 469 1264 q 371 1237 396 1264 q 345 1173 345 1210 q 371 1110 345 1137 q 431 1084 396 1084 q 493 1112 468 1084 q 519 1179 519 1140 "},"":{"ha":616,"x_min":37,"x_max":578,"o":"m 578 0 l 578 236 l 538 236 q 519 169 530 203 q 501 115 509 134 q 480 76 494 93 q 439 58 466 59 q 363 54 393 55 q 307 54 334 54 q 243 54 273 54 q 190 55 214 54 l 574 641 l 574 669 l 63 669 l 63 463 l 104 463 q 133 555 117 520 q 169 598 150 591 q 230 612 197 610 q 322 614 263 614 l 416 614 l 37 36 l 37 0 l 578 0 m 403 941 q 378 1001 403 975 q 315 1026 353 1026 q 255 999 280 1026 q 229 935 229 972 q 255 872 229 899 q 315 846 280 846 q 377 874 352 846 q 403 941 403 902 "},"":{"ha":810,"x_min":58,"x_max":800,"o":"m 800 693 l 800 962 l 58 962 l 58 914 q 107 906 77 913 q 157 890 138 899 q 188 862 180 880 q 195 823 195 845 l 195 128 q 186 86 195 104 q 157 60 177 69 q 113 53 146 56 q 58 48 79 50 l 58 0 l 490 0 l 490 48 q 432 56 468 49 q 383 68 397 62 q 351 97 361 79 q 340 137 340 114 l 340 909 l 478 909 q 542 907 509 909 q 599 903 576 906 q 651 876 629 899 q 696 817 674 852 q 730 749 719 779 q 749 693 742 720 l 800 693 "},"":{"ha":1034,"x_min":54,"x_max":979,"o":"m 844 848 q 697 949 782 913 q 517 985 612 985 q 340 950 425 985 q 192 848 256 915 q 91 689 127 781 q 54 480 54 597 q 89 279 54 373 q 185 119 124 185 q 331 15 246 52 q 517 -23 416 -23 q 694 12 611 -23 q 841 113 778 47 q 943 272 906 178 q 979 480 979 366 q 943 688 979 594 q 844 848 907 782 m 744 165 q 650 72 708 106 q 517 37 592 37 q 384 71 439 37 q 290 164 328 104 q 235 301 254 221 q 216 480 216 380 q 233 648 216 568 q 285 788 250 728 q 378 888 321 850 q 517 925 435 925 q 646 893 590 925 q 740 803 702 861 q 798 662 778 746 q 817 480 817 578 q 800 305 817 383 q 744 165 782 227 m 709 326 l 709 635 l 665 635 q 655 593 661 612 q 637 554 649 573 q 604 537 629 542 q 517 533 578 533 q 428 537 451 533 q 397 554 404 542 q 380 589 387 570 q 369 635 374 608 l 324 635 l 324 326 l 369 326 q 380 372 374 351 q 397 408 386 393 q 425 424 404 419 q 517 429 446 429 q 601 425 572 429 q 637 408 629 420 q 652 375 646 395 q 665 326 659 355 l 709 326 "},"":{"ha":1065,"x_min":45,"x_max":1019,"o":"m 249 313 q 213 407 219 365 q 206 485 206 450 q 218 586 206 536 q 254 674 229 635 q 327 743 283 719 q 433 768 372 768 l 462 768 l 462 203 q 338 229 392 203 q 249 313 283 255 m 815 313 q 731 233 785 262 q 603 203 677 203 l 603 768 l 631 768 q 741 741 697 768 q 811 674 785 715 q 847 582 836 635 q 859 485 859 528 q 850 405 859 452 q 815 313 842 359 m 899 238 q 986 349 954 281 q 1019 501 1019 416 q 996 624 1019 566 q 922 726 972 682 q 793 796 871 771 q 609 821 715 821 l 602 821 l 602 846 q 611 886 602 869 q 642 911 619 903 q 688 921 662 918 q 733 924 713 924 l 733 972 l 332 972 l 332 924 q 377 918 351 923 q 423 903 404 912 q 455 878 447 893 q 463 840 463 862 l 463 821 l 456 821 q 271 796 349 821 q 142 726 192 770 q 68 624 91 680 q 45 501 45 568 q 77 349 45 414 q 164 238 109 283 q 297 171 220 193 q 463 149 373 149 l 463 118 q 453 78 463 94 q 423 54 444 62 q 380 45 411 48 q 333 41 349 42 l 333 -7 l 741 -7 l 741 41 q 685 45 715 41 q 642 54 654 49 q 610 79 618 63 q 602 118 602 94 l 602 149 q 767 172 692 149 q 899 238 843 195 "},"":{"ha":830,"x_min":49,"x_max":833,"o":"m 833 13 l 833 56 q 782 57 810 56 q 743 64 753 58 q 690 150 711 83 q 667 316 669 216 q 704 525 688 429 q 725 669 720 621 l 599 669 l 582 539 q 499 648 555 609 q 362 687 443 687 q 242 661 300 687 q 142 587 184 634 q 73 473 98 538 q 49 335 49 408 q 72 190 49 256 q 135 77 95 124 q 227 5 175 31 q 335 -20 279 -20 q 414 -8 381 -20 q 478 26 446 4 q 531 76 506 45 q 574 136 557 107 q 615 19 586 52 q 701 -14 644 -14 q 761 -7 723 -14 q 833 13 799 1 m 562 355 q 509 127 555 201 q 380 53 463 53 q 293 76 330 53 q 235 138 257 100 q 202 223 214 174 q 191 327 191 272 q 243 553 191 471 q 376 635 296 635 q 459 610 425 635 q 513 545 492 585 q 546 455 535 506 q 562 355 557 404 "},"":{"ha":749,"x_min":47,"x_max":701,"o":"m 701 327 q 690 431 701 385 q 653 519 680 477 q 578 601 626 562 q 459 678 530 640 q 290 783 336 745 q 244 876 244 821 q 289 963 244 926 q 398 1000 333 1000 q 474 991 444 1000 q 517 972 505 983 q 508 931 515 957 q 502 878 502 906 q 522 834 502 853 q 583 815 543 815 q 636 839 620 815 q 652 901 652 863 q 583 1010 652 968 q 396 1051 513 1051 q 264 1034 319 1051 q 175 990 208 1017 q 125 931 140 962 q 110 869 110 899 q 164 747 110 795 q 338 656 218 700 l 338 652 q 224 617 278 643 q 132 549 170 591 q 70 451 92 506 q 47 323 47 397 q 71 188 47 251 q 137 79 94 125 q 241 6 180 33 q 374 -20 302 -20 q 508 6 450 -20 q 610 81 566 33 q 676 190 652 125 q 701 327 701 254 m 559 321 q 548 211 559 262 q 514 118 537 159 q 455 54 490 77 q 373 31 419 31 q 293 55 328 31 q 235 118 258 79 q 200 210 212 159 q 189 321 189 262 q 244 535 189 457 q 387 612 300 612 q 517 513 474 585 q 559 321 559 440 "},"":{"ha":650,"x_min":57,"x_max":637,"o":"m 637 171 l 590 200 q 493 85 547 121 q 363 50 439 50 q 243 85 290 50 q 196 187 196 119 q 202 234 196 211 q 224 276 208 258 q 270 306 241 294 q 345 317 299 317 l 418 317 l 418 380 l 361 380 q 250 412 283 380 q 217 516 217 444 q 252 600 217 564 q 349 635 288 635 q 413 627 382 635 q 458 606 444 618 q 449 558 454 581 q 444 510 444 535 q 466 466 444 486 q 527 447 487 447 q 579 472 564 447 q 594 530 594 498 q 530 645 594 602 q 348 687 465 687 q 222 670 275 687 q 138 626 169 652 q 92 569 104 597 q 80 515 80 541 q 87 468 80 492 q 112 422 94 444 q 164 384 130 401 q 249 357 198 366 l 249 351 q 182 339 216 349 q 121 309 149 330 q 75 255 92 287 q 57 178 57 224 q 81 90 57 128 q 146 28 106 52 q 239 -8 188 3 q 345 -20 290 -20 q 515 28 439 -20 q 637 171 591 75 "},"":{"ha":795,"x_min":47,"x_max":781,"o":"m 515 122 q 458 56 494 81 q 376 31 423 31 q 290 56 325 31 q 232 124 255 81 q 198 224 209 168 q 188 340 188 281 q 197 446 188 395 q 227 534 207 496 q 285 602 249 576 q 376 628 321 628 q 465 605 431 628 q 521 540 498 581 q 550 446 541 503 q 560 337 560 389 q 550 219 560 271 q 515 122 539 168 m 513 668 q 447 683 477 678 q 378 688 416 688 q 241 661 304 688 q 137 589 179 635 q 71 476 94 540 q 47 332 47 413 q 74 185 47 250 q 144 74 100 119 q 246 4 189 28 q 368 -20 304 -20 q 511 8 450 -20 q 614 87 571 37 q 679 199 656 135 q 701 332 701 264 q 672 472 701 409 q 587 582 643 536 l 587 585 l 781 585 l 781 668 l 513 668 "},"":{"ha":626,"x_min":26,"x_max":612,"o":"m 612 585 l 612 668 l 180 668 q 112 655 141 668 q 64 621 82 642 q 35 576 43 600 q 26 528 26 552 q 27 487 26 509 q 31 448 29 464 l 73 448 q 82 502 76 478 q 100 542 89 525 q 136 573 115 561 q 194 585 158 585 l 255 585 l 255 148 q 287 28 255 70 q 398 -14 319 -14 q 491 -2 455 -14 q 571 29 527 11 l 571 79 q 529 70 558 74 q 481 66 500 66 q 424 76 442 66 q 395 106 405 86 q 384 155 385 127 q 382 226 382 184 l 382 585 l 612 585 "},"":{"ha":966,"x_min":47,"x_max":919,"o":"m 818 608 q 723 667 776 647 q 619 687 671 687 q 548 678 587 687 q 484 650 509 669 q 437 599 454 630 q 419 524 419 568 l 419 33 q 251 117 313 35 q 189 332 189 199 q 229 529 189 458 q 345 628 268 601 l 334 683 q 119 557 191 648 q 47 332 47 467 q 148 84 47 180 q 419 -20 249 -12 l 419 -301 l 545 -301 l 545 -20 q 682 8 614 -18 q 802 81 749 34 q 887 197 854 127 q 919 356 919 267 q 891 506 919 446 q 818 608 863 567 m 777 361 q 719 130 777 220 q 545 33 661 41 l 545 555 q 568 613 545 592 q 623 635 591 635 q 733 562 690 635 q 777 361 777 489 "},"":{"ha":893,"x_min":-3,"x_max":897,"o":"m 897 -151 l 897 -82 l -3 -82 l -3 -151 l 897 -151 m 897 -301 l 897 -233 l -3 -233 l -3 -301 l 897 -301 "},"":{"ha":799,"x_min":140,"x_max":665,"o":"m 320 896 q 296 961 320 935 q 233 987 271 987 q 171 961 195 987 q 146 896 146 935 q 169 668 146 862 q 205 293 191 474 l 258 293 q 298 668 275 474 q 320 896 320 862 m 326 78 q 299 143 326 116 q 233 171 271 171 q 168 143 195 171 q 140 78 140 116 q 168 13 140 40 q 233 -14 195 -14 q 299 13 271 -14 q 326 78 326 40 m 659 896 q 635 961 659 935 q 572 987 610 987 q 510 961 534 987 q 486 896 486 935 q 508 668 486 862 q 545 293 530 474 l 597 293 q 637 668 614 474 q 659 896 659 862 m 665 78 q 638 143 665 116 q 572 171 610 171 q 507 143 534 171 q 479 78 479 116 q 507 13 479 40 q 572 -14 534 -14 q 638 13 610 -14 q 665 78 665 40 "}}}
